<?xml version="1.0" encoding="utf-8"?>
<!-- Generator: Adobe Illustrator 16.0.0, SVG Export Plug-In . SVG Version: 6.00 Build 0)  -->
<!DOCTYPE svg PUBLIC "-//W3C//DTD SVG 1.1//EN" "http://www.w3.org/Graphics/SVG/1.1/DTD/svg11.dtd">
<svg version="1.1" id="Layer_1" xmlns="http://www.w3.org/2000/svg" xmlns:xlink="http://www.w3.org/1999/xlink" x="0px" y="0px"
	 width="370px" height="240px" viewBox="0 0 370 240" enable-background="new 0 0 370 240" xml:space="preserve">
<g id="XMLID_16_">
	<g>
		<path fill="#A9ACAB" d="M145.777,134.344c-0.121,0.024-0.23,0.06-0.352,0.109c-0.242,0.097-0.483,0.157-0.726,0.193
			c0.072-0.012,0.157-0.048,0.229-0.072C145.208,134.464,145.499,134.38,145.777,134.344z"/>
		<path fill="#A9ACAB" d="M258.584,175.218c0.302,0.944,0.459,1.876,0.423,2.578c-0.061,2.167-0.557,2.82-2.323,3.51
			c-0.339,0.133-0.666,0.23-1.017,0.291c0.181-0.048,0.351-0.097,0.52-0.169c1.768-0.69,2.264-1.343,2.324-3.51
			c0.036-0.702-0.121-1.634-0.424-2.578c-1.222-3.849-1.852-7.855-3.05-11.729c-1.477-4.781-2.747-9.635-3.945-14.488
			c-1.235-4.999-3.511-9.598-4.987-14.5c-0.254-0.811-0.678-1.017-1.549-0.968c-0.291,0.012-0.581,0.036-0.872,0.048
			c-1.513,0.169-3.014,0.787-4.562,0.145c-0.013,0-0.013,0-0.024,0c0.182-0.036,0.351-0.072,0.521-0.121
			c1.549,0.642,3.05,0.024,4.562-0.145c0.291-0.012,0.581-0.036,0.872-0.048c0.871-0.048,1.295,0.157,1.549,0.968
			c1.477,4.902,3.752,9.501,4.987,14.5c1.198,4.854,2.469,9.708,3.945,14.488C256.731,167.362,257.361,171.369,258.584,175.218z"/>
		<path fill="#A9ACAB" d="M211.016,181.548c-1.113-0.23-2.323-0.303-3.449-0.133c-2.917,0.436-5.762-0.048-8.618-0.448
			c-0.472-0.061-0.968-0.133-1.428-0.036c-1.719,0.351-3.462,0.327-5.205,0.351c-0.859,0.036-1.719,0.23-2.578,0.327
			c-0.568,0.061-1.138,0.121-1.719,0.146c-3.086,0.121-6.185,0.012-9.247,0.557c-0.375,0.073-0.774,0.048-1.162,0
			c-1.912-0.206-3.812-0.254-5.713,0.133c-0.653,0.133-1.343,0.073-2.021,0.073c-3.377,0-6.767,0-10.144,0
			c-0.484,0-0.98-0.024-1.44,0.097c-0.023,0.012-0.061,0.012-0.084,0.012c0.193-0.048,0.387-0.084,0.58-0.133
			c0.46-0.121,0.957-0.097,1.44-0.097c3.377,0,6.767,0,10.144,0c0.678,0,1.367,0.061,2.021-0.072c1.899-0.388,3.8-0.339,5.713-0.133
			c0.387,0.048,0.786,0.073,1.161,0c3.062-0.545,6.161-0.436,9.248-0.557c0.581-0.024,1.149-0.085,1.719-0.146
			c0.859-0.097,1.719-0.291,2.578-0.327c1.742-0.024,3.485,0,5.204-0.351c0.46-0.097,0.956-0.024,1.429,0.036
			c2.856,0.399,5.7,0.884,8.617,0.448c1.126-0.169,2.336-0.097,3.45,0.133c1.161,0.242,2.312,0.278,3.461,0.291
			c5.313,0.048,10.64,0.024,15.953,0.073c1.537,0.024,3.086-0.133,4.611,0.314c1.138,0.327,2.287-0.084,3.438-0.206
			c1.126-0.121,2.227,0.544,3.401,0.266c-0.157,0.049-0.303,0.085-0.46,0.121c-1.187,0.291-2.3-0.387-3.438-0.266
			c-1.15,0.121-2.3,0.533-3.438,0.206c-1.525-0.448-3.074-0.291-4.611-0.314c-5.313-0.048-10.64-0.024-15.953-0.073
			C213.328,181.826,212.178,181.79,211.016,181.548z"/>
		<path fill="#A9ACAB" d="M167.648,134.852c-3.195,0.109-6.343-0.533-9.525-0.557c-1.259,0-2.554-0.121-3.752,0.158
			c-1.853,0.423-3.607,0.399-5.435,0c-1.041-0.218-2.095-0.339-3.159-0.109c1.223-0.375,2.457-0.267,3.655-0.012
			c1.827,0.399,3.582,0.423,5.435,0c1.198-0.278,2.493-0.157,3.752-0.157c3.184,0.024,6.33,0.666,9.525,0.557
			c1.731-0.073,3.462,0.073,5.181-0.363c0.642-0.157,1.392-0.193,2.009-0.024c1.719,0.484,3.462,0.327,5.192,0.339
			c3.39,0.012,6.778,0,10.155-0.012c2.228,0,4.454,0.084,6.646-0.412c0.557-0.133,1.149-0.133,1.73-0.145
			c3.583-0.012,7.165-0.085,10.736-0.012c4.26,0.084,8.509,0.145,12.757,0.036c4.164-0.109,8.315-0.073,12.479-0.073
			c1.356,0,2.736,0.061,4.067-0.218c-1.489,0.424-3.038,0.339-4.563,0.339c-4.163,0-8.315-0.036-12.479,0.073
			c-4.248,0.109-8.497,0.048-12.758-0.036c-3.57-0.073-7.153,0-10.735,0.012c-0.581,0.012-1.174,0.012-1.731,0.146
			c-2.19,0.496-4.417,0.412-6.645,0.412c-3.377,0.012-6.766,0.024-10.155,0.012c-1.73-0.012-3.474,0.145-5.192-0.339
			c-0.617-0.169-1.367-0.133-2.009,0.024C171.11,134.924,169.379,134.779,167.648,134.852z"/>
		<path d="M115.095,166.624c-0.69,3.002-1.296,6.028-2.167,8.981c-0.303,1.017-0.581,2.045-0.859,3.062
			c-0.097,0.363,0.193,0.811,0.557,0.847c0.774,0.072,1.562,0.024,2.312,0.182c3.401,0.653,6.778,1.428,10.216,1.864
			c0.969,0.133,1.9,0.254,2.868,0.157c0.376-0.048,0.763-0.109,1.126-0.048c1.44,0.242,2.881,0.23,4.333,0.23
			c1.937-0.012,3.873,0.012,5.798,0.145c4.225,0.279,8.461,0.581,12.697,0.472c0.58-0.024,1.198-0.061,1.742,0.085
			c1.514,0.423,2.978,0.387,4.491,0.024c0.023,0,0.061,0,0.084-0.012c0.46-0.121,0.956-0.097,1.44-0.097c3.377,0,6.767,0,10.144,0
			c0.678,0,1.367,0.061,2.021-0.073c1.9-0.387,3.801-0.339,5.713-0.133c0.388,0.048,0.787,0.073,1.162,0
			c3.062-0.545,6.161-0.436,9.247-0.557c0.581-0.024,1.15-0.085,1.719-0.146c0.859-0.097,1.719-0.291,2.578-0.327
			c1.743-0.024,3.486,0,5.205-0.351c0.46-0.097,0.956-0.024,1.428,0.036c2.856,0.399,5.701,0.884,8.618,0.448
			c1.126-0.169,2.336-0.097,3.449,0.133c1.162,0.242,2.312,0.278,3.462,0.291c5.313,0.048,10.64,0.024,15.953,0.073
			c1.537,0.024,3.086-0.133,4.611,0.314c1.138,0.327,2.287-0.084,3.438-0.206c1.138-0.121,2.251,0.557,3.438,0.266
			c0.157-0.036,0.303-0.072,0.46-0.121c0.012,0,0.023,0,0.036,0c0.121-0.024,0.229-0.061,0.351-0.084
			c0.036-0.012,0.061-0.012,0.085-0.024c0.157-0.024,0.327-0.048,0.484-0.061c0.763-0.061,1.622-0.242,2.287,0.024
			c1.453,0.557,2.856,0.387,4.272,0.133c1.15-0.194,2.3-0.182,3.45-0.23c0.774-0.037,1.549-0.097,2.287-0.315
			c0.013,0,0.024,0,0.037-0.012c0.351-0.061,0.678-0.157,1.017-0.291c1.767-0.69,2.263-1.343,2.323-3.51
			c0.036-0.702-0.121-1.634-0.423-2.578c-1.223-3.849-1.853-7.855-3.051-11.729c-1.477-4.781-2.747-9.635-3.945-14.488
			c-1.235-4.999-3.511-9.598-4.987-14.5c-0.254-0.811-0.678-1.017-1.549-0.968c-0.291,0.012-0.581,0.036-0.872,0.048
			c-1.513,0.169-3.014,0.787-4.562,0.145c-0.17,0.049-0.339,0.085-0.521,0.121c-1.331,0.278-2.711,0.218-4.067,0.218
			c-4.163,0-8.314-0.036-12.479,0.073c-4.248,0.109-8.497,0.048-12.757-0.036c-3.571-0.073-7.153,0-10.736,0.012
			c-0.581,0.012-1.174,0.012-1.73,0.145c-2.191,0.496-4.418,0.412-6.646,0.412c-3.377,0.012-6.766,0.024-10.155,0.012
			c-1.73-0.012-3.474,0.145-5.192-0.339c-0.617-0.169-1.367-0.133-2.009,0.024c-1.719,0.436-3.449,0.291-5.181,0.363
			c-3.195,0.109-6.342-0.533-9.525-0.557c-1.259,0-2.554-0.121-3.752,0.157c-1.853,0.423-3.607,0.399-5.435,0
			c-1.198-0.254-2.433-0.363-3.655,0.012c-0.278,0.036-0.569,0.121-0.848,0.23c-0.072,0.024-0.157,0.06-0.229,0.072
			c-0.702,0.133-1.429,0.097-2.143,0.061c-0.969-0.061-1.937-0.169-2.893-0.084c-3.486,0.314-6.948,0.23-10.397-0.291
			c-0.568-0.097-1.162-0.024-1.743-0.097c-0.483-0.06-0.92-0.024-1.295,0.109c-0.907,0.121-1.549,0.689-2.009,1.573
			c-0.581,1.125-0.993,2.336-1.114,3.583c-0.097,0.98-0.387,1.888-0.653,2.808c-0.823,2.869-1.67,5.737-2.529,8.594
			c-0.242,0.835-0.533,1.658-0.872,2.457C117.225,157.631,116.135,162.122,115.095,166.624z M195.862,133.242
			c0.92-0.218,1.925-0.169,2.893-0.157c4.636,0,9.283,0.048,13.932,0.061c4.732,0,9.477-0.012,14.21-0.049
			c2.808-0.012,5.604-0.061,8.411-0.097c1.065-0.012,2.131,0.097,3.159-0.303c0.545-0.218,1.126-0.121,1.707-0.024
			c1.452,0.242,2.868-0.133,4.272-0.412c0.751-0.157,1.102-0.666,1.113-1.489c0.061-2.227,0.098-4.454,0.098-6.681
			c0.023-4.636,0.012-9.284,0.012-13.932h0.072c0-3.486-0.012-6.959,0.013-10.445c0.012-3.377-0.073-6.754,0.145-10.119
			c0.098-1.428,0.219-2.881,0.255-4.321c0.084-3.861,0.169-7.71,1.089-11.499c0.242-1.017,0.157-2.118,0.182-3.184
			c0.109-4.442,0.072-8.896-0.267-13.338c-0.048-0.762-0.254-1.5-0.314-2.263c-0.085-0.872-0.629-1.368-1.549-1.416
			c-1.84-0.109-3.68-0.146-5.52-0.157c-1.247-0.012-2.493,0-3.74-0.073c-0.956-0.048-1.912-0.133-2.881-0.303
			c-1.791-0.327-3.667-0.157-5.507-0.193c-3.195-0.012-6.343-0.436-9.489-0.872c-1.355-0.194-2.699-0.169-4.055-0.037
			c-2.409,0.218-4.793-0.084-7.153-0.436c-0.969-0.133-1.912-0.23-2.881-0.23c-2.518,0-5.035,0-7.553,0
			c-2.021,0-4.03-0.206-6.04,0.351c-0.822,0.218-1.73,0.084-2.602,0.084c-3.099,0-6.197,0.012-9.296-0.036
			c-0.956-0.012-1.9-0.291-2.856-0.327c-5.023-0.206-10.059-0.278-15.081-0.048c-0.291,0.024-0.594,0-0.872,0.061
			c-2.856,0.689-5.761,0.472-8.666,0.448c-2.614-0.024-5.265-0.278-7.818,0.109c-4.431,0.678-8.885,0.157-13.303,0.617
			c0.642-0.145,0.594-1.198-0.145-1.198h-1.477c0-0.012,0-0.024,0-0.036c0-0.024,0.012-0.037,0.023-0.049
			c0.509,0,1.029,0.024,1.55,0.024c1.053,0.278,2.094,0.363,3.243,0.061c1.187-0.315,2.506-0.085,3.765-0.121
			c1.73-0.048,3.486,0.218,5.156-0.484c0.254-0.109,0.581-0.109,0.859-0.097c3.57,0.158,7.153-0.339,10.712,0.242
			c0.726,0.121,1.513-0.157,2.275-0.194c2.493-0.145,4.986-0.508,7.479-0.569c3.85-0.109,7.734-0.436,11.571,0.242
			c0.388,0.073,0.775,0.097,1.162,0.097c4.151,0.024,8.315,0.073,12.479,0.037c1.719-0.012,3.461,0.169,5.18-0.375
			c0.605-0.193,1.344,0.037,2.01,0.109c0.581,0.061,1.174,0.315,1.719,0.23c2.3-0.411,4.599,0,6.898,0.012
			c1.937,0,3.861,0.073,5.773,0.448c1.344,0.267,2.724,0.339,4.031,0.085c1.549-0.303,3.038-0.121,4.562,0
			c4.043,0.339,8.073,0.799,12.141,0.799c0.678,0,1.38-0.073,2.033,0.073c2.384,0.544,4.805,0.351,7.214,0.375
			c2.033,0.012,4.066,0.061,6.088,0.121c0.932,0.036,1.187,0.254,1.465,1.089c0.097,0.266,0.205,0.544,0.242,0.835
			c0.182,1.428,0.447,2.856,0.483,4.297c0.098,3.68,0.098,7.359,0.134,11.015c0.012,2.251-0.473,4.43-0.859,6.608
			c-0.085,0.472-0.206,0.944-0.23,1.428c-0.205,3.462-0.46,6.936-0.568,10.397c-0.194,5.507-0.085,11.002-0.085,16.51
			c-0.012,8.812-0.085,17.611-0.146,26.422c-0.012,1.355,0.206,2.663,0.605,3.982c0.689,2.215,1.501,4.381,2.36,6.536
			c1.549,3.861,2.493,7.903,3.57,11.91c0.363,1.392,0.751,2.784,1.138,4.176c0.835,2.978,1.707,5.931,2.506,8.92
			c0.568,2.143,1.017,4.309,1.549,6.463c0.267,1.126,0.593,2.239,0.92,3.353c0.496,1.707,0.521,3.401-0.036,5.132
			c-0.375,1.174-0.653,2.373-0.969,3.559c-0.218-0.412-0.907-0.387-1.089,0.061c-0.012-0.617,0.193-1.223,0.388-1.815
			c0.157-0.533-0.291-0.932-0.859-0.714c-1.393,0.533-2.833,0.533-4.285,0.581c-1.537,0.036-3.099-0.085-4.611,0.387
			c-0.424,0.133-1.005,0.097-1.416-0.084c-1.126-0.509-2.264-0.315-3.426-0.291c-2.227,0.048-4.454,0.048-6.669,0.036
			c-7.263-0.061-14.513-0.145-21.774-0.218c-0.388,0-0.787,0.097-1.162,0c-2.578-0.654-5.181-0.327-7.795-0.351
			c-2.312-0.012-4.636,0.157-6.923-0.484c-0.715-0.206-1.586-0.23-2.3-0.048c-2.457,0.678-4.987,0.291-7.48,0.811
			c-2.045,0.424-4.224,0.242-6.354,0.278c-2.323,0.037-4.647,0.012-6.972,0.037c-1.246,0-2.493-0.085-3.716,0.351
			c-0.617,0.23-1.344,0.169-2.021,0.146c-4.066-0.146-8.121-0.048-12.188,0.024c-4.055,0.049-8.146,0.121-12.188-0.206
			c-4.623-0.375-9.259-0.254-13.895-0.46c-1.609-0.073-3.22-0.242-4.866-0.157c-1.706,0.084-3.437-0.387-5.144-0.666
			c-2.288-0.388-4.551-0.823-6.826-1.259c-0.787-0.158-1.537-0.073-2.288,0.157c-0.496,0.157-0.859,0.363-0.907,0.944
			c-0.242,3.353-0.278,3.885,3.485,4.563c4.043,0.727,8.098,0.424,12.152,0.388c0.666,0,1.344-0.121,1.997-0.254
			c1.149-0.242,2.336-0.351,3.462-0.133c2.59,0.521,5.192,0.448,7.794,0.521c0.581,0.012,1.175-0.012,1.731,0.109
			c3.546,0.787,7.104,0.46,10.663,0.121c0.774-0.072,1.501-0.109,2.275,0.049c1.719,0.351,3.45,0.399,5.181,0
			c0.642-0.158,1.355-0.23,1.997-0.121c2.796,0.448,5.592,0.291,8.4,0.314c5.035,0.024,10.082-0.169,15.093,0.206
			c4.527,0.351,9.065,0.206,13.593,0.52c2.118,0.146,4.236-0.036,6.342,0.363c0.944,0.182,1.949,0.133,2.905,0
			c1.827-0.278,3.595-0.387,5.446,0.085c1.077,0.266,2.336,0.097,3.45-0.146c1.84-0.387,3.655-0.266,5.471-0.024
			c0.968,0.121,1.912,0.109,2.881-0.012c2.493-0.291,4.986-0.763,7.468,0.073c0.182,0.06,0.399,0.097,0.581,0.048
			c2.239-0.654,4.623-0.024,6.875-0.799c0.702-0.242,1.537-0.146,2.3-0.158c2.518-0.048,5.035-0.061,7.553-0.121
			c2.117-0.024,4.235-0.097,6.185-1.113c0.061-0.036,0.133-0.048,0.206-0.048c-0.037,0.182-0.098,0.351-0.182,0.521
			c-0.182,0.412,0.108,0.799,0.436,0.896c-0.254,0.157-0.521,0.303-0.812,0.375c-2.263,0.618-4.587,0.557-6.911,0.581
			c-2.614,0.048-5.216,0.061-7.831,0.097c-0.568,0.012-1.174,0.036-1.719,0.218c-1.852,0.629-3.788,0.472-5.688,0.75
			c-0.363,0.061-0.799,0.036-1.138-0.109c-1.488-0.618-3.025-0.424-4.575-0.388c-2.711,0.085-5.422,0.097-8.121,0.085
			c-1.356,0-2.699-0.048-4.031,0.314c-1.041,0.291-2.154,0.315-3.171,0.049c-2.3-0.605-4.636-0.351-6.923-0.218
			c-1.828,0.109-3.619-0.036-5.423-0.036c-1.549,0-3.099-0.097-4.647-0.157c-0.291-0.012-0.594,0.036-0.859-0.048
			c-2.095-0.593-4.2-0.533-6.318-0.206c-0.278,0.037-0.581,0.024-0.859-0.024c-2.493-0.412-5.011-0.254-7.528-0.23
			c-0.969,0.012-1.937,0.012-2.893,0c-2.615-0.049-5.229-0.061-7.844-0.146c-2.565-0.097-5.156,0-7.71-0.387
			c-0.75-0.109-1.537,0-2.312,0.073c-0.666,0.061-1.332,0.291-1.997,0.291c-4.732,0.036-9.478,0.121-14.21,0.012
			c-1.815-0.048-3.619-0.544-5.459-0.532c-1.743,0.012-3.485-0.194-5.217,0.048c-0.774,0.109-1.585,0.097-2.287-0.23
			c-0.944-0.436-1.889-0.278-2.845-0.182c-3.655,0.387-7.299,0.654-10.941-0.061c-0.763-0.157-1.55-0.145-2.324-0.194
			c-1.367-0.084-2.626-0.593-3.873-1.125c-0.388-0.169-0.557-0.533-0.569-0.932c-0.036-1.259-0.048-2.529-0.048-3.764
			c0-0.883,0.157-1.719,0.472-2.554c1.683-4.43,2.421-9.114,3.607-13.689c0.956-3.728,1.694-7.528,3.207-11.099
			c0.896-2.142,1.355-4.43,2.143-6.596c0.811-2.179,1.355-4.418,1.961-6.657c0.363-1.295,0.521-2.651,0.859-3.946
			c0.266-1.029,0.521-2.106,1.041-2.99c0.593-1.004,0.799-2.058,0.568-3.062c-0.545-2.396-0.267-4.817-0.411-7.214
			c-0.182-3.086-0.412-6.161-0.569-9.247c-0.085-1.634-0.036-3.28-0.108-4.926c-0.121-2.614-0.399-5.192-0.436-7.795
			c-0.073-5.701-0.049-11.414-0.049-17.139c0.012-4.721,0.036-9.465,0.061-14.21c0-0.484-0.049-0.98,0.072-1.44
			c0.605-2.397,0.206-4.817,0.291-7.226c0.012-0.472-0.206-0.944-0.255-1.416c-0.036-0.484-0.12-0.993,0.013-1.428
			c0.29-0.944,0.254-1.925,0.447-2.869c0.376-1.815,1.041-3.474,2.566-4.442c-0.036,0.315,0.157,0.666,0.569,0.666h0.06
			c-1.403,1.15-1.912,2.82-2.142,4.684c-0.218,1.719-0.376,3.377-0.157,5.144c0.241,1.973,0.423,4.055-0.206,6.052
			c-0.097,0.266-0.097,0.581-0.072,0.859c0.241,3.389-0.17,6.754-0.146,10.131c0.036,7.057-0.024,14.125-0.013,21.182
			c0,1.839-0.048,3.679,0.412,5.483c0.048,0.182,0.121,0.399,0.072,0.569c-0.472,1.731,0.085,3.438,0.085,5.156
			c0,1.646,0.036,3.292,0.157,4.938c0.278,3.559,0.472,7.117,0.557,10.7c0,0.267,0.024,0.533,0.061,0.799
			c0.085,0.884,0.267,1.755,0.363,2.639c0.109,0.847-0.193,1.743,0.375,2.518c0.884-0.327,1.707,0.157,2.578,0.157
			c3.861,0.012,7.734,0.351,11.596,0.024c0.774-0.061,1.549,0.048,2.323,0.084c0.969,0.037,1.925,0.037,2.869-0.291
			c1.307-0.459,2.687-0.399,4.006-0.109c1.925,0.46,3.801,0.484,5.726,0.024c0.835-0.194,1.743-0.23,2.603-0.169
			c2.105,0.133,4.224,0.097,6.354,0.375c2.565,0.327,5.216,0.23,7.818,0.024c1.344-0.097,2.663-0.073,4.007-0.024
			c3.667,0.109,7.347,0.121,11.014,0.146c1.259,0.012,2.518-0.048,3.776-0.061C192.207,133.545,194.034,133.666,195.862,133.242z"/>
		<path fill="#A9ACAB" d="M233.602,162.569c2.421-0.654,4.986-0.46,7.432-1.029c0.46-0.097,0.968,0.036,1.646,0.073
			c0.205,0.036,0.472,0.097,0.762,0.157c0.098-0.012,0.206-0.036,0.303-0.036c0.121-0.073,0.242-0.146,0.339-0.267
			c0.352-0.387,0.424-0.92,0.436-1.428c-0.992-1.464-1.452-3.123-1.73-4.866c-0.229-1.428-0.568-2.832-0.896-4.224
			c-0.218-0.908-0.532-1.162-1.404-1.125c-2.408,0.073-4.829,0.061-7.226,0.448c-0.812,0.133-1.634,0.23-2.445,0.121
			c-0.229,0.036-0.46,0.073-0.702,0.084c-0.241,0.169-0.472,0.351-0.665,0.581c-0.255,0.315-0.399,0.69-0.509,1.089
			c0.085,0.727,0.242,1.453,0.496,2.167c0.799,2.13,1.525,4.285,1.768,6.561c0,0,0.012,0,0.012,0.012
			c0,0.351,0.097,0.654,0.23,0.944C231.968,162.315,232.742,162.521,233.602,162.569z M161.233,155.694
			c0.424-0.012,0.787-0.23,0.944-0.581c0.642-1.477,1.246-2.978,1.864-4.478c-1.235-1.15-2.954-0.484-4.346-1.15
			c-0.388-0.194-0.956-0.037-1.138-0.037c-1.077-0.061-1.864,0.254-2.578,0.206c-1.537-0.109-2.312,0.593-2.82,1.876
			c-0.242,0.629-0.532,1.247-0.763,1.876c-0.532,1.453-0.339,1.743,1.114,1.852c2.372,0.182,4.793-0.218,7.141,0.448
			C160.834,155.755,161.04,155.694,161.233,155.694z M195.136,149.655c0.157,1.247,0.109,2.469-0.254,3.691
			c-0.254,0.872,0.072,1.295,0.908,1.307c2.675,0.037,5.361,0.061,8-0.569c0.46-0.109,0.69-0.411,0.678-0.799
			c-0.024-1.162,0.242-2.275,0.521-3.389c0.182-0.714-0.169-1.174-0.835-1.174c-1.344-0.012-2.688,0-4.03,0v0.012
			c-1.44,0.048-2.881,0.073-4.321,0.145C195.378,148.904,195.088,149.231,195.136,149.655z M212.904,151.7
			c-0.352,0.835-0.267,1.719-0.291,2.578c-0.012,0.436,0.339,0.774,0.702,0.678c1.683-0.412,3.365-0.811,5.035-1.295
			c0.859-0.254,1.707-0.278,2.578-0.133c0.473,0.073,0.933,0.242,1.404,0.315c0.848,0.133,1.525-0.654,1.223-1.453
			c-0.399-1.077-0.944-2.082-0.799-3.304c0.036-0.375-0.303-0.702-0.727-0.763c-0.375-0.061-0.763-0.061-1.562-0.121
			c-2.179,0.315-4.757,0.69-7.322,1.077c-0.545,0.085-0.69,0.363-0.399,1.053C212.952,150.792,213.098,151.216,212.904,151.7z
			 M136.082,147.524c0.388,0.109,0.774-0.084,0.92-0.484c0.568-1.525,1.138-3.062,1.658-4.624c0.206-0.593-0.133-1.101-0.774-1.295
			c-1.671-0.521-3.401-0.533-5.241-0.484c-1.126,0.206-2.396-0.17-3.595,0.314c-0.509,1.125-1.017,2.275-1.513,3.413
			c-0.267,0.618-0.545,1.235-0.787,1.852c-0.303,0.738,0.182,1.223,1.053,1.102C130.575,146.907,133.335,146.689,136.082,147.524z
			 M168.858,163.816c1.489,0.242,3.015,0.182,4.479,0.569c0.63,0.169,0.872-0.048,0.896-0.762c0.061-1.622-0.108-3.256,0.399-4.854
			c0.098-0.327-0.266-0.544-0.52-0.557c-1.15-0.048-2.349-0.218-3.438,0.037c-1.319,0.314-2.639,0.423-3.982,0.484
			c-2.989,0.146-3.886,1.549-4.019,3.789c-0.012,0.121,0,0.242,0,0.303c-0.097,1.271,0.182,1.598,1.355,1.537
			c0.097-0.012,0.193,0,0.291-0.037C165.809,163.876,167.346,163.562,168.858,163.816z M186.264,163.937
			c0.944-0.061,1.755,0.024,2.47-0.194c1.791-0.544,3.619-0.423,5.435-0.484c0.665-0.012,1.343,0,2.009-0.036
			c0.327-0.012,0.812-0.557,0.702-0.787c-0.472-0.98-0.484-2.045-0.666-3.074c-0.048-0.218-0.351-0.521-0.568-0.557
			c-0.557-0.085-1.162-0.146-1.707-0.024c-2.094,0.472-4.2,0.327-6.306,0.424c-1.113,0.048-2.457-0.448-3.28,0.46
			c-0.799,0.859-0.146,2.227-0.569,3.329c-0.108,0.302,0.206,0.762,0.654,0.811C185.102,163.889,185.768,163.901,186.264,163.937z
			 M192.57,145.37c2.554-0.218,2.554-0.23,2.518-2.724c-0.013-0.472,0.036-0.956,0.036-1.44c-0.013-0.775-0.206-1.005-0.944-1.235
			c-1.017-0.314-2.046-0.533-3.123-0.484c-1.827,0.084-3.655,0.097-5.435,0.581c-0.92,0.267-1.38,0.654-1.477,1.501
			c-0.061,0.484-0.084,0.968-0.072,1.453c0.012,0.835-0.859,1.719-0.254,2.481c0.702,0.896,1.585-0.145,2.408-0.097
			c1.065,0.061,2.13,0.012,3.184,0.012c0.012,0.048,0.012,0.084,0.012,0.133C190.476,145.491,191.529,145.455,192.57,145.37z
			 M172.829,134.489c0.642-0.157,1.392-0.194,2.009-0.024c1.719,0.484,3.462,0.327,5.192,0.339c3.39,0.012,6.778,0,10.155-0.012
			c2.228,0,4.454,0.084,6.645-0.412c0.558-0.133,1.15-0.133,1.731-0.146c3.582-0.012,7.165-0.084,10.735-0.012
			c4.261,0.084,8.51,0.145,12.758,0.036c4.163-0.109,8.315-0.073,12.479-0.073c1.525,0,3.074,0.085,4.563-0.339
			c0.012,0,0.012,0,0.024,0c1.549,0.642,3.05,0.024,4.562-0.145c0.291-0.012,0.581-0.037,0.872-0.048
			c0.871-0.049,1.295,0.157,1.549,0.968c1.477,4.902,3.752,9.501,4.987,14.5c1.198,4.854,2.469,9.707,3.945,14.488
			c1.198,3.873,1.828,7.879,3.05,11.729c0.303,0.944,0.46,1.876,0.424,2.578c-0.061,2.167-0.557,2.82-2.324,3.51
			c-0.169,0.073-0.339,0.121-0.52,0.169c-0.013,0.012-0.024,0.012-0.037,0.012c-0.581,0.121-1.186,0.169-1.791,0.194
			c-1.149,0.048-2.3,0.036-3.449,0.23c-1.416,0.254-2.82,0.423-4.272-0.133c-0.666-0.266-1.525-0.084-2.288-0.024
			c-0.339,0.012-0.653,0.097-0.98,0.182c-0.024,0.012-0.049,0.012-0.085,0.024c-0.121,0.024-0.229,0.048-0.351,0.084
			c-0.013,0-0.024,0-0.036,0c-1.175,0.278-2.275-0.387-3.401-0.266c-1.15,0.121-2.3,0.533-3.438,0.206
			c-1.525-0.448-3.074-0.29-4.611-0.314c-5.313-0.048-10.64-0.024-15.953-0.073c-1.149-0.012-2.3-0.048-3.461-0.291
			c-1.114-0.23-2.324-0.302-3.45-0.133c-2.917,0.436-5.761-0.049-8.617-0.448c-0.473-0.061-0.969-0.133-1.429-0.036
			c-1.719,0.351-3.462,0.327-5.204,0.351c-0.859,0.036-1.719,0.23-2.578,0.327c-0.569,0.061-1.138,0.121-1.719,0.146
			c-3.087,0.121-6.186,0.012-9.248,0.557c-0.375,0.073-0.774,0.048-1.161,0c-1.913-0.206-3.813-0.254-5.713,0.133
			c-0.654,0.133-1.344,0.072-2.021,0.072c-3.377,0-6.767,0-10.144,0c-0.483,0-0.98-0.024-1.44,0.097
			c-0.193,0.048-0.387,0.084-0.58,0.133c-1.332,0.242-2.651,0.23-3.995-0.145c-0.544-0.146-1.161-0.109-1.742-0.085
			c-4.236,0.109-8.473-0.193-12.697-0.472c-1.924-0.133-3.861-0.158-5.798-0.146c-1.452,0-2.893,0.012-4.333-0.23
			c-0.363-0.061-0.75,0-1.125,0.048c-0.969,0.097-1.9-0.024-2.869-0.157c-3.438-0.436-6.814-1.21-10.215-1.864
			c-0.751-0.158-1.538-0.109-2.312-0.182c-0.363-0.037-0.653-0.484-0.557-0.847c0.278-1.017,0.557-2.046,0.859-3.062
			c0.871-2.953,1.477-5.979,2.167-8.981c1.041-4.502,2.13-8.993,3.958-13.266c0.339-0.799,0.629-1.622,0.871-2.457
			c0.859-2.856,1.707-5.725,2.529-8.594c0.267-0.92,0.557-1.828,0.654-2.808c0.121-1.247,0.532-2.458,1.113-3.583
			c0.363-0.714,0.859-1.222,1.513-1.452c0.242-0.024,0.509-0.024,0.799,0.012c0.581,0.073,1.174,0,1.743,0.097
			c3.449,0.521,6.911,0.605,10.397,0.291c0.956-0.085,1.924,0.024,2.893,0.084c0.884,0.048,1.791,0.085,2.639-0.182
			c0.242-0.036,0.483-0.097,0.726-0.193c0.121-0.049,0.23-0.085,0.352-0.109c1.064-0.23,2.118-0.109,3.159,0.109
			c1.827,0.399,3.582,0.423,5.435,0c1.198-0.278,2.493-0.158,3.752-0.158c3.183,0.024,6.33,0.666,9.525,0.557
			C169.379,134.779,171.11,134.924,172.829,134.489z M226.763,144.196c2.058,0.339,4.261-0.702,6.561-0.653
			c0.436,0,0.702-0.363,0.727-0.763c0.036-0.569,0-1.15-0.073-1.719c-0.303-2.033-0.92-2.626-2.941-2.771
			c-0.568-0.024-1.186-0.037-1.706,0.157c-1.126,0.399-2.264,0.327-3.413,0.327c-0.666,0-1.344,0.036-2.01,0.097
			c-0.786,0.061-1.041,0.412-0.689,1.089c0.266,0.533,0.436,1.041,0.46,1.634c0.036,0.75-0.412,1.598,0.097,2.227
			c0.629,0.799,1.598,0.278,2.421,0.339C226.291,144.172,226.388,144.172,226.763,144.196z M154.056,146.581
			c0.242,0.084,0.678,0.193,0.763,0.072c0.581-0.738,1.707-0.92,1.961-2.009c0.157-0.75,0.46-1.464,0.702-2.19
			c0.169-0.533,0.363-1.065,0.472-1.392c-0.036-0.581-0.29-0.823-0.544-0.811c-0.859,0.024-1.731,0.303-2.555,0.182
			c-2.287-0.363-4.562-0.544-6.838,0.012c-0.17,0.048-0.376-0.085-0.557-0.097c-1.139-0.073-1.319,0.024-1.646,1.065
			c-0.424,1.368-0.823,2.748-1.223,4.127c-0.157,0.508,0.182,1.017,0.666,0.992c1.634-0.048,3.304,0.085,4.878-0.23
			C151.526,146.023,152.773,146.084,154.056,146.581z M211.973,139.379c-2.76,0-5.495,0.569-8.268,0.411
			c-0.411-0.024-0.689,0.339-0.823,0.69c-0.387,0.908-0.302,1.876-0.229,2.833c0.036,0.399,0.327,0.714,0.738,0.774
			c1.9,0.254,3.801,0.472,5.701,0.702c1.271-0.036,2.481-0.303,3.716-0.545c1.948-0.363,2.215-0.653,2.105-2.614
			c-0.023-0.375-0.048-0.763-0.108-1.138c-0.085-0.702-0.436-1.053-1.102-1.089C213.122,139.367,212.553,139.379,211.973,139.379z
			 M135.489,151.519c-0.594,0.182-1.126,0.061-1.501-0.532c-0.218-0.351-0.521-0.109-0.714,0.072
			c-0.412,0.399-0.896,0.799-0.859,1.44c0.048,0.811-0.363,1.477-0.581,2.215s-0.412,1.477-0.581,2.227
			c-0.121,0.545,0.278,1.029,0.774,0.944c2.203-0.412,4.394-0.399,6.584,0.121c0.473,0.109,0.957,0.109,1.404,0.145
			c1.392,0.073,1.997-0.412,2.19-1.743c0.134-0.957,0.098-1.949,0.388-2.856c0.727-2.3-0.061-2.663-2.324-2.324
			c-0.182,0.048-0.362,0.146-0.544,0.206c-0.569,0.193-1.175,0.266-1.707,0.036C137.147,151.083,136.336,151.265,135.489,151.519z
			 M142.279,161.25c-1.126,0.278-2.228,0.472-3.377,0.073c-0.509-0.182-1.174,0.242-1.211,0.738c-0.048,0.763-0.036,1.537,0.024,2.3
			c0.024,0.23,0.267,0.581,0.46,0.641c1.102,0.279,2.179,0.811,3.365,0.399c1.21-0.411,2.444-0.448,3.703-0.302
			c0.194,0,0.388,0.024,0.581,0.024c1.864,0.024,2.167,0.291,2.724-2.069c0.133-0.557,0.17-1.138,0.218-1.719
			c0.036-0.509-0.339-0.957-0.823-0.957c-0.665,0-1.355-0.024-2.009,0.085C144.712,160.669,143.489,160.959,142.279,161.25z
			 M180.842,149.4c-1.393-0.133-2.663,0.327-3.994,0.472c-0.399,0.048-0.702,0.339-0.751,0.763c-0.085,0.859-0.146,1.73-0.193,2.602
			c-0.024,0.557-0.605,1.102-0.242,1.646c0.46,0.654,1.234,0.412,1.888,0.399c0.679,0,1.344-0.097,2.578-0.206
			c0.013,0,0.605-0.085,1.175,0.012c1.876,0.327,3.631-0.278,5.41-0.617c0.424-0.085,0.799-0.484,0.666-0.811
			c-0.448-1.174-0.182-2.264,0.108-3.401c0.097-0.387-0.146-0.787-0.581-0.847c-0.666-0.097-1.344-0.157-2.021-0.145
			C183.541,149.292,182.173,149.534,180.842,149.4z M164.163,145.951c2.42,0.218,4.841,0,7.237-0.267
			c0.98-0.109,1.853-0.218,2.809,0.097c1.004,0.327,1.44,0.048,1.876-0.823c0.653-1.307,1.307-2.578,1.948-3.885
			c0.073-0.146,0.049-0.351,0.073-0.533c-0.134-0.133-0.255-0.339-0.412-0.363c-1.622-0.242-3.231-0.484-4.865-0.654
			c-0.569-0.061-1.187-0.061-1.719,0.097c-1.44,0.424-2.832,0.508-4.272,0.048c-0.751-0.23-1.319,0.242-1.743,0.775
			c-0.303,0.363-0.532,0.835-0.63,1.295c-0.205,1.053-0.593,2.034-1.017,3.002C163.158,145.406,163.448,145.891,164.163,145.951z
			 M206.478,163.84c1.937,0.036,3.86,0.012,5.797,0.012c0,0.012,0,0.036,0,0.048c1.925,0,3.861,0,5.786,0
			c0.653,0,0.992-0.375,0.98-1.114c-0.013-0.872-0.049-1.743-0.085-2.614c-0.036-0.738-0.314-1.053-1.065-1.041
			c-3.958,0.036-7.916,0.109-11.873,0.194c-0.412,0-0.715,0.339-0.763,0.75c-0.097,0.762-0.157,1.537-0.157,2.299
			C205.098,163.368,205.497,163.816,206.478,163.84z M199.396,166.491c-3.474,0.242-6.947,0.399-10.434,0.303
			c-4.926-0.133-9.853-0.327-14.767,0.399c-1.513,0.218-3.11,0.206-4.623-0.024c-1.271-0.182-2.47-0.339-3.704,0.012
			c-1.307-0.508-2.675-0.351-4.03-0.351c-0.666,0-1.344,0.072-2.01,0.193c-2.009,0.399-3.994,0.557-6.027,0.085
			c-1.234-0.278-1.876,0.133-2.518,1.319c-0.896,1.622-1.404,3.365-1.9,5.132c-0.326,1.174,0.049,1.307,1.041,1.585
			c0.46,0.109,0.932,0.254,1.404,0.291c3.764,0.242,7.504,0.375,11.244-0.424c1.501-0.327,3.05-0.496,4.587-0.544
			c2.784-0.085,5.556-0.472,8.352-0.157c0.666,0.084,1.38,0.036,2.01-0.169c0.884-0.291,1.67-0.182,2.542,0.036
			c1.222,0.315,2.469,0.327,3.716-0.084c1.307-0.436,2.662-0.436,3.981,0.06c0.836,0.303,1.719,0.303,2.578,0.23
			c1.815-0.145,3.607-0.702,5.447-0.193c0.242,0.061,0.557-0.133,0.835-0.218c0.472-0.133,0.944-0.121,1.416,0.072
			c1.598,0.678,3.231,0.351,4.865,0.121c0.763-0.109,1.525-0.423,2.276-0.351c3.171,0.279,6.33-0.544,9.513-0.061
			c0.085,0.012,0.17,0.024,0.267,0.024c0.787,0.109,1.634,0.073,2.421-0.073c0.012,0,0.024-0.012,0.024-0.012
			c1.138-0.061,2.239-0.097,2.59,0.072c0.012,0,0.012,0.012,0.024,0.012c0.678,0,1.477-0.061,1.779-0.714
			c0.205-0.436,0.303-0.944,0.387-1.453c-0.496-1.283-0.98-2.542-1.464-3.812c-0.242-0.618-0.702-0.884-1.355-0.884
			c-1.55-0.012-3.099-0.012-4.648-0.036c-2.675-0.037-5.361,0.666-8.037-0.146c-0.254-0.073-0.568,0.012-0.859,0.012
			c-1.742,0.012-3.474,0.073-5.204-0.291C200.57,166.333,199.965,166.442,199.396,166.491z"/>
		<path fill="#A9ACAB" d="M242.764,182.081c-0.121,0.024-0.229,0.061-0.351,0.084C242.534,182.129,242.643,182.104,242.764,182.081z
			"/>
		<path fill="#A9ACAB" d="M142.062,134.828c-0.969-0.061-1.937-0.169-2.893-0.084c-3.486,0.314-6.948,0.23-10.397-0.291
			c-0.569-0.097-1.162-0.024-1.743-0.097c-0.29-0.036-0.557-0.036-0.799-0.012c0.375-0.133,0.812-0.169,1.295-0.109
			c0.581,0.073,1.175,0,1.743,0.097c3.449,0.521,6.911,0.605,10.397,0.291c0.956-0.085,1.924,0.024,2.893,0.084
			c0.714,0.037,1.44,0.073,2.143-0.061C143.853,134.913,142.945,134.876,142.062,134.828z"/>
		<path fill="#A9ACAB" d="M112.928,175.605c0.871-2.953,1.477-5.979,2.167-8.981c1.04-4.502,2.13-8.993,3.957-13.266
			c0.339-0.799,0.63-1.622,0.872-2.457c0.859-2.856,1.706-5.725,2.529-8.594c0.267-0.92,0.557-1.828,0.653-2.808
			c0.121-1.247,0.533-2.457,1.114-3.583c0.46-0.884,1.102-1.453,2.009-1.573c-0.653,0.23-1.149,0.738-1.513,1.452
			c-0.581,1.125-0.992,2.336-1.113,3.583c-0.098,0.98-0.388,1.888-0.654,2.808c-0.822,2.869-1.67,5.737-2.529,8.594
			c-0.242,0.835-0.532,1.658-0.871,2.457c-1.828,4.272-2.917,8.763-3.958,13.266c-0.69,3.002-1.296,6.028-2.167,8.981
			c-0.303,1.017-0.581,2.045-0.859,3.062c-0.097,0.363,0.193,0.811,0.557,0.847c0.774,0.073,1.562,0.024,2.312,0.182
			c3.4,0.653,6.777,1.428,10.215,1.864c0.969,0.133,1.9,0.254,2.869,0.157c0.375-0.048,0.762-0.109,1.125-0.048
			c1.44,0.242,2.881,0.23,4.333,0.23c1.937-0.012,3.874,0.012,5.798,0.146c4.225,0.278,8.461,0.581,12.697,0.472
			c0.581-0.024,1.198-0.061,1.742,0.085c1.344,0.375,2.663,0.387,3.995,0.145c-1.514,0.363-2.978,0.399-4.491-0.024
			c-0.544-0.146-1.162-0.109-1.742-0.085c-4.236,0.109-8.473-0.193-12.697-0.472c-1.925-0.133-3.861-0.157-5.798-0.145
			c-1.452,0-2.893,0.012-4.333-0.23c-0.363-0.061-0.75,0-1.126,0.048c-0.968,0.097-1.899-0.024-2.868-0.157
			c-3.438-0.436-6.814-1.21-10.216-1.864c-0.75-0.158-1.537-0.109-2.312-0.182c-0.363-0.037-0.653-0.484-0.557-0.847
			C112.347,177.65,112.625,176.622,112.928,175.605z"/>
		<path fill="#A9ACAB" d="M249.893,182.153c-1.416,0.254-2.819,0.423-4.272-0.133c-0.665-0.266-1.524-0.085-2.287-0.024
			c-0.157,0.012-0.327,0.037-0.484,0.061c0.327-0.084,0.642-0.169,0.98-0.182c0.763-0.06,1.622-0.242,2.288,0.024
			c1.452,0.557,2.856,0.387,4.272,0.133c1.149-0.194,2.3-0.182,3.449-0.23c0.605-0.024,1.21-0.073,1.791-0.194
			c-0.738,0.218-1.513,0.278-2.287,0.315C252.192,181.972,251.043,181.959,249.893,182.153z"/>
		<path d="M231.205,160.875c-0.242-2.276-0.969-4.43-1.768-6.561c-0.254-0.714-0.411-1.44-0.496-2.167
			c0.109-0.399,0.254-0.774,0.509-1.089c0.193-0.23,0.424-0.412,0.665-0.581c0.242-0.012,0.473-0.048,0.702-0.084
			c0.812,0.109,1.634,0.012,2.445-0.121c2.396-0.387,4.817-0.375,7.226-0.448c0.872-0.036,1.187,0.218,1.404,1.125
			c0.327,1.392,0.666,2.796,0.896,4.224c0.278,1.743,0.738,3.401,1.73,4.866c-0.012,0.508-0.084,1.041-0.436,1.428
			c-0.097,0.121-0.218,0.194-0.339,0.267c-0.097,0-0.205,0.024-0.303,0.036c-0.29-0.061-0.557-0.121-0.762-0.157
			c-0.679-0.037-1.187-0.169-1.646-0.073c-2.445,0.569-5.011,0.375-7.432,1.029c-0.859-0.048-1.634-0.254-2.154-0.738
			c-0.134-0.291-0.23-0.593-0.23-0.944C231.217,160.875,231.205,160.875,231.205,160.875z M239.835,151.059
			c-2.796-0.048-5.592,0-8.34,0.581c-0.847,0.182-1.138,0.581-0.92,1.428c0.509,1.949,1.054,3.885,1.574,5.834
			c0.097,0.363,0.108,0.763,0.229,1.125c0.193,0.581,0.557,1.029,1.234,1.017c1.44-0.037,2.917,0.072,4.321-0.194
			c1.609-0.303,3.22-0.557,5.253-0.46c-0.399-1.102-0.689-1.912-0.992-2.723c-0.157-0.448-0.484-0.896-0.473-1.344
			c0.049-1.477-0.714-2.796-0.774-4.248C240.912,151.313,240.573,151.071,239.835,151.059z"/>
		<path fill="#929594" d="M243.188,160.391c-2.033-0.097-3.644,0.157-5.253,0.46c-1.404,0.266-2.881,0.157-4.321,0.194
			c-0.678,0.012-1.041-0.436-1.234-1.017c-0.121-0.363-0.133-0.762-0.229-1.125c-0.521-1.949-1.065-3.885-1.574-5.834
			c-0.218-0.847,0.073-1.247,0.92-1.428c2.748-0.581,5.544-0.629,8.34-0.581c0.738,0.012,1.077,0.254,1.113,1.017
			c0.061,1.452,0.823,2.771,0.774,4.248c-0.012,0.448,0.315,0.896,0.473,1.344C242.498,158.479,242.788,159.289,243.188,160.391z"/>
		<path fill="#A9ACAB" d="M220.493,173.765c-0.351-0.169-1.452-0.133-2.59-0.072c0.157-0.024,0.314-0.061,0.46-0.097
			C219.186,173.378,219.864,173.414,220.493,173.765z"/>
		<path d="M187.45,172.845c1.21,0.484,2.493,0.508,3.716,0.351c2.118-0.254,4.261,0.218,6.342-0.448c0.34-0.109,0.787,0,1.126,0.121
			c1.815,0.666,3.644,0.448,5.447,0.084c0.956-0.193,1.899-0.351,2.868-0.302c3.099,0.169,6.185-0.327,9.283-0.085
			c1.126,0.097,2.3-0.182,3.438-0.351c0.399-0.048,0.774-0.061,1.15,0.012c-0.194,0.896-0.339,1.549-0.303,1.549
			c-0.013,0-0.013-0.012-0.024-0.012c-0.629-0.351-1.308-0.387-2.13-0.169c-0.146,0.037-0.303,0.073-0.46,0.097
			c0,0-0.013,0.012-0.024,0.012c-0.92,0.037-1.864,0.097-2.421,0.073c-0.097,0-0.182-0.012-0.267-0.024
			c-3.183-0.484-6.342,0.339-9.513,0.061c-0.751-0.072-1.514,0.242-2.276,0.351c-1.634,0.23-3.268,0.557-4.865-0.121
			c-0.472-0.193-0.944-0.206-1.416-0.072c-0.278,0.084-0.593,0.278-0.835,0.218c-1.84-0.508-3.632,0.048-5.447,0.193
			c-0.859,0.073-1.742,0.073-2.578-0.23c-1.319-0.496-2.675-0.496-3.981-0.06c-1.247,0.411-2.494,0.399-3.716,0.084
			c-0.872-0.218-1.658-0.327-2.542-0.036c-0.63,0.206-1.344,0.254-2.01,0.169c-2.796-0.315-5.567,0.072-8.352,0.157
			c-1.537,0.048-3.086,0.218-4.587,0.544c-3.74,0.799-7.48,0.666-11.244,0.424c-0.473-0.036-0.944-0.182-1.404-0.291
			c-0.992-0.278-1.367-0.412-1.041-1.585c0.496-1.767,1.005-3.51,1.9-5.132c0.642-1.187,1.283-1.598,2.518-1.319
			c2.033,0.472,4.019,0.314,6.027-0.085c0.666-0.121,1.344-0.193,2.01-0.193c1.355,0,2.724-0.158,4.03,0.351
			c1.234-0.351,2.433-0.193,3.704-0.012c1.513,0.23,3.11,0.242,4.623,0.024c4.914-0.726,9.841-0.533,14.767-0.399
			c3.486,0.097,6.96-0.061,10.434-0.303c0.568-0.048,1.174-0.157,1.719-0.036c1.73,0.363,3.462,0.303,5.204,0.291
			c0.291,0,0.605-0.085,0.859-0.012c2.676,0.811,5.362,0.109,8.037,0.146c1.55,0.024,3.099,0.024,4.648,0.036
			c0.653,0,1.113,0.266,1.355,0.884c0.218,0.557,0.084,1.767-0.121,2.965c-0.327-0.593-0.666-1.187-0.956-1.804
			c-0.352-0.738-0.969-1.041-1.646-0.859c-1.452,0.363-2.868,0-4.297-0.012c-1.149-0.012-2.312-0.17-3.462,0.181
			c-0.436,0.133-0.98,0.146-1.416,0.024c-2.542-0.714-5.229-0.036-7.758-0.799c-0.182-0.048-0.399-0.048-0.581,0
			c-2.276,0.642-4.612,0.266-6.911,0.412c-1.44,0.084-2.905,0.157-4.346,0.097c-5.12-0.194-10.239-0.194-15.348,0.242
			c-2.3,0.182-4.6,0.351-6.923-0.024c-1.319-0.218-2.688-0.206-4.236-0.303c-1.332,0.012-2.881-0.109-4.394,0.375
			c-0.63,0.206-1.344,0.145-2.01,0.182c-0.581,0.024-1.186,0.109-1.743-0.024c-0.714-0.169-1.174,0.666-1.888,0.351
			c-0.146-0.061-0.46-0.024-0.509,0.061c-0.738,1.343-1.706,2.602-1.719,4.224c-0.012,0.424,0.219,0.763,0.594,0.92
			c0.436,0.182,0.907,0.339,1.38,0.375c3.099,0.23,6.209,0.194,9.247-0.29c2.578-0.412,5.144-0.629,7.722-0.896
			c2.034-0.206,4.055-0.121,6.089-0.012c2.105,0.121,4.212-0.423,6.342,0.012c0.848,0.182,1.731-0.024,2.566-0.327
			C185.731,172.579,186.615,172.506,187.45,172.845z"/>
		<path fill="#929594" d="M191.166,173.196c-1.223,0.157-2.506,0.133-3.716-0.351c-0.835-0.339-1.719-0.266-2.554,0.024
			c-0.835,0.303-1.719,0.508-2.566,0.327c-2.13-0.436-4.236,0.109-6.342-0.012c-2.034-0.109-4.055-0.193-6.089,0.012
			c-2.578,0.267-5.144,0.484-7.722,0.896c-3.038,0.484-6.148,0.52-9.247,0.29c-0.473-0.036-0.944-0.193-1.38-0.375
			c-0.375-0.157-0.605-0.496-0.594-0.92c0.013-1.622,0.98-2.881,1.719-4.224c0.049-0.085,0.363-0.121,0.509-0.061
			c0.714,0.315,1.174-0.521,1.888-0.351c0.558,0.133,1.162,0.048,1.743,0.024c0.666-0.037,1.38,0.024,2.01-0.182
			c1.513-0.484,3.062-0.363,4.394-0.375c1.549,0.097,2.917,0.085,4.236,0.303c2.323,0.375,4.623,0.206,6.923,0.024
			c5.108-0.436,10.228-0.436,15.348-0.242c1.44,0.061,2.905-0.012,4.346-0.097c2.299-0.146,4.635,0.23,6.911-0.412
			c0.182-0.048,0.399-0.048,0.581,0c2.529,0.763,5.216,0.084,7.758,0.799c0.436,0.121,0.98,0.109,1.416-0.024
			c1.15-0.351,2.312-0.193,3.462-0.181c1.429,0.012,2.845,0.375,4.297,0.012c0.678-0.182,1.295,0.121,1.646,0.859
			c0.29,0.617,0.629,1.21,0.956,1.804c-0.085,0.508-0.182,1.017-0.278,1.464c-0.376-0.073-0.751-0.061-1.15-0.012
			c-1.138,0.169-2.312,0.448-3.438,0.351c-3.099-0.242-6.185,0.254-9.283,0.085c-0.969-0.048-1.912,0.109-2.868,0.302
			c-1.804,0.363-3.632,0.581-5.447-0.084c-0.339-0.121-0.786-0.23-1.126-0.121C195.427,173.414,193.284,172.942,191.166,173.196z"/>
		<path d="M221.22,167.798c0.483,1.271,0.968,2.529,1.464,3.812c-0.084,0.508-0.182,1.017-0.387,1.453
			c-0.303,0.653-1.102,0.714-1.779,0.714c-0.036,0,0.108-0.654,0.303-1.549c0.097,0,0.182,0.012,0.278,0.036
			c0.532,0.121,0.738-0.097,0.532-0.496c-0.169-0.339-0.351-0.666-0.532-1.004C221.304,169.565,221.438,168.355,221.22,167.798z"/>
		<path fill="#929594" d="M221.631,171.768c0.206,0.399,0,0.617-0.532,0.496c-0.097-0.024-0.182-0.036-0.278-0.036
			c0.097-0.448,0.193-0.956,0.278-1.464C221.28,171.103,221.462,171.429,221.631,171.768z"/>
		<path d="M217.879,173.705c-0.787,0.146-1.634,0.182-2.421,0.073C216.015,173.802,216.959,173.741,217.879,173.705z"/>
		<path d="M257.651,186.752c0.218,0.254,0.193,0.823-0.108,1.017c-0.073,0.049-0.134,0.085-0.206,0.133
			c-0.327-0.097-0.617-0.484-0.436-0.896c0.084-0.169,0.145-0.339,0.182-0.521C257.276,186.474,257.494,186.571,257.651,186.752z"/>
		<path d="M258.365,184.998c-0.048,0.206-0.097,0.399-0.157,0.605c-0.036,0.121-0.314,0.254-0.472,0.23
			c-0.146-0.012-0.363-0.193-0.399-0.327c-0.036-0.146-0.049-0.303-0.061-0.448C257.458,184.61,258.147,184.586,258.365,184.998z"/>
		<path d="M258.208,185.603c0.061-0.206,0.109-0.399,0.157-0.605c0.049,0.084,0.073,0.182,0.073,0.291
			c-0.013,0.823-0.146,1.561-0.484,2.324c-0.133,0.291-0.388,0.363-0.617,0.291c0.072-0.048,0.133-0.084,0.206-0.133
			c0.302-0.193,0.326-0.762,0.108-1.017c-0.157-0.182-0.375-0.278-0.568-0.266c0.108-0.387,0.133-0.787,0.145-1.198
			c0-0.085,0.024-0.169,0.049-0.23c0.012,0.145,0.024,0.302,0.061,0.448c0.036,0.133,0.254,0.314,0.399,0.327
			C257.894,185.857,258.172,185.724,258.208,185.603z"/>
		<path fill="#A9ACAB" d="M154.807,133.291c-1.925,0.46-3.801,0.436-5.726-0.024c-1.319-0.291-2.699-0.351-4.006,0.109
			c-0.944,0.327-1.9,0.327-2.869,0.291c-0.774-0.036-1.549-0.145-2.323-0.084c-3.861,0.327-7.734-0.012-11.596-0.024
			c-0.871,0-1.694-0.484-2.578-0.157c-0.568-0.774-0.266-1.67-0.375-2.518c-0.097-0.883-0.278-1.755-0.363-2.639l2.966-0.206
			c0,0.653,0.665,0.992,1.501,0.678c1.477-0.533,2.94-0.678,4.515-0.436c1.234,0.193,2.505,0.157,3.764,0.157
			c2.312,0,4.636-0.037,6.947-0.073c2.131-0.036,4.249-0.036,6.367-0.097c2.19-0.061,4.382-0.073,6.584-0.242
			c1.041-0.073,2.143-0.073,3.159,0.145c1.731,0.375,3.449,0.375,5.192,0.351c4.261-0.036,8.509-0.036,12.758-0.121
			c1.537-0.024,3.099,0.182,4.611-0.302c0.447-0.146,0.992-0.169,1.428-0.037c2.191,0.654,4.418,0.436,6.633,0.472
			c2.421,0.037,4.83-0.012,7.251-0.024c1.161-0.012,2.323,0,3.474-0.073c1.73-0.097,3.485-0.533,5.18-0.351
			c1.635,0.145,3.232,0.133,4.854,0.109c5.374-0.084,10.761-0.169,16.146-0.291c1.44-0.024,2.917-0.012,4.321-0.278
			c1.344-0.266,2.675-0.387,4.03-0.387c1.065,0,2.118,0.036,3.184,0.036c0.411,0,0.835-0.193,0.944-0.544
			c0.254-0.811,0.822-1.525,0.774-2.433c-0.061-1.247-0.036-2.518-0.242-3.74c-0.133-0.872-0.327-1.755-0.097-2.578
			c0.387-1.344,0.303-2.687,0.303-4.031c0.036-4.067,0.048-8.134,0.024-12.2c-0.098-11.608,0.302-23.215,0.012-34.823
			c-0.072-2.784-0.133-5.58,0.605-8.339c0.436-1.646,0.362-1.634-1.44-1.694c-1.44-0.048-2.894,0.157-4.31-0.363
			c-0.157-0.061-0.326-0.084-0.508-0.084l0.133-3.099c1.247,0.073,2.493,0.061,3.74,0.073c1.84,0.012,3.68,0.048,5.52,0.157
			c0.92,0.048,1.464,0.544,1.549,1.416c0.061,0.763,0.267,1.501,0.314,2.263c0.339,4.442,0.376,8.896,0.267,13.338
			c-0.024,1.065,0.061,2.167-0.182,3.184c-0.92,3.788-1.005,7.637-1.089,11.499c-0.036,1.44-0.157,2.893-0.255,4.321
			c-0.218,3.365-0.133,6.742-0.145,10.119c-0.024,3.486-0.013,6.959-0.013,10.445h-0.072c0,4.648,0.012,9.296-0.012,13.932
			c0,2.227-0.037,4.454-0.098,6.681c-0.012,0.823-0.362,1.332-1.113,1.489c-1.404,0.278-2.82,0.654-4.272,0.412
			c-0.581-0.097-1.162-0.194-1.707,0.024c-1.028,0.399-2.094,0.291-3.159,0.303c-2.808,0.036-5.604,0.085-8.411,0.097
			c-4.733,0.037-9.478,0.049-14.21,0.049c-4.648-0.012-9.296-0.061-13.932-0.061c-0.968-0.012-1.973-0.061-2.893,0.157
			c-1.828,0.423-3.655,0.303-5.483,0.339c-1.259,0.012-2.518,0.073-3.776,0.061c-3.667-0.024-7.347-0.037-11.014-0.146
			c-1.344-0.048-2.663-0.072-4.007,0.024c-2.603,0.206-5.253,0.303-7.818-0.024c-2.131-0.278-4.249-0.242-6.354-0.375
			C156.55,133.061,155.642,133.097,154.807,133.291z"/>
		<path fill="#929594" d="M226.521,142.985c-1.67-0.048-1.694-0.084-1.646-1.852c0.024-1.198,0.303-1.477,1.562-1.513
			c0.774-0.024,1.537,0,2.312,0c0-0.024,0-0.036,0-0.048c0.763-0.036,1.537-0.109,2.3-0.097c1.464,0.012,1.863,0.956,1.743,2.384
			c-0.013,0.254-0.255,0.448-0.569,0.545c-1.489,0.423-3.002,0.666-4.551,0.617C227.283,142.998,226.896,142.998,226.521,142.985z"
			/>
		<path d="M233.323,143.542c-2.3-0.048-4.503,0.992-6.561,0.653c-0.375-0.024-0.472-0.024-0.568-0.036
			c-0.823-0.061-1.792,0.46-2.421-0.339c-0.509-0.629-0.061-1.477-0.097-2.227c-0.024-0.593-0.194-1.102-0.46-1.634
			c-0.352-0.678-0.097-1.029,0.689-1.089c0.666-0.061,1.344-0.097,2.01-0.097c1.149,0,2.287,0.073,3.413-0.327
			c0.521-0.194,1.138-0.182,1.706-0.157c2.021,0.145,2.639,0.738,2.941,2.771c0.073,0.569,0.109,1.15,0.073,1.719
			C234.025,143.179,233.759,143.542,233.323,143.542z M232.791,141.86c0.12-1.428-0.279-2.372-1.743-2.384
			c-0.763-0.012-1.537,0.061-2.3,0.097c0,0.012,0,0.024,0,0.048c-0.774,0-1.537-0.024-2.312,0c-1.259,0.037-1.537,0.315-1.562,1.513
			c-0.049,1.767-0.024,1.803,1.646,1.852c0.376,0.012,0.763,0.012,1.15,0.037c1.549,0.048,3.062-0.194,4.551-0.617
			C232.536,142.308,232.778,142.114,232.791,141.86z"/>
		<path fill="#929594" d="M221.292,152.499c-0.968-0.291-1.864-0.073-2.82,0.169c-1.283,0.315-2.554,0.835-3.934,0.69
			c-0.411-0.048-0.727-0.351-0.642-0.75c0.134-0.653,0.254-1.319,0.46-1.949c0.073-0.23,0.327-0.532,0.545-0.569
			c1.598-0.278,3.207-0.508,4.817-0.738c0.193-0.024,0.387,0,1.028,0c0.339,0,0.835,0.363,1.005,1.102
			c0.097,0.472,0.146,0.956,0.193,1.428C221.994,152.293,221.68,152.62,221.292,152.499z"/>
		<path d="M214.538,153.358c1.38,0.146,2.65-0.375,3.934-0.69c0.956-0.242,1.853-0.46,2.82-0.169
			c0.388,0.121,0.702-0.206,0.653-0.617c-0.048-0.472-0.097-0.956-0.193-1.428c-0.17-0.738-0.666-1.102-1.005-1.102
			c-0.642,0-0.835-0.024-1.028,0c-1.61,0.23-3.22,0.46-4.817,0.738c-0.218,0.037-0.472,0.339-0.545,0.569
			c-0.206,0.629-0.326,1.295-0.46,1.949C213.812,153.007,214.127,153.31,214.538,153.358z M223.556,152.39
			c0.303,0.799-0.375,1.585-1.223,1.453c-0.472-0.073-0.932-0.242-1.404-0.315c-0.871-0.145-1.719-0.121-2.578,0.133
			c-1.67,0.484-3.353,0.883-5.035,1.295c-0.363,0.097-0.714-0.242-0.702-0.678c0.024-0.859-0.061-1.743,0.291-2.578
			c0.193-0.484,0.048-0.908-0.157-1.368c-0.291-0.69-0.146-0.968,0.399-1.053c2.565-0.387,5.144-0.762,7.322-1.077
			c0.799,0.061,1.187,0.061,1.562,0.121c0.424,0.061,0.763,0.387,0.727,0.763C222.611,150.308,223.156,151.313,223.556,152.39z"/>
		<path fill="#929594" d="M216.898,162.63c-1.622,0.084-3.256,0.133-4.878,0.206c-0.012-0.036-0.012-0.061-0.012-0.084
			c-1.525,0-3.062,0.012-4.6-0.012c-0.509-0.012-1.005-0.496-0.969-0.872c0.037-0.508,0.533-1.271,0.933-1.343
			c1.125-0.194,2.263-0.46,3.4-0.521c1.816-0.097,3.644-0.085,5.472-0.061c1.282,0.024,1.67,0.533,1.573,1.828
			C217.77,162.352,217.54,162.594,216.898,162.63z"/>
		<path d="M216.898,162.63c0.642-0.036,0.871-0.278,0.92-0.859c0.097-1.295-0.291-1.803-1.573-1.828
			c-1.828-0.024-3.655-0.036-5.472,0.061c-1.138,0.061-2.275,0.327-3.4,0.521c-0.399,0.073-0.896,0.835-0.933,1.343
			c-0.036,0.375,0.46,0.859,0.969,0.872c1.537,0.024,3.074,0.012,4.6,0.012c0,0.024,0,0.048,0.012,0.084
			C213.643,162.763,215.276,162.714,216.898,162.63z M219.041,162.787c0.012,0.738-0.327,1.114-0.98,1.114c-1.925,0-3.861,0-5.786,0
			c0-0.012,0-0.037,0-0.048c-1.937,0-3.86,0.024-5.797-0.012c-0.98-0.024-1.38-0.472-1.38-1.465c0-0.762,0.061-1.537,0.157-2.299
			c0.048-0.412,0.351-0.75,0.763-0.75c3.957-0.085,7.915-0.158,11.873-0.194c0.751-0.012,1.029,0.303,1.065,1.041
			C218.992,161.044,219.028,161.916,219.041,162.787z"/>
		<path fill="#929594" d="M203.875,141.63c0.048-0.327,0.061-0.763,0.653-0.605c0.363,0.084,0.787,0.145,1.126,0.036
			c2.348-0.763,4.769-0.254,7.141-0.496c0.496-0.048,0.848,0.363,0.92,0.896c0.109,0.787-0.061,1.332-0.483,1.525
			c-1.259,0.569-2.627,0.484-4.176,0.642c-0.545-0.061-1.332-0.073-2.046-0.291c-0.666-0.193-1.308-0.23-1.973-0.254
			C203.972,143.046,203.729,142.719,203.875,141.63z"/>
		<path d="M203.875,141.63c-0.146,1.089,0.097,1.416,1.162,1.453c0.665,0.024,1.307,0.061,1.973,0.254
			c0.714,0.218,1.501,0.23,2.046,0.291c1.549-0.157,2.917-0.073,4.176-0.642c0.423-0.193,0.593-0.738,0.483-1.525
			c-0.072-0.533-0.424-0.944-0.92-0.896c-2.372,0.242-4.793-0.267-7.141,0.496c-0.339,0.109-0.763,0.048-1.126-0.036
			C203.936,140.867,203.923,141.303,203.875,141.63z M214.805,140.492c0.061,0.375,0.085,0.763,0.108,1.138
			c0.109,1.961-0.157,2.251-2.105,2.614c-1.234,0.242-2.445,0.509-3.716,0.545c-1.9-0.23-3.801-0.448-5.701-0.702
			c-0.411-0.061-0.702-0.375-0.738-0.774c-0.072-0.957-0.157-1.925,0.229-2.833c0.134-0.351,0.412-0.714,0.823-0.69
			c2.772,0.158,5.508-0.411,8.268-0.411c0.58,0,1.149-0.012,1.73,0.024C214.369,139.439,214.72,139.79,214.805,140.492z"/>
		<path fill="#929594" d="M203.233,150.006c0.121,0.012,0.314,0.266,0.303,0.387c-0.073,0.666-0.17,1.343-0.303,2.009
			c-0.109,0.521-0.496,0.835-1.005,0.92c-1.319,0.206-2.639,0.484-3.994,0.169c-0.46-0.097-0.968,0-1.44-0.097
			c-0.242-0.048-0.484-0.278-0.484-0.629c0-0.678,0.098-1.343,0.376-1.973c0.218-0.484,0.496-0.811,1.053-0.835
			c0.871-0.037,1.743-0.085,3.086-0.146C201.321,149.848,202.277,149.909,203.233,150.006z"/>
		<path d="M204.468,153.286c0.013,0.388-0.218,0.69-0.678,0.799c-2.639,0.629-5.325,0.605-8,0.569
			c-0.836-0.012-1.162-0.436-0.908-1.307c0.363-1.222,0.411-2.445,0.254-3.691c-0.048-0.424,0.242-0.75,0.666-0.775
			c1.44-0.072,2.881-0.097,4.321-0.145v-0.012c1.343,0,2.687-0.012,4.03,0c0.666,0,1.017,0.46,0.835,1.174
			C204.71,151.01,204.443,152.124,204.468,153.286z M203.233,152.402c0.133-0.666,0.229-1.344,0.303-2.009
			c0.012-0.121-0.182-0.375-0.303-0.387c-0.956-0.097-1.912-0.158-2.409-0.194c-1.343,0.061-2.215,0.109-3.086,0.146
			c-0.557,0.024-0.835,0.351-1.053,0.835c-0.278,0.629-0.376,1.295-0.376,1.973c0,0.351,0.242,0.581,0.484,0.629
			c0.473,0.097,0.98,0,1.44,0.097c1.355,0.314,2.675,0.036,3.994-0.169C202.737,153.237,203.124,152.923,203.233,152.402z"/>
		<path fill="#929594" d="M191.541,144.571c-1.44-0.012-2.893,0.242-4.321-0.254c-0.411-0.145-0.943-0.012-1.416,0.061
			c-0.399,0.048-0.568-0.194-0.568-0.448c0.012-1.924,0.314-2.748,2.565-3.183c0.836-0.169,1.731-0.024,2.603-0.024
			c0-0.036,0-0.061,0-0.084c0.581,0,1.162-0.037,1.743,0c1.234,0.097,1.706,0.617,1.743,1.828c0.012,0.29,0,0.581-0.013,0.871
			c-0.024,0.448-0.266,0.727-0.665,0.847C192.667,144.341,192.098,144.571,191.541,144.571z"/>
		<path fill="#929594" d="M193.974,162.182c-1.742-0.037-3.461,0.036-5.168,0.448c-0.557,0.133-1.149,0.109-1.344,0.121
			c-0.678,0-0.968,0.012-1.259,0c-0.604-0.037-0.968-0.327-1.017-0.787c-0.072-0.848,0.291-1.417,0.956-1.538
			c0.097-0.012,0.194-0.036,0.291-0.036c2.505-0.084,4.999-0.121,7.492-0.448c0.968-0.121,1.38,0.412,1.307,1.404
			c-0.023,0.436-0.278,0.678-0.689,0.787C194.361,162.17,194.168,162.182,193.974,162.182z"/>
		<path d="M188.733,163.743c-0.715,0.218-1.525,0.133-2.47,0.194c-0.496-0.036-1.162-0.048-1.827-0.133
			c-0.448-0.048-0.763-0.508-0.654-0.811c0.424-1.102-0.229-2.469,0.569-3.329c0.823-0.908,2.167-0.412,3.28-0.46
			c2.105-0.097,4.212,0.048,6.306-0.424c0.545-0.121,1.15-0.061,1.707,0.024c0.218,0.036,0.521,0.339,0.568,0.557
			c0.182,1.029,0.194,2.094,0.666,3.074c0.109,0.23-0.375,0.775-0.702,0.787c-0.666,0.036-1.344,0.024-2.009,0.036
			C192.353,163.32,190.524,163.199,188.733,163.743z M188.806,162.63c1.707-0.412,3.426-0.484,5.168-0.448
			c0.194,0,0.388-0.012,0.569-0.048c0.411-0.109,0.666-0.351,0.689-0.787c0.073-0.992-0.339-1.525-1.307-1.404
			c-2.493,0.327-4.987,0.363-7.492,0.448c-0.097,0-0.194,0.024-0.291,0.036c-0.665,0.121-1.028,0.69-0.956,1.538
			c0.049,0.46,0.412,0.75,1.017,0.787c0.291,0.012,0.581,0,1.259,0C187.656,162.739,188.249,162.763,188.806,162.63z"/>
		<path d="M187.22,144.317c1.429,0.496,2.881,0.242,4.321,0.254c0.557,0,1.126-0.23,1.671-0.388
			c0.399-0.121,0.641-0.399,0.665-0.847c0.013-0.291,0.024-0.581,0.013-0.871c-0.037-1.21-0.509-1.731-1.743-1.828
			c-0.581-0.037-1.162,0-1.743,0c0,0.024,0,0.048,0,0.084c-0.871,0-1.767-0.145-2.603,0.024c-2.251,0.436-2.554,1.259-2.565,3.183
			c0,0.254,0.169,0.496,0.568,0.448C186.276,144.305,186.809,144.172,187.22,144.317z M184.073,143.022
			c-0.012-0.484,0.012-0.968,0.072-1.453c0.097-0.847,0.557-1.234,1.477-1.501c1.779-0.484,3.607-0.496,5.435-0.581
			c1.077-0.049,2.106,0.169,3.123,0.484c0.738,0.23,0.932,0.46,0.944,1.235c0,0.484-0.049,0.968-0.036,1.44
			c0.036,2.494,0.036,2.506-2.518,2.724c-1.041,0.084-2.095,0.121-3.147,0.182c0-0.049,0-0.085-0.012-0.133
			c-1.054,0-2.118,0.048-3.184-0.012c-0.823-0.048-1.706,0.993-2.408,0.097C183.214,144.741,184.085,143.857,184.073,143.022z"/>
		<path fill="#929594" d="M178.893,150.55c1.815-0.23,3.668,0.206,5.483-0.363c0.314-0.097,0.738,0.145,1.113,0.254
			c0.617,0.169,0.799,0.448,0.69,1.041c-0.073,0.375-0.219,0.75-0.242,1.125c-0.061,0.702-0.545,1.005-1.102,1.198
			c-1.126,0.387-2.288,0.267-4.128,0.146c-0.387,0.024-1.44,0.084-2.493,0.182c-1.005,0.097-1.271-0.121-1.053-0.957
			c0.133-0.569,0.363-1.101,0.472-1.67C177.779,150.792,178.288,150.623,178.893,150.55z"/>
		<path d="M184.376,150.188c-1.815,0.569-3.668,0.133-5.483,0.363c-0.604,0.073-1.113,0.242-1.259,0.956
			c-0.108,0.569-0.339,1.102-0.472,1.67c-0.218,0.835,0.048,1.053,1.053,0.957c1.053-0.097,2.106-0.158,2.493-0.182
			c1.84,0.121,3.002,0.242,4.128-0.146c0.557-0.193,1.041-0.496,1.102-1.198c0.023-0.375,0.169-0.75,0.242-1.125
			c0.108-0.593-0.073-0.872-0.69-1.041C185.114,150.333,184.69,150.09,184.376,150.188z M186.905,149.413
			c0.436,0.061,0.678,0.46,0.581,0.847c-0.29,1.138-0.557,2.227-0.108,3.401c0.133,0.327-0.242,0.726-0.666,0.811
			c-1.779,0.339-3.534,0.944-5.41,0.617c-0.569-0.097-1.162-0.012-1.175-0.012c-1.234,0.109-1.899,0.206-2.578,0.206
			c-0.653,0.012-1.428,0.254-1.888-0.399c-0.363-0.544,0.218-1.089,0.242-1.646c0.048-0.872,0.108-1.743,0.193-2.602
			c0.049-0.424,0.352-0.714,0.751-0.763c1.331-0.145,2.602-0.605,3.994-0.472c1.331,0.133,2.699-0.109,4.042-0.133
			C185.562,149.255,186.239,149.316,186.905,149.413z"/>
		<path fill="#929594" d="M165.445,142.646c0.738-1.682,1.114-1.888,3.147-1.815c0.665,0.278,1.307-0.048,1.973-0.109
			c1.646-0.182,3.28-0.169,4.902,0.242c0.786,0.193,0.943,0.496,0.617,1.162c-0.303,0.605-0.605,1.223-0.92,1.816
			c-0.242,0.46-0.593,0.69-1.162,0.605c-2.033-0.291-4.019,0.206-6.016,0.412c-0.278,0.024-0.557,0.169-0.848,0.182
			c-0.762,0.024-1.621,0.206-2.094-0.593C164.635,143.857,165.18,143.264,165.445,142.646z"/>
		<path fill="#929594" d="M164.841,163.126c-0.46,0.121-0.92-0.448-0.799-0.92c0.072-0.278,0.169-0.557,0.254-0.823
			c0.447-1.404,0.447-1.38,1.997-1.477c1.246-0.085,2.493-0.073,3.716-0.484c0.629-0.206,1.344-0.157,2.009-0.194
			c0.569-0.036,1.138,0.218,1.054,1.017c-0.024,0.193-0.024,0.387-0.061,1.041c0.012,0.073,0.023,0.388,0,0.702
			c-0.049,0.763-0.654,1.368-1.332,1.162C169.392,162.473,167.128,162.521,164.841,163.126z"/>
		<path d="M175.468,140.964c-1.622-0.412-3.256-0.424-4.902-0.242c-0.666,0.061-1.308,0.387-1.973,0.109
			c-2.033-0.073-2.409,0.133-3.147,1.815c-0.266,0.618-0.811,1.21-0.399,1.9c0.473,0.799,1.332,0.617,2.094,0.593
			c0.291-0.012,0.569-0.157,0.848-0.182c1.997-0.206,3.982-0.702,6.016-0.412c0.569,0.085,0.92-0.145,1.162-0.605
			c0.314-0.593,0.617-1.21,0.92-1.816C176.411,141.46,176.254,141.158,175.468,140.964z M171.11,139.621
			c0.532-0.157,1.149-0.157,1.719-0.097c1.634,0.169,3.243,0.412,4.865,0.654c0.157,0.024,0.278,0.23,0.412,0.363
			c-0.024,0.182,0,0.387-0.073,0.533c-0.642,1.307-1.295,2.578-1.948,3.885c-0.436,0.872-0.872,1.15-1.876,0.823
			c-0.956-0.315-1.828-0.206-2.809-0.097c-2.396,0.267-4.817,0.484-7.237,0.267c-0.715-0.061-1.005-0.545-0.715-1.21
			c0.424-0.968,0.812-1.949,1.017-3.002c0.098-0.46,0.327-0.932,0.63-1.295c0.424-0.533,0.992-1.005,1.743-0.775
			C168.278,140.129,169.67,140.044,171.11,139.621z"/>
		<path d="M172.018,159.229c-0.665,0.037-1.38-0.012-2.009,0.194c-1.223,0.412-2.47,0.399-3.716,0.484
			c-1.55,0.097-1.55,0.072-1.997,1.477c-0.085,0.266-0.182,0.544-0.254,0.823c-0.121,0.472,0.339,1.041,0.799,0.92
			c2.287-0.605,4.551-0.653,6.838,0.024c0.678,0.206,1.283-0.399,1.332-1.162c0.023-0.314,0.012-0.629,0-0.702
			c0.036-0.653,0.036-0.847,0.061-1.041C173.155,159.447,172.587,159.192,172.018,159.229z M170.675,158.249
			c1.089-0.254,2.287-0.085,3.438-0.037c0.254,0.012,0.617,0.23,0.52,0.557c-0.508,1.598-0.339,3.232-0.399,4.854
			c-0.023,0.714-0.266,0.932-0.896,0.762c-1.464-0.387-2.989-0.327-4.479-0.569c-1.513-0.254-3.05,0.061-4.538,0.508
			c-0.098,0.037-0.194,0.024-0.291,0.037c-1.174,0.061-1.452-0.267-1.355-1.537c0-0.061-0.012-0.182,0-0.303
			c0.133-2.239,1.029-3.643,4.019-3.789C168.036,158.672,169.355,158.563,170.675,158.249z"/>
		<path fill="#929594" d="M157.154,154.303c-0.738,0.169-1.524,0.169-2.287,0.157c-0.92-0.012-1.295-0.726-0.908-1.622
			c0.569-1.368,1.525-2.167,3.062-2.227c1.827-0.084,3.655-0.303,5.41,0.763c-0.242,0.544-0.447,1.065-0.689,1.573
			c-0.799,1.683-0.812,1.719-2.603,1.344C158.462,154.157,157.845,154.145,157.154,154.303z"/>
		<path d="M154.867,154.46c0.763,0.012,1.549,0.012,2.287-0.157c0.69-0.158,1.308-0.146,1.985-0.012
			c1.791,0.375,1.804,0.339,2.603-1.344c0.242-0.508,0.447-1.029,0.689-1.573c-1.755-1.065-3.583-0.847-5.41-0.763
			c-1.537,0.061-2.493,0.859-3.062,2.227C153.572,153.734,153.947,154.448,154.867,154.46z M160.652,155.707
			c-2.348-0.666-4.769-0.266-7.141-0.448c-1.453-0.109-1.646-0.399-1.114-1.852c0.23-0.629,0.521-1.247,0.763-1.876
			c0.509-1.283,1.283-1.985,2.82-1.876c0.714,0.048,1.501-0.267,2.578-0.206c0.182,0,0.75-0.157,1.138,0.037
			c1.392,0.666,3.11,0,4.346,1.15c-0.618,1.5-1.223,3.001-1.864,4.478c-0.157,0.351-0.521,0.569-0.944,0.581
			C161.04,155.694,160.834,155.755,160.652,155.707z"/>
		<path fill="#929594" d="M146.007,144.971c-0.472-0.75,1.09-3.208,2.046-3.425c0.653-0.158,1.331-0.279,1.997-0.279
			c2.105,0,4.224,0.061,6.476,0.097c-0.146,0.593-0.218,1.041-0.363,1.464c-0.569,1.646-1.768,2.554-3.474,2.251
			c-1.09-0.194-2.07-0.182-3.11,0.084c-0.363,0.097-0.763,0.121-1.15,0.097C147.604,145.225,146.552,145.854,146.007,144.971z"/>
		<path d="M156.525,141.364c-2.252-0.037-4.37-0.097-6.476-0.097c-0.666,0-1.344,0.121-1.997,0.279
			c-0.956,0.218-2.518,2.675-2.046,3.425c0.545,0.883,1.598,0.254,2.421,0.291c0.388,0.024,0.787,0,1.15-0.097
			c1.04-0.266,2.021-0.278,3.11-0.084c1.706,0.303,2.904-0.605,3.474-2.251C156.308,142.405,156.38,141.957,156.525,141.364z
			 M154.056,146.581c-1.282-0.497-2.529-0.557-3.921-0.279c-1.574,0.315-3.244,0.182-4.878,0.23
			c-0.484,0.024-0.823-0.484-0.666-0.992c0.399-1.38,0.799-2.76,1.223-4.127c0.327-1.041,0.508-1.138,1.646-1.065
			c0.181,0.012,0.387,0.145,0.557,0.097c2.275-0.557,4.551-0.375,6.838-0.012c0.823,0.121,1.695-0.157,2.555-0.182
			c0.254-0.012,0.508,0.23,0.544,0.811c-0.108,0.327-0.303,0.859-0.472,1.392c-0.242,0.726-0.545,1.44-0.702,2.19
			c-0.254,1.089-1.38,1.271-1.961,2.009C154.733,146.774,154.298,146.665,154.056,146.581z"/>
		<path fill="#929594" d="M146.431,161.613c0.859,0.024,1.126,0.484,0.944,1.053c-0.218,0.666-0.509,1.283-1.355,1.247
			c-1.635-0.049-3.256,0.072-4.866,0.423c-0.642,0.146-1.355,0.121-1.912-0.387c-0.133-0.121-0.327-0.351-0.291-0.46
			c0.098-0.242,0.303-0.605,0.484-0.617c1.925-0.158,3.776-0.629,5.628-1.138C145.607,161.577,146.213,161.637,146.431,161.613z"/>
		<path d="M146.02,163.913c0.847,0.036,1.138-0.581,1.355-1.247c0.182-0.569-0.085-1.029-0.944-1.053
			c-0.218,0.024-0.823-0.037-1.368,0.121c-1.852,0.508-3.703,0.98-5.628,1.138c-0.182,0.012-0.387,0.375-0.484,0.617
			c-0.036,0.109,0.158,0.339,0.291,0.46c0.557,0.508,1.271,0.533,1.912,0.387C142.764,163.985,144.385,163.864,146.02,163.913z
			 M141.541,165.401c-1.187,0.412-2.264-0.121-3.365-0.399c-0.193-0.06-0.436-0.411-0.46-0.641c-0.061-0.763-0.072-1.537-0.024-2.3
			c0.037-0.496,0.702-0.92,1.211-0.738c1.149,0.399,2.251,0.206,3.377-0.073c1.21-0.291,2.433-0.581,3.655-0.787
			c0.653-0.109,1.344-0.085,2.009-0.085c0.484,0,0.859,0.448,0.823,0.957c-0.048,0.581-0.085,1.162-0.218,1.719
			c-0.557,2.36-0.859,2.094-2.724,2.069c-0.193,0-0.387-0.024-0.581-0.024C143.985,164.954,142.751,164.99,141.541,165.401z"/>
		<path fill="#929594" d="M140.851,156.154c-0.108,0.484-0.472,0.847-1.041,0.823c-1.064-0.048-2.118-0.109-3.11-0.169
			c-1.126,0-2.179,0.024-3.231-0.012c-0.605-0.012-1.053-0.702-0.872-1.223c0.109-0.278,0.255-0.532,0.34-0.799
			c0.629-2.009,2.215-2.566,4.042-2.409c1.332,0.121,2.614,0.399,3.934-0.061c0.291-0.097,0.605,0.218,0.569,0.484
			C141.323,153.927,141.117,155.053,140.851,156.154z"/>
		<path d="M141.48,152.79c0.036-0.266-0.278-0.581-0.569-0.484c-1.319,0.46-2.602,0.182-3.934,0.061
			c-1.827-0.157-3.413,0.399-4.042,2.409c-0.085,0.267-0.23,0.521-0.34,0.799c-0.181,0.521,0.267,1.21,0.872,1.223
			c1.053,0.036,2.105,0.012,3.231,0.012c0.992,0.061,2.046,0.121,3.11,0.169c0.569,0.024,0.933-0.339,1.041-0.823
			C141.117,155.053,141.323,153.927,141.48,152.79z M140.27,151.228c2.264-0.339,3.051,0.024,2.324,2.324
			c-0.29,0.908-0.254,1.9-0.388,2.856c-0.193,1.331-0.799,1.815-2.19,1.743c-0.447-0.036-0.932-0.036-1.404-0.145
			c-2.19-0.521-4.381-0.533-6.584-0.121c-0.496,0.084-0.896-0.399-0.774-0.944c0.169-0.75,0.363-1.489,0.581-2.227
			s0.629-1.404,0.581-2.215c-0.037-0.642,0.447-1.041,0.859-1.44c0.193-0.182,0.496-0.423,0.714-0.072
			c0.375,0.593,0.907,0.714,1.501,0.532c0.847-0.254,1.658-0.436,2.529-0.048c0.532,0.23,1.138,0.157,1.707-0.036
			C139.907,151.374,140.088,151.276,140.27,151.228z"/>
		<path d="M129.413,52.595c-0.206,0.024-0.375,0.012-0.521-0.048h0.944C129.691,52.559,129.559,52.583,129.413,52.595z"/>
		<path fill="#DEE0E0" d="M129.074,85.324c0.399-3.28,0.242-6.572,0.496-9.828c0.061-0.872,0.108-1.719,0.254-2.59
			c0.363-2.191,0.303-4.43-0.036-6.633c-0.267-1.743-0.169-3.474-0.169-5.217c0-0.46,0.193-0.932,0.339-1.392
			c0.108-0.375,0.351-0.666,0.762-0.799c2.724-0.847,5.495-0.968,8.304-0.569c0.472,0.073,0.932,0.375,1.404,0.351
			c2.88-0.073,5.785,0.496,8.653-0.303c0.642-0.169,1.344-0.145,2.01-0.157c2.904-0.048,5.81-0.061,8.715-0.109
			c0.762-0.012,1.524-0.145,2.299-0.218c0.763-0.061,1.538-0.23,2.3-0.157c1.828,0.169,3.644-0.037,5.459-0.048
			c3.97-0.024,7.94-0.146,11.898,0.06c2.312,0.109,4.599,0.484,6.923,0.339c0.871-0.049,1.743,0.048,2.59-0.242
			c0.352-0.109,0.787-0.182,1.139-0.097c1.937,0.484,3.836-0.084,5.749-0.06c1.827,0.024,3.643,0.084,5.471,0.109
			c0.375,0.012,0.75,0,1.126-0.037c2.118-0.206,4.248-0.23,6.378-0.169c1.731,0.061,3.474,0.048,5.217,0.061
			c4.346,0.012,8.69-0.157,13.048,0.182c1.586,0.133,3.22,0.23,4.842-0.061c1.028-0.182,2.118-0.206,3.159,0.121
			c0.46,0.145,0.956,0.157,1.428,0.206c0.569,0.061,1.223-0.145,1.683,0.254c0.521,0.46,0,1.065,0,1.61
			c0.036,3.292-0.061,6.584,0.072,9.876c0.073,1.719,0.206,3.401,0,5.144c-0.169,1.404-0.121,2.881,0.218,4.321
			c0.219,0.919,0.255,1.96,0.049,2.88c-0.484,2.191-0.375,4.43-0.411,6.633c-0.061,4.551,0.084,9.102,0.072,13.653
			c-0.024,6.96-0.097,13.932-0.206,20.903c-0.012,0.811,0.533,1.924-0.229,2.421c-0.642,0.411-1.671,0.302-2.518,0.302
			c-1.174,0-2.324,0.037-3.462,0.327c-0.557,0.133-1.138,0.169-1.719,0.206c-4.248,0.206-8.497,0.436-12.745,0.581
			c-2.215,0.084-4.454,0.012-6.669,0.012c0-0.012,0-0.024,0-0.037c-3.002,0.061-6.004,0.024-8.993,0.206
			c-2.421,0.157-4.806,0.109-7.214,0c-1.065-0.048-2.143-0.121-3.184,0.012c-1.742,0.206-3.461,0.133-5.192,0
			c-4.926-0.375-9.853-0.048-14.79-0.084c-3.087-0.036-6.197,0.291-9.284,0.084c-3.485-0.218-6.959-0.169-10.445-0.157
			c-5.41,0.012-10.833,0.085-16.243,0.109c-1.355,0.012-2.724-0.036-4.066-0.169c-1.319-0.145-2.675,0.436-3.958-0.193
			c-0.182-1.332-0.412-2.651-0.533-3.97c-0.072-0.872-0.133-1.767,0.024-2.614c0.375-1.913,0.254-3.861,0.327-5.773
			c0.206-6.101,0.108-12.201,0.012-18.289c-0.024-1.259-0.169-2.506-0.29-3.74C128.904,90.165,128.783,87.696,129.074,85.324z"/>
		<path d="M129.038,59.325c0.205-1.004,1.064-1.67,2.094-1.755c2.009-0.169,3.994-0.763,6.039-0.569
			c0.473,0.048,0.98-0.012,1.44,0.084c3.837,0.859,7.662,0.642,11.499,0.073c0.193-0.024,0.411-0.133,0.568-0.073
			c1.913,0.739,3.813-0.109,5.726-0.048c1.827,0.048,3.691,0.061,5.495-0.218c1.827-0.278,3.643-0.157,5.459-0.242
			c1.73-0.084,3.474-0.145,5.216-0.145c1.15-0.012,2.312-0.097,3.45,0.291c0.351,0.133,0.763,0.145,1.138,0.145
			c4.551-0.109,9.09,0.339,13.641,0.121c3.668-0.182,7.347-0.121,11.015-0.061c2.323,0.037,4.636,0.218,6.936-0.266
			c0.642-0.121,1.331-0.048,1.984,0.036c1.937,0.242,3.837,0.303,5.762-0.121c0.835-0.181,1.73-0.109,2.603-0.121
			c2.215-0.024,4.441-0.024,6.669,0c0.678,0.012,1.355,0.024,2.021,0.146c2.396,0.436,4.78,0.412,7.177-0.036
			c0.303-0.049,0.63-0.121,0.933-0.121c0.182,0,0.351,0.024,0.508,0.084c1.416,0.521,2.869,0.315,4.31,0.363
			c1.803,0.061,1.876,0.048,1.44,1.694c-0.738,2.76-0.678,5.556-0.605,8.339c0.29,11.607-0.109,23.215-0.012,34.823
			c0.023,4.066,0.012,8.133-0.024,12.2c0,1.344,0.084,2.687-0.303,4.031c-0.23,0.823-0.036,1.707,0.097,2.578
			c0.206,1.222,0.182,2.493,0.242,3.74c0.048,0.908-0.521,1.622-0.774,2.433c-0.109,0.351-0.533,0.544-0.944,0.544
			c-1.065,0-2.118-0.036-3.184-0.036c-1.355,0-2.687,0.121-4.03,0.387c-1.404,0.266-2.881,0.254-4.321,0.278
			c-5.386,0.121-10.772,0.206-16.146,0.291c-1.621,0.024-3.219,0.036-4.854-0.109c-1.694-0.182-3.449,0.254-5.18,0.351
			c-1.15,0.073-2.312,0.061-3.474,0.073c-2.421,0.012-4.83,0.061-7.251,0.024c-2.215-0.036-4.441,0.182-6.633-0.472
			c-0.436-0.133-0.98-0.109-1.428,0.037c-1.513,0.484-3.074,0.278-4.611,0.302c-4.249,0.085-8.497,0.085-12.758,0.121
			c-1.743,0.024-3.461,0.024-5.192-0.351c-1.017-0.218-2.118-0.218-3.159-0.145c-2.202,0.169-4.394,0.182-6.584,0.242
			c-2.118,0.061-4.236,0.061-6.367,0.097c-2.312,0.036-4.635,0.073-6.947,0.073c-1.259,0-2.529,0.036-3.764-0.157
			c-1.574-0.242-3.038-0.097-4.515,0.436c-0.836,0.314-1.501-0.024-1.501-0.678c0-0.085,0.012-0.182,0.036-0.278
			c0.581-2.385-0.085-4.769,0.206-7.166c0.278-2.384,0.145-4.83,0.169-7.238c0.024-1.937,0.013-3.874,0.013-5.81
			c0.036,0,0.084,0,0.133,0c-0.085-4.648-0.17-9.284-0.254-13.919c-0.013-0.581-0.024-1.174-0.158-1.731
			c-0.46-1.828-0.314-3.667-0.061-5.471c0.146-1.053,0.219-2.106,0.219-3.171c0.012-3.28,0.181-6.548,0.532-9.828
			c0.339-3.268,0.229-6.572-0.17-9.84C128.42,62.084,128.747,60.717,129.038,59.325z M129.619,61.056
			c0,1.743-0.098,3.474,0.169,5.217c0.339,2.203,0.399,4.442,0.036,6.633c-0.146,0.872-0.193,1.719-0.254,2.59
			c-0.254,3.256-0.097,6.548-0.496,9.828c-0.291,2.372-0.17,4.841,0.061,7.25c0.121,1.234,0.266,2.481,0.29,3.74
			c0.097,6.088,0.194,12.188-0.012,18.289c-0.073,1.912,0.048,3.861-0.327,5.773c-0.157,0.847-0.097,1.743-0.024,2.614
			c0.121,1.319,0.352,2.639,0.533,3.97c1.283,0.629,2.639,0.048,3.958,0.193c1.343,0.133,2.711,0.182,4.066,0.169
			c5.41-0.024,10.833-0.097,16.243-0.109c3.486-0.012,6.96-0.061,10.445,0.157c3.087,0.206,6.197-0.121,9.284-0.084
			c4.938,0.036,9.864-0.291,14.79,0.084c1.731,0.133,3.45,0.206,5.192,0c1.041-0.133,2.118-0.06,3.184-0.012
			c2.408,0.109,4.793,0.157,7.214,0c2.989-0.182,5.991-0.146,8.993-0.206c0,0.012,0,0.024,0,0.037c2.215,0,4.454,0.072,6.669-0.012
			c4.248-0.146,8.497-0.375,12.745-0.581c0.581-0.036,1.162-0.073,1.719-0.206c1.138-0.291,2.288-0.327,3.462-0.327
			c0.847,0,1.876,0.109,2.518-0.302c0.763-0.497,0.218-1.61,0.229-2.421c0.109-6.972,0.182-13.943,0.206-20.903
			c0.012-4.551-0.133-9.102-0.072-13.653c0.036-2.203-0.073-4.442,0.411-6.633c0.206-0.92,0.17-1.961-0.049-2.88
			c-0.339-1.44-0.387-2.917-0.218-4.321c0.206-1.743,0.073-3.425,0-5.144c-0.133-3.292-0.036-6.584-0.072-9.876
			c0-0.545,0.521-1.15,0-1.61c-0.46-0.399-1.113-0.194-1.683-0.254c-0.472-0.048-0.968-0.061-1.428-0.206
			c-1.041-0.327-2.131-0.303-3.159-0.121c-1.622,0.291-3.256,0.194-4.842,0.061c-4.357-0.339-8.702-0.169-13.048-0.182
			c-1.743-0.012-3.485,0-5.217-0.061c-2.13-0.061-4.26-0.036-6.378,0.169c-0.376,0.037-0.751,0.048-1.126,0.037
			c-1.828-0.024-3.644-0.085-5.471-0.109c-1.913-0.024-3.812,0.544-5.749,0.06c-0.352-0.084-0.787-0.012-1.139,0.097
			c-0.847,0.291-1.719,0.193-2.59,0.242c-2.324,0.145-4.611-0.23-6.923-0.339c-3.958-0.206-7.929-0.084-11.898-0.06
			c-1.815,0.012-3.631,0.218-5.459,0.048c-0.762-0.073-1.537,0.097-2.3,0.157c-0.774,0.073-1.537,0.206-2.299,0.218
			c-2.905,0.048-5.811,0.061-8.715,0.109c-0.666,0.012-1.368-0.012-2.01,0.157c-2.868,0.799-5.773,0.23-8.653,0.303
			c-0.473,0.024-0.933-0.278-1.404-0.351c-2.809-0.399-5.58-0.278-8.304,0.569c-0.411,0.133-0.653,0.424-0.762,0.799
			C129.812,60.124,129.619,60.596,129.619,61.056z"/>
		<path fill="#929594" d="M128.989,143.458c0.29-0.666,0.75-1.017,1.501-1.162c2.082-0.4,4.163-0.714,6.27-0.23
			c0.242,0.048,0.436,0.314,0.63,0.472c-0.303,1.392-0.654,2.675-1.877,3.486c-0.157,0.097-0.387,0.23-0.532,0.182
			c-1.888-0.593-3.812-0.109-5.725-0.278c-0.715-0.073-1.029-0.496-0.799-1.138C128.614,144.329,128.796,143.894,128.989,143.458z"
			/>
		<path d="M129.837,51.336c0.738,0,0.786,1.053,0.145,1.198c-0.036,0.012-0.097,0.012-0.145,0.012h-0.944
			c-0.436-0.146-0.63-0.593-0.532-1.21H129.837z"/>
		<path d="M127.488,51.481c-0.097-0.036-0.193-0.109-0.29-0.145h1.162c-0.098,0.617,0.097,1.065,0.532,1.21h-2.53
			c0.267-0.23,0.558-0.424,0.884-0.605c0.073-0.048,0.134-0.145,0.17-0.23C127.452,51.639,127.501,51.494,127.488,51.481z"/>
		<path d="M126.968,51.3c0.061-0.024,0.134,0,0.23,0.036h-0.327C126.896,51.324,126.932,51.312,126.968,51.3z"/>
		<path d="M127.537,144.365c0.496-1.138,1.004-2.288,1.513-3.413c1.198-0.484,2.469-0.109,3.595-0.314
			c1.84-0.049,3.57-0.037,5.241,0.484c0.642,0.194,0.98,0.702,0.774,1.295c-0.521,1.562-1.09,3.099-1.658,4.624
			c-0.146,0.399-0.532,0.593-0.92,0.484c-2.747-0.835-5.507-0.617-8.279-0.206c-0.871,0.121-1.355-0.363-1.053-1.102
			C126.992,145.6,127.271,144.983,127.537,144.365z M130.49,142.296c-0.751,0.145-1.211,0.496-1.501,1.162
			c-0.193,0.436-0.375,0.872-0.532,1.332c-0.23,0.642,0.084,1.065,0.799,1.138c1.912,0.169,3.837-0.314,5.725,0.278
			c0.146,0.048,0.375-0.084,0.532-0.182c1.223-0.811,1.574-2.094,1.877-3.486c-0.194-0.157-0.388-0.423-0.63-0.472
			C134.653,141.582,132.572,141.896,130.49,142.296z"/>
		<path d="M126.871,51.336h0.327c0.097,0.036,0.193,0.109,0.29,0.145c0.013,0.012-0.036,0.158-0.072,0.23
			c-0.036,0.085-0.097,0.182-0.17,0.23c-0.326,0.182-0.617,0.375-0.884,0.605h-0.06c-0.412,0-0.605-0.351-0.569-0.666
			C126.061,51.663,126.447,51.481,126.871,51.336z"/>
		<path d="M126.871,51.336c-0.424,0.145-0.811,0.327-1.138,0.544c0.012-0.278,0.206-0.544,0.569-0.544H126.871z"/>
		<path fill="#A9ACAB" d="M124.063,62.375c-0.219-1.767-0.061-3.425,0.157-5.144c0.229-1.864,0.738-3.534,2.142-4.684h2.53
			c0.146,0.061,0.314,0.073,0.521,0.048c0.146-0.012,0.278-0.036,0.424-0.048c0.048,0,0.108,0,0.145-0.012
			c4.418-0.46,8.872,0.061,13.303-0.617c2.554-0.387,5.204-0.133,7.818-0.109c2.905,0.024,5.81,0.242,8.666-0.448
			c0.278-0.061,0.581-0.037,0.872-0.061c5.022-0.23,10.058-0.158,15.081,0.048c0.956,0.036,1.9,0.314,2.856,0.327
			c3.099,0.048,6.197,0.036,9.296,0.036c0.871,0,1.779,0.133,2.602-0.084c2.01-0.557,4.019-0.351,6.04-0.351
			c2.518,0,5.035,0,7.553,0c0.969,0,1.912,0.097,2.881,0.23c2.36,0.351,4.744,0.654,7.153,0.436
			c1.355-0.133,2.699-0.157,4.055,0.037c3.146,0.436,6.294,0.859,9.489,0.872c1.84,0.036,3.716-0.133,5.507,0.193
			c0.969,0.169,1.925,0.254,2.881,0.303l-0.133,3.099c-0.303,0-0.63,0.072-0.933,0.121c-2.396,0.448-4.78,0.472-7.177,0.036
			c-0.666-0.121-1.344-0.133-2.021-0.146c-2.228-0.024-4.454-0.024-6.669,0c-0.872,0.012-1.768-0.06-2.603,0.121
			c-1.925,0.424-3.825,0.363-5.762,0.121c-0.653-0.084-1.343-0.157-1.984-0.036c-2.3,0.484-4.612,0.303-6.936,0.266
			c-3.668-0.061-7.347-0.121-11.015,0.061c-4.551,0.218-9.09-0.23-13.641-0.121c-0.375,0-0.787-0.012-1.138-0.145
			c-1.138-0.387-2.3-0.303-3.45-0.291c-1.742,0-3.485,0.061-5.216,0.145c-1.816,0.085-3.632-0.036-5.459,0.242
			c-1.804,0.278-3.668,0.266-5.495,0.218c-1.912-0.061-3.812,0.787-5.726,0.048c-0.157-0.06-0.375,0.049-0.568,0.073
			c-3.837,0.569-7.662,0.787-11.499-0.073c-0.46-0.097-0.968-0.036-1.44-0.084c-2.045-0.194-4.03,0.399-6.039,0.569
			c-1.029,0.085-1.889,0.75-2.094,1.755c-0.291,1.392-0.618,2.76-0.437,4.261c0.399,3.268,0.509,6.572,0.17,9.84
			c-0.352,3.28-0.521,6.548-0.532,9.828c0,1.065-0.073,2.118-0.219,3.171c-0.254,1.804-0.399,3.644,0.061,5.471
			c0.134,0.557,0.146,1.15,0.158,1.731c0.084,4.635,0.169,9.271,0.254,13.919c-0.049,0-0.097,0-0.133,0
			c0,1.937,0.012,3.873-0.013,5.81c-0.024,2.408,0.109,4.854-0.169,7.238c-0.291,2.396,0.375,4.781-0.206,7.166
			c-0.024,0.097-0.036,0.193-0.036,0.278l-2.966,0.206c-0.036-0.266-0.061-0.532-0.061-0.799c-0.085-3.583-0.278-7.141-0.557-10.7
			c-0.121-1.646-0.157-3.292-0.157-4.938c0-1.719-0.557-3.425-0.085-5.156c0.049-0.169-0.024-0.387-0.072-0.569
			c-0.46-1.804-0.412-3.644-0.412-5.483c-0.012-7.057,0.049-14.125,0.013-21.182c-0.024-3.377,0.387-6.742,0.146-10.131
			c-0.024-0.278-0.024-0.593,0.072-0.859C124.486,66.43,124.305,64.348,124.063,62.375z"/>
		<path fill="#929594" d="M152.882,187.37c-3.559,0.339-7.117,0.666-10.663-0.121c-0.557-0.121-1.15-0.097-1.731-0.109
			c-2.602-0.072-5.204,0-7.794-0.521c-1.126-0.218-2.312-0.109-3.462,0.133c-0.653,0.133-1.331,0.254-1.997,0.254
			c-4.055,0.036-8.109,0.339-12.152-0.388c-3.764-0.678-3.728-1.21-3.485-4.563c0.048-0.581,0.411-0.787,0.907-0.944
			c0.751-0.23,1.501-0.315,2.288-0.157c2.275,0.436,4.538,0.871,6.826,1.259c1.707,0.278,3.438,0.75,5.144,0.666
			c1.646-0.085,3.257,0.084,4.866,0.157c4.636,0.206,9.271,0.085,13.895,0.46c4.043,0.327,8.134,0.254,12.188,0.206
			c4.067-0.072,8.122-0.169,12.188-0.024c0.678,0.024,1.404,0.084,2.021-0.146c1.223-0.436,2.47-0.351,3.716-0.351
			c2.324-0.024,4.648,0,6.972-0.037c2.131-0.036,4.31,0.146,6.354-0.278c2.493-0.521,5.023-0.133,7.48-0.811
			c0.714-0.182,1.585-0.157,2.3,0.048c2.287,0.642,4.611,0.472,6.923,0.484c2.614,0.024,5.217-0.303,7.795,0.351
			c0.375,0.097,0.774,0,1.162,0c7.262,0.073,14.512,0.157,21.774,0.218c2.215,0.012,4.442,0.012,6.669-0.036
			c1.162-0.024,2.3-0.218,3.426,0.291c0.411,0.181,0.992,0.218,1.416,0.084c1.513-0.472,3.074-0.351,4.611-0.387
			c1.452-0.048,2.893-0.048,4.285-0.581c0.568-0.218,1.017,0.182,0.859,0.714c-0.194,0.593-0.399,1.198-0.388,1.815
			c-0.024,0.061-0.049,0.145-0.049,0.23c-0.012,0.412-0.036,0.811-0.145,1.198c-0.073,0-0.146,0.012-0.206,0.048
			c-1.949,1.017-4.067,1.089-6.185,1.113c-2.518,0.061-5.035,0.073-7.553,0.121c-0.763,0.012-1.598-0.084-2.3,0.158
			c-2.252,0.774-4.636,0.145-6.875,0.799c-0.182,0.048-0.399,0.012-0.581-0.048c-2.481-0.835-4.975-0.363-7.468-0.073
			c-0.969,0.121-1.913,0.133-2.881,0.012c-1.815-0.242-3.631-0.363-5.471,0.024c-1.114,0.242-2.373,0.412-3.45,0.146
			c-1.852-0.472-3.619-0.363-5.446-0.085c-0.956,0.133-1.961,0.182-2.905,0c-2.105-0.399-4.224-0.218-6.342-0.363
			c-4.527-0.314-9.065-0.169-13.593-0.52c-5.011-0.375-10.058-0.182-15.093-0.206c-2.809-0.024-5.604,0.133-8.4-0.314
			c-0.642-0.109-1.355-0.037-1.997,0.121c-1.73,0.399-3.462,0.351-5.181,0C154.383,187.261,153.656,187.297,152.882,187.37z"/>
	</g>
</g>
<g>
	<path fill="#121212" d="M154.262,90.606c-0.386-0.371-0.822-0.703-1.311-0.997c-0.49-0.294-0.989-0.571-1.505-0.828
		c-0.513-0.259-1.014-0.509-1.502-0.752c-0.489-0.242-0.927-0.499-1.312-0.769c-0.386-0.271-0.696-0.563-0.93-0.878
		c-0.233-0.316-0.351-0.674-0.351-1.074c0-0.237,0.064-0.477,0.195-0.719c0.132-0.243,0.332-0.463,0.604-0.66
		c0.269-0.197,0.606-0.358,1.011-0.482c0.403-0.125,0.879-0.187,1.425-0.187c0.493,0,0.946,0.04,1.361,0.119
		c0.414,0.079,0.769,0.196,1.063,0.354c0.296,0.158,0.526,0.353,0.694,0.586c0.167,0.234,0.251,0.505,0.251,0.814
		c0,0.2-0.04,0.417-0.12,0.65c-0.079,0.233-0.202,0.483-0.367,0.75c-0.177,0.279-0.304,0.526-0.376,0.741
		c-0.073,0.216-0.11,0.401-0.11,0.559c0,0.212,0.057,0.372,0.173,0.478c0.114,0.106,0.264,0.159,0.446,0.159
		c0.242,0,0.513-0.092,0.815-0.277c0.299-0.185,0.576-0.469,0.833-0.853c0.261-0.395,0.45-0.773,0.567-1.138
		c0.12-0.364,0.179-0.72,0.179-1.066c0-0.583-0.144-1.114-0.433-1.594c-0.288-0.479-0.67-0.893-1.144-1.239
		c-0.473-0.347-1.011-0.613-1.616-0.802s-1.222-0.282-1.854-0.282c-0.996,0-1.861,0.122-2.602,0.366
		c-0.739,0.243-1.356,0.56-1.851,0.953c-0.494,0.392-0.864,0.837-1.109,1.333c-0.247,0.495-0.369,0.999-0.369,1.511
		c0,0.545,0.116,1.033,0.352,1.46c0.231,0.427,0.541,0.815,0.926,1.161c0.386,0.346,0.821,0.664,1.312,0.951
		c0.49,0.289,0.991,0.563,1.501,0.824c0.511,0.261,1.011,0.519,1.503,0.774c0.492,0.254,0.931,0.526,1.316,0.813
		c0.386,0.289,0.695,0.603,0.93,0.943c0.233,0.339,0.349,0.726,0.349,1.156c0,0.467-0.131,0.881-0.39,1.243
		c-0.262,0.361-0.602,0.666-1.021,0.915c-0.42,0.249-0.894,0.437-1.421,0.564c-0.529,0.128-1.057,0.19-1.585,0.19
		c-0.449,0-0.883-0.047-1.3-0.145c-0.42-0.097-0.787-0.246-1.11-0.446c-0.319-0.201-0.576-0.456-0.771-0.765
		c-0.193-0.31-0.29-0.677-0.29-1.103c0-0.194,0.011-0.374,0.034-0.538c0.025-0.164,0.048-0.314,0.075-0.45
		c0.026-0.137,0.051-0.263,0.074-0.379c0.023-0.115,0.034-0.224,0.034-0.328c0-0.224-0.063-0.391-0.195-0.497
		c-0.13-0.105-0.292-0.16-0.486-0.16c-0.189,0-0.391,0.051-0.61,0.151c-0.219,0.099-0.421,0.249-0.606,0.445
		c-0.185,0.197-0.34,0.444-0.465,0.737c-0.124,0.296-0.187,0.637-0.187,1.026c0,0.753,0.168,1.41,0.505,1.972
		c0.338,0.561,0.785,1.028,1.345,1.403c0.559,0.373,1.196,0.653,1.912,0.837c0.717,0.186,1.456,0.278,2.216,0.278
		c0.539,0,1.077-0.047,1.611-0.141c0.534-0.094,1.043-0.232,1.53-0.415c0.485-0.182,0.938-0.413,1.357-0.692
		c0.419-0.279,0.781-0.602,1.088-0.965c0.306-0.364,0.548-0.776,0.725-1.234c0.177-0.458,0.264-0.96,0.264-1.507
		c0-0.601-0.115-1.135-0.351-1.603C154.957,91.395,154.648,90.976,154.262,90.606z"/>
	<path fill="#121212" d="M226.992,93.559c-0.208,0.198-0.461,0.408-0.759,0.63c-0.299,0.221-0.616,0.426-0.952,0.614
		c-0.336,0.188-0.681,0.344-1.036,0.469c-0.354,0.126-0.692,0.188-1.012,0.188c-0.101,0-0.198-0.011-0.284-0.032
		c-0.09-0.021-0.174-0.057-0.254-0.108c-0.08-0.053-0.158-0.126-0.237-0.22c-0.076-0.094-0.155-0.211-0.236-0.352
		c0.466-0.125,0.896-0.3,1.296-0.524c0.397-0.224,0.741-0.48,1.028-0.767c0.29-0.287,0.542-0.631,0.759-1.032
		c0.216-0.401,0.324-0.764,0.324-1.087c0-0.304-0.055-0.578-0.16-0.823c-0.107-0.245-0.256-0.455-0.444-0.626
		c-0.19-0.173-0.413-0.308-0.67-0.404c-0.257-0.096-0.531-0.144-0.831-0.144c-0.367,0-0.699,0.064-1,0.194
		c-0.299,0.128-0.57,0.303-0.812,0.521c-0.239,0.218-0.452,0.471-0.632,0.757c-0.181,0.286-0.331,0.589-0.448,0.905
		c-0.121,0.314-0.235,0.677-0.347,1.084c-0.112,0.408-0.168,0.759-0.168,1.054c0,0.197,0.015,0.39,0.039,0.579
		c-0.205,0.141-0.416,0.272-0.623,0.393c-0.222,0.128-0.437,0.239-0.637,0.331c-0.2,0.095-0.386,0.168-0.554,0.221
		c-0.168,0.053-0.309,0.081-0.422,0.081c-0.182,0-0.347-0.029-0.494-0.085c-0.146-0.056-0.271-0.146-0.374-0.272
		c-0.1-0.125-0.18-0.287-0.232-0.483c-0.053-0.198-0.08-0.44-0.08-0.729c0-0.111,0.001-0.234,0.004-0.368
		c0.002-0.133,0.008-0.272,0.012-0.416c0.005-0.144,0.012-0.29,0.016-0.436c0.004-0.147,0.01-0.29,0.016-0.428
		c0.016-0.32,0.034-0.646,0.057-0.976c0.133-0.166,0.28-0.351,0.437-0.556c0.158-0.206,0.316-0.415,0.472-0.628
		c0,0,0.007-0.012,0.02-0.03c1.291,0.042,2.204,0.069,2.204,0.069c0.2,0.001,0.409,0.011,0.577-0.119
		c0.168-0.128,0.229-0.371,0.231-0.578c0.001-0.179-0.036-0.328-0.109-0.444c-0.075-0.119-0.196-0.182-0.364-0.189
		c-0.14-0.005-0.872-0.072-1.123-0.079c-0.195-0.005-0.339-0.014-0.52-0.021c0.182-0.284,0.356-0.57,0.523-0.86
		c0.173-0.301,0.323-0.6,0.452-0.895c0.128-0.294,0.229-0.583,0.305-0.868c0.073-0.285,0.11-0.555,0.11-0.81
		c0-0.31-0.035-0.606-0.108-0.891c-0.07-0.285-0.174-0.534-0.307-0.747c-0.135-0.213-0.296-0.383-0.486-0.512
		c-0.189-0.127-0.396-0.192-0.626-0.192c-0.358,0-0.699,0.158-1.023,0.475c-0.324,0.317-0.624,0.736-0.896,1.26
		c-0.275,0.524-0.523,1.123-0.743,1.795c-0.18,0.545-0.333,1.403-0.461,2.091l-2.098-0.104l-0.277-0.006
		c0.12-0.197,0.241-0.395,0.356-0.594c0.172-0.301,0.324-0.6,0.452-0.895c0.126-0.294,0.228-0.583,0.302-0.868
		c0.075-0.285,0.112-0.555,0.112-0.81c0-0.31-0.036-0.606-0.107-0.891c-0.072-0.285-0.175-0.534-0.307-0.747
		c-0.134-0.213-0.296-0.383-0.486-0.512c-0.188-0.127-0.398-0.192-0.627-0.192c-0.356,0-0.698,0.158-1.021,0.475
		c-0.325,0.317-0.626,0.736-0.897,1.26c-0.274,0.524-0.521,1.123-0.743,1.795c-0.207,0.63-0.38,1.281-0.519,1.951
		c-0.078,0-0.147,0.001-0.196,0.001c-0.306,0-0.674,0.044-0.931,0.066c-0.256,0.021-0.467,0.055-0.63,0.1
		c-0.165,0.045-0.226,0.128-0.248,0.199c-0.017,0.053,0.006,0.122,0.013,0.2c0.007,0.077,0.036,0.151,0.086,0.223
		c0.051,0.071,0.131,0.133,0.238,0.187c0.109,0.053,0.265,0.09,0.466,0.11c0.429,0.038,0.76,0.069,0.998,0.095
		c-0.074,0.55-0.146,1.148-0.159,1.331c-0.025,0.362-0.039,0.703-0.039,1.024c0,0.598,0.028,1.15,0.082,1.661
		c-0.2,0.188-0.439,0.387-0.719,0.595c-0.301,0.221-0.617,0.426-0.953,0.614c-0.337,0.188-0.682,0.344-1.037,0.469
		c-0.354,0.126-0.691,0.188-1.012,0.188c-0.103,0-0.196-0.011-0.283-0.032c-0.09-0.021-0.174-0.057-0.254-0.108
		c-0.081-0.053-0.158-0.126-0.237-0.22c-0.077-0.094-0.157-0.211-0.235-0.352c0.464-0.125,0.895-0.3,1.293-0.524
		c0.397-0.224,0.742-0.48,1.03-0.767c0.288-0.287,0.54-0.631,0.756-1.032c0.218-0.401,0.325-0.764,0.325-1.087
		c0-0.304-0.053-0.578-0.158-0.823c-0.107-0.245-0.256-0.455-0.445-0.626c-0.189-0.173-0.413-0.308-0.67-0.404
		c-0.255-0.096-0.533-0.144-0.831-0.144c-0.366,0-0.699,0.064-0.999,0.194c-0.301,0.128-0.57,0.303-0.812,0.521
		c-0.241,0.218-0.449,0.471-0.632,0.757c-0.182,0.286-0.329,0.589-0.449,0.905c-0.118,0.314-0.235,0.677-0.346,1.084
		c-0.111,0.408-0.167,0.759-0.167,1.054c0,0.217,0.016,0.429,0.044,0.637c-0.064,0.044-0.129,0.087-0.19,0.129
		c-0.147,0.096-0.301,0.191-0.459,0.286c-0.159,0.095-0.312,0.178-0.463,0.25c-0.149,0.072-0.292,0.13-0.427,0.173
		c-0.133,0.043-0.252,0.064-0.354,0.064c-0.044,0-0.089-0.03-0.137-0.093c-0.049-0.061-0.094-0.145-0.138-0.249
		c-0.042-0.105-0.137-0.224-0.165-0.355c-0.03-0.132-0.102-0.268-0.102-0.408v-0.113c0-0.107,0.095-0.218,0.12-0.331
		c0.028-0.113,0.084-0.219,0.111-0.318c0.025-0.1,0.067-0.192,0.099-0.278c0.029-0.086,0.064-0.156,0.091-0.21
		c0.246-0.483,0.517-0.979,0.81-1.486c0.291-0.506,0.584-1.021,0.873-1.544c0.287-0.523,0.563-1.049,0.829-1.58
		c0.266-0.532,0.503-1.062,0.704-1.589c0.202-0.528,0.364-1.053,0.481-1.576c0.121-0.523,0.181-1.037,0.181-1.541
		c0-0.203-0.019-0.402-0.059-0.598c-0.036-0.196-0.101-0.371-0.192-0.525c-0.092-0.154-0.219-0.279-0.38-0.374
		c-0.16-0.094-0.363-0.141-0.61-0.141c-0.339,0-0.673,0.097-1.001,0.292c-0.33,0.194-0.645,0.461-0.946,0.802
		c-0.302,0.341-0.589,0.739-0.864,1.197c-0.274,0.458-0.528,0.95-0.764,1.478c-0.233,0.527-0.468,1.227-0.7,2.1
		c-0.233,0.872-0.349,1.308-0.349,1.308s-0.078,0.437-0.231,1.311c-0.154,0.874-0.231,1.572-0.231,2.095
		c0,0.475,0.032,0.932,0.096,1.373c-0.127,0.154-0.251,0.299-0.377,0.435c-0.11,0.121-0.229,0.239-0.354,0.353
		c-0.126,0.114-0.25,0.214-0.375,0.304c-0.127,0.09-0.251,0.164-0.374,0.218c-0.121,0.057-0.239,0.083-0.352,0.083
		c-0.148,0-0.246-0.069-0.291-0.206c-0.045-0.138-0.068-0.329-0.068-0.573c0-0.287,0.043-0.638,0.133-1.056
		c0.088-0.417,0.167-0.788,0.236-1.115c0.066-0.326,0.128-0.645,0.183-0.955c0.052-0.311,0.079-0.593,0.079-0.848
		c0-0.167-0.016-0.299-0.044-0.396c-0.029-0.098-0.078-0.167-0.126-0.227c-0.494-0.652-1.807-0.735-1.93-0.735
		c-0.37,0-0.733,0.079-1.09,0.235c-0.356,0.157-0.697,0.368-1.018,0.633c-0.322,0.266-0.617,0.577-0.891,0.933
		c-0.271,0.356-0.523,0.778-0.758,1.268c-0.236,0.488-0.411,0.943-0.523,1.362c-0.086,0.317-0.139,0.628-0.159,0.933
		c-0.232,0.17-0.48,0.33-0.743,0.486c-0.334,0.2-0.683,0.342-1.188,0.419c-0.447,0.07-1.553-0.041-1.553-0.041
		c0.479-0.207,0.894-0.44,1.242-0.701c0.348-0.26,0.649-0.541,0.902-0.839c0.252-0.3,0.457-0.653,0.619-1.062
		c0.105-0.273,0.158-0.652,0.158-1.137c0-0.456-0.062-0.842-0.182-1.156c-0.123-0.314-0.293-0.57-0.505-0.769
		c-0.213-0.198-0.46-0.342-0.744-0.432c-0.281-0.087-0.584-0.132-0.91-0.132c-0.447,0-0.831,0.08-1.148,0.238
		c-0.315,0.159-0.587,0.374-0.815,0.643c-0.227,0.27-0.439,0.629-0.639,1.076c-0.199,0.447-0.349,0.875-0.442,1.283
		c-0.078,0.325-0.142,0.656-0.196,0.991l-0.006-0.03c-0.353,0.507-0.669,0.929-0.951,1.267c-0.282,0.338-0.538,0.619-0.769,0.843
		c-0.229,0.224-0.438,0.402-0.625,0.536c-0.188,0.133-0.362,0.244-0.522,0.335c0.139-0.909,0.276-1.759,0.412-2.551
		c0.058-0.334,0.138-0.777,0.233-1.327c0.096-0.55,0.169-0.979,0.223-1.283c0.055-0.305,0.1-0.577,0.143-0.816
		c0.043-0.24,0.076-0.431,0.1-0.572c0.017-0.064,0.025-0.12,0.025-0.168c0-0.155-0.057-0.268-0.169-0.34
		c-0.112-0.072-0.251-0.108-0.416-0.108c-0.141,0-0.286,0.024-0.44,0.072c-0.156,0.048-0.305,0.121-0.449,0.22
		c-0.145,0.098-0.27,0.217-0.377,0.356c-0.112,0.144-0.186,0.304-0.225,0.479l-0.642,2.991c-0.021,0.172-0.067,0.388-0.139,0.645
		c-0.072,0.258-0.165,0.507-0.282,0.749c-0.118,0.242-0.257,0.449-0.418,0.62c-0.158,0.172-0.338,0.258-0.537,0.258
		c-0.121,0-0.223-0.032-0.303-0.093c-0.08-0.062-0.144-0.143-0.191-0.243c-0.049-0.1-0.082-0.213-0.1-0.339
		c-0.02-0.126-0.028-0.258-0.028-0.392c0-0.259,0.03-0.554,0.095-0.883c0.064-0.33,0.149-0.777,0.258-1.34
		c0.107-0.563,0.193-1.014,0.26-1.353c0.063-0.338,0.143-0.629,0.236-0.875c0.031-0.08,0.055-0.154,0.068-0.224
		c0.013-0.07,0.019-0.134,0.019-0.192c0-0.198-0.066-0.343-0.199-0.436c-0.134-0.094-0.293-0.141-0.481-0.141
		c-0.219,0-0.441,0.063-0.671,0.188c-0.229,0.126-0.405,0.309-0.527,0.548c-0.164,0.336-0.312,0.668-0.439,0.997
		c-0.128,0.328-0.239,0.776-0.332,1.344c-0.046,0.273-0.088,0.525-0.126,0.756c-0.201,0.068-0.396,0.103-0.587,0.103
		c-0.084,0-0.167-0.016-0.244-0.048c-0.077-0.032-0.146-0.087-0.207-0.164c-0.063-0.078-0.112-0.181-0.147-0.308
		c-0.039-0.128-0.057-0.288-0.057-0.48c0-0.112,0.012-0.252,0.038-0.42c0.027-0.168,0.071-0.382,0.129-0.644
		c0.059-0.262,0.102-0.473,0.128-0.636c0.026-0.163,0.04-0.29,0.04-0.38c0-0.118-0.021-0.222-0.064-0.315
		c-0.042-0.094-0.101-0.172-0.171-0.236c-0.074-0.064-0.156-0.114-0.253-0.148c-0.096-0.035-0.194-0.053-0.296-0.053
		c-0.293,0-0.55,0.079-0.774,0.235c-0.225,0.158-0.425,0.352-0.601,0.581c-0.177,0.228-0.345,1.157-0.505,1.503
		c-0.159,0.347-0.293,0.48-0.399,1.48h-0.088c-0.012-1-0.002-1.229,0.023-1.593c0.027-0.361,0.042-0.961,0.042-1.159
		c0-0.166-0.006-0.457-0.013-0.553c-0.009-0.096-0.031-0.249-0.069-0.298c-0.038-0.052-0.095-0.123-0.173-0.137
		c-0.075-0.014-0.183-0.041-0.323-0.041c-0.122,0-0.226-0.003-0.308,0.01s-0.151,0.035-0.207,0.075
		c-0.056,0.04-0.106,0.093-0.147,0.162c-0.044,0.068-0.085,0.162-0.129,0.279c-0.07,0.176-0.139,0.397-0.207,0.669
		c-0.055,0.212-0.116,0.466-0.187,0.759c-0.011-0.013-0.022-0.025-0.034-0.039c-0.331-0.4-0.693-0.732-1.078-0.996
		c-0.386-0.265-0.802-0.475-1.244-0.632c-0.442-0.158-0.917-0.236-1.423-0.236c-0.593,0-1.124,0.108-1.6,0.325
		c-0.475,0.215-0.877,0.511-1.204,0.888c-0.327,0.375-0.58,0.818-0.756,1.327c-0.176,0.51-0.265,1.116-0.265,1.82
		c0,0.161,0.01,0.321,0.025,0.48c-0.077,0.057-0.155,0.116-0.235,0.172c-0.216,0.152-0.435,0.292-0.654,0.419
		c-0.222,0.128-0.435,0.239-0.633,0.331c-0.2,0.095-0.385,0.168-0.554,0.221c-0.168,0.053-0.309,0.081-0.42,0.081
		c-0.182,0-0.349-0.029-0.494-0.085c-0.147-0.056-0.271-0.146-0.372-0.272c-0.103-0.125-0.18-0.287-0.233-0.483
		c-0.054-0.198-0.08-0.44-0.08-0.729c0-0.111,0.002-0.234,0.004-0.368c0.002-0.133,0.007-0.272,0.011-0.416
		c0.006-0.144,0.012-0.29,0.017-0.436c0.005-0.147,0.011-0.29,0.017-0.428c0.015-0.32,0.034-0.646,0.056-0.976
		c0.134-0.166,0.28-0.351,0.437-0.556c0.158-0.206,0.314-0.415,0.472-0.628c0,0,0.048-0.071,0.124-0.18l2.691,0.143
		c0.2,0.002,0.407,0.012,0.576-0.117c0.168-0.129,0.229-0.372,0.231-0.579c0.002-0.18-0.035-0.328-0.109-0.446
		c-0.075-0.118-0.196-0.181-0.363-0.188c-0.141-0.007-0.872-0.072-1.123-0.08c-0.25-0.007-0.413-0.02-0.681-0.026
		c-0.106-0.001-0.236-0.008-0.371-0.015c0.161-0.253,0.316-0.507,0.463-0.765c0.174-0.301,0.325-0.6,0.451-0.895
		c0.13-0.294,0.23-0.583,0.305-0.868c0.075-0.285,0.112-0.555,0.112-0.81c0-0.31-0.036-0.606-0.107-0.891
		c-0.072-0.285-0.174-0.534-0.31-0.747c-0.133-0.213-0.293-0.383-0.483-0.512c-0.188-0.127-0.398-0.192-0.629-0.192
		c-0.355,0-0.696,0.158-1.021,0.475c-0.325,0.317-0.625,0.736-0.898,1.26c-0.274,0.524-0.522,1.123-0.743,1.795
		c-0.215,0.653-0.393,1.329-0.533,2.024c-0.277,0.004-0.562,0.007-0.671,0.008c-0.306,0.001-0.675,0.045-0.931,0.066
		c-0.257,0.021-0.467,0.054-0.629,0.099c-0.167,0.045-0.228,0.128-0.248,0.199c-0.017,0.053,0.002,0.122,0.011,0.199
		c0.008,0.077,0.037,0.152,0.087,0.224c0.049,0.071,0.128,0.133,0.238,0.187c0.108,0.053,0.264,0.09,0.466,0.11
		c0.454,0.04,0.8,0.074,1.04,0.1c0.027,0.003,0.18,0.024,0.429,0.053c-0.065,0.509-0.126,1.025-0.138,1.193
		c-0.028,0.362-0.039,0.703-0.039,1.024c0,0.821,0.051,1.559,0.153,2.215c0.104,0.656,0.259,1.215,0.466,1.676
		c0.206,0.461,0.464,0.814,0.771,1.06c0.307,0.245,0.663,0.367,1.066,0.367c0.197,0,0.418-0.037,0.66-0.112
		c0.244-0.074,0.521-0.187,0.833-0.335c0.312-0.15,0.669-0.336,1.069-0.561c0.255-0.142,0.535-0.302,0.836-0.474
		c0.061,0.128,0.126,0.252,0.203,0.37c0.211,0.331,0.486,0.599,0.818,0.805c0.334,0.205,0.735,0.307,1.205,0.307
		c0.325,0,0.631-0.055,0.919-0.167s0.554-0.264,0.796-0.456s0.46-0.418,0.647-0.68c0.189-0.261,0.351-0.542,0.48-0.84
		c0.131-0.298,0.231-0.608,0.3-0.928c0.069-0.319,0.104-0.637,0.104-0.952c0-0.432-0.039-0.82-0.117-1.164
		c-0.077-0.344-0.192-0.67-0.348-0.979l0.064-0.089c0.193,0.128,0.421,0.287,0.688,0.476c0.266,0.19,0.538,0.42,0.812,0.693
		c0.121,0.12,0.24,0.235,0.356,0.345c-0.015,0.068-0.026,0.136-0.037,0.202c-0.062,0.36-0.114,0.714-0.161,1.06
		c-0.044,0.346-0.08,0.676-0.107,0.988s-0.04,0.585-0.04,0.82c0,0.212,0.011,0.42,0.036,0.62c0.023,0.2,0.072,0.378,0.144,0.536
		c0.073,0.157,0.175,0.283,0.307,0.375c0.135,0.094,0.312,0.14,0.53,0.14c0.096,0,0.182-0.018,0.263-0.051
		c0.081-0.035,0.156-0.095,0.226-0.181c0.068-0.085,0.137-0.196,0.204-0.332c0.065-0.136,0.138,0.164,0.212-0.043l1.432-3.52h0.126
		c0.044,0,0.101,0.195,0.169,0.523c0.069,0.329,0.176,0.389,0.319,0.651c0.144,0.265,0.34,0.358,0.583,0.521
		c0.247,0.164,0.57,0.186,0.969,0.186c0.218,0,0.432-0.062,0.64-0.124c-0.002,0.05-0.002,0.083-0.002,0.135
		c0,0.353,0.055,0.662,0.169,0.941c0.109,0.28,0.26,0.514,0.446,0.708c0.187,0.195,0.401,0.342,0.644,0.445
		c0.243,0.104,0.492,0.156,0.747,0.156c0.294,0,0.597-0.08,0.909-0.234c0.312-0.156,0.611-0.36,0.9-0.614l-0.177,0.966
		c-0.337,0.294-0.626,0.568-0.868,0.824c-0.242,0.255-0.55,0.593-0.923,1.014c-0.188,0.203-0.366,0.429-0.536,0.679
		c-0.172,0.256-0.296,0.452-0.377,0.587c-0.079,0.136-0.219,0.379-0.414,0.731c-0.352,0.629-0.509,1.225-0.466,1.79
		c0.021,0.298,0.093,0.558,0.216,0.779c0.122,0.222,0.278,0.395,0.473,0.523c0.19,0.127,0.403,0.222,0.633,0.284
		c0.231,0.061,0.484,0.091,0.755,0.091c0.335,0,0.644-0.053,0.925-0.159c0.283-0.107,0.525-0.247,0.724-0.42
		c0.198-0.174,0.38-0.383,0.546-0.629s0.299-0.492,0.4-0.74c0.101-0.248,0.188-0.52,0.262-0.816c0.075-0.296,0.128-0.56,0.156-0.79
		c0.029-0.231,0.06-0.474,0.094-0.728c0.006-0.106,0.025-0.258,0.057-0.454c0.068-0.688,0.131-1.158,0.186-1.411
		s0.154-0.428,0.3-0.524c0.6-0.4,0.952-0.646,1.06-0.736c0.099-0.077,0.182-0.145,0.255-0.202c-0.019,0.035-0.04,0.072-0.057,0.107
		c-0.156,0.297-0.308,0.604-0.453,0.919c-0.146,0.316-0.266,0.632-0.396,0.932c-0.279,0.652-0.371,1.403-0.383,1.624
		c-0.084,1.46,0.188,2.128,0.816,2.585c0.202,0.148,0.456,0.225,0.759,0.225c0.391,0,0.768-0.153,1.129-0.458
		c0.361-0.305,0.684-0.739,0.964-1.301c0.279-0.562,0.146-1.241,0.313-2.036c0.168-0.796-0.109-1.681-0.109-2.655V96.88
		c0,0.069,1.15,0.128,1.406,0.176c0.26,0.05,0.633,0.101,0.773,0.117c0.62,0.07,1.072,0.052,1.461-0.063
		c0.316-0.094,0.665-0.219,0.951-0.375c0.237-0.129,0.48-0.276,0.687-0.439c0.081,0.134,0.183,0.255,0.284,0.363
		c0.188,0.196,0.406,0.347,0.65,0.451c0.242,0.104,0.493,0.158,0.75,0.158c0.242,0,0.485-0.04,0.724-0.119
		c0.244-0.079,0.479-0.181,0.7-0.305c0.223-0.123,0.429-0.263,0.616-0.415c0.189-0.152,0.348-0.304,0.479-0.451
		c0.17,0.427,0.376,0.753,0.612,0.978c0.235,0.224,0.531,0.336,0.885,0.336c0.293,0,0.586-0.073,0.881-0.218
		c0.292-0.146,0.568-0.323,0.822-0.534c0.257-0.209,0.488-0.431,0.692-0.663c0.046-0.049,0.086-0.098,0.126-0.145
		c0.02,0.047,0.037,0.097,0.058,0.143c0.183,0.419,0.398,0.754,0.645,1.004c0.247,0.25,0.513,0.373,0.801,0.373
		c0.188,0,0.389-0.024,0.602-0.072c0.214-0.048,0.435-0.113,0.658-0.194c0.227-0.081,0.449-0.173,0.673-0.277
		c0.223-0.104,0.438-0.209,0.646-0.316c0.161-0.084,0.319-0.174,0.48-0.268c0.025,0.035,0.049,0.072,0.076,0.106
		c0.249,0.312,0.56,0.559,0.933,0.745c0.375,0.184,0.809,0.276,1.308,0.276c0.32,0,0.637-0.037,0.947-0.111
		c0.312-0.073,0.614-0.172,0.905-0.296c0.29-0.123,0.568-0.264,0.83-0.424c0.266-0.159,0.513-0.321,0.74-0.486
		c0.266-0.192,0.521-0.398,0.771-0.619c0.058,0.181,0.123,0.352,0.194,0.509c0.205,0.461,0.463,0.814,0.771,1.06
		c0.308,0.245,0.662,0.367,1.065,0.367c0.197,0,0.418-0.037,0.661-0.112c0.242-0.074,0.521-0.187,0.833-0.335
		c0.312-0.15,0.669-0.336,1.069-0.561c0.375-0.21,0.802-0.454,1.277-0.73c0.04,0.107,0.082,0.212,0.126,0.311
		c0.206,0.461,0.463,0.814,0.771,1.06c0.308,0.245,0.663,0.367,1.066,0.367c0.197,0,0.418-0.037,0.66-0.112
		c0.243-0.074,0.521-0.187,0.834-0.335c0.312-0.15,0.699-0.336,1.101-0.561c0.197-0.11,0.404-0.229,0.631-0.357
		c0.069,0.12,0.146,0.236,0.233,0.345c0.248,0.312,0.56,0.559,0.934,0.745c0.372,0.184,0.809,0.276,1.307,0.276
		c0.32,0,0.637-0.037,0.948-0.111c0.311-0.073,0.613-0.172,0.903-0.296c0.291-0.123,0.79-0.402,1.019-0.607
		C227.181,95.158,226.992,93.559,226.992,93.559z M217.153,87.259c0.116-0.456,0.238-0.873,0.37-1.251
		c0.13-0.378,0.266-0.689,0.409-0.933c0.142-0.244,0.282-0.364,0.422-0.364c0.101,0,0.179,0.021,0.236,0.063
		c0.056,0.042,0.098,0.095,0.125,0.159c0.026,0.063,0.045,0.132,0.052,0.203c0.008,0.072,0.011,0.137,0.011,0.195
		c0,0.169-0.045,0.385-0.135,0.648c-0.092,0.263-0.206,0.547-0.347,0.85c-0.139,0.302-0.295,0.611-0.469,0.924
		c-0.175,0.313-0.342,0.604-0.502,0.874c-0.086-0.008-0.168-0.016-0.249-0.021c-0.08-0.007-0.16-0.013-0.24-0.021
		C216.932,88.157,217.037,87.714,217.153,87.259z M158.933,87.259c0.115-0.456,0.238-0.873,0.368-1.251
		c0.133-0.378,0.268-0.689,0.412-0.933c0.14-0.244,0.28-0.364,0.42-0.364c0.102,0,0.181,0.021,0.236,0.063
		c0.057,0.042,0.098,0.095,0.125,0.159c0.026,0.063,0.045,0.132,0.052,0.203c0.009,0.072,0.013,0.137,0.013,0.195
		c0,0.169-0.046,0.385-0.135,0.648c-0.092,0.263-0.207,0.547-0.348,0.85c-0.14,0.302-0.295,0.611-0.47,0.924
		c-0.152,0.277-0.3,0.534-0.443,0.776c-0.173-0.009-0.355-0.019-0.529-0.027C158.727,88.1,158.824,87.686,158.933,87.259z
		 M166.406,93.728c-0.078,0.397-0.182,0.736-0.309,1.016c-0.127,0.28-0.277,0.512-0.449,0.696c-0.17,0.184-0.346,0.276-0.527,0.276
		c-0.207,0-0.387-0.044-0.534-0.132c-0.151-0.088-0.271-0.205-0.361-0.352c-0.09-0.147-0.157-0.319-0.2-0.516
		c-0.043-0.198-0.063-0.408-0.063-0.632c0-0.442,0.043-0.84,0.129-1.191c0.085-0.352,0.201-0.673,0.352-0.964
		c0.149-0.291,0.322-0.529,0.52-0.716c0.197-0.186,0.405-0.28,0.625-0.28c0.164,0,0.306,0.045,0.422,0.136
		c0.118,0.091,0.215,0.213,0.288,0.369c0.075,0.154,0.131,0.337,0.168,0.547c0.038,0.21,0.057,0.438,0.057,0.684
		C166.521,92.978,166.482,93.331,166.406,93.728z M178.845,100.51c-0.035,0.187-0.263,1.035-0.32,1.208
		c-0.053,0.173-0.118,0.349-0.19,0.527c-0.072,0.179-0.141,0.317-0.204,0.416c-0.064,0.098-0.138,0.189-0.225,0.272
		c-0.085,0.083-0.177,0.14-0.28,0.172c-0.102,0.031-0.215,0.048-0.344,0.048c-0.351,0-0.439-0.257-0.263-0.768
		c0.214-0.608,0.502-1.205,0.865-1.792c0.363-0.586,0.732-1.012,1.106-1.279C178.98,99.389,178.959,99.896,178.845,100.51z
		 M183.783,97.467c-0.006,0.132-0.014,0.298-0.021,0.497c-0.011,0.198-0.022,0.441-0.039,0.728c-0.011,0.164-0.019,0.35-0.021,0.557
		c-0.003,0.207-0.01,0.418-0.019,0.636c-0.009,0.217-0.021,0.43-0.039,0.637c-0.015,0.207-0.042,0.392-0.077,0.557
		c-0.039,0.164-0.087,0.296-0.145,0.393c-0.061,0.098-0.135,0.142-0.226,0.148c-0.201,0.013-0.361-0.13-0.456-0.291
		c-0.055-0.09-0.096-0.312-0.087-0.568c0.001-0.069,0.015-0.183,0.044-0.339c0.03-0.157,0.068-0.343,0.119-0.559
		s0.111-0.449,0.181-0.699c0.07-0.25,0.146-0.5,0.23-0.75c0.085-0.25,0.178-0.491,0.274-0.723c0.097-0.231,0.193-0.435,0.294-0.61
		C183.793,97.188,183.789,97.317,183.783,97.467z M185.517,94.934c0-0.305,0.01-0.61,0.03-0.917c0.02-0.307,0.078-0.642,0.177-1.007
		c0.1-0.364,0.184-0.669,0.256-0.918c0.071-0.248,0.163-0.462,0.272-0.642c0.11-0.181,0.239-0.324,0.389-0.43
		s0.322-0.158,0.52-0.158c0.176,0,0.312,0.048,0.411,0.143c0.099,0.096,0.167,0.211,0.208,0.345c0.039,0.134,0.056,0.278,0.047,0.43
		c-0.008,0.153-0.025,0.285-0.052,0.398c-0.048,0.212-0.16,0.516-0.335,0.914c-0.264,0.465-0.865,1.133-1.09,1.324
		C186.115,94.605,185.838,94.779,185.517,94.934z M194.008,93.46c-0.022,0.172-0.068,0.387-0.142,0.645
		c-0.07,0.257-0.166,0.506-0.284,0.749c-0.117,0.242-0.256,0.448-0.416,0.62c-0.16,0.172-0.339,0.258-0.536,0.258
		c-0.122,0-0.225-0.032-0.306-0.095c-0.079-0.064-0.143-0.146-0.191-0.248c-0.047-0.102-0.082-0.217-0.1-0.346
		c-0.019-0.129-0.028-0.263-0.028-0.399c0-0.234,0.031-0.482,0.093-0.747c0.06-0.263,0.167-0.571,0.315-0.918
		c0.149-0.35,0.301-0.644,0.455-0.881c0.155-0.238,0.325-0.45,0.508-0.635c0.184-0.185,0.38-0.332,0.588-0.44
		c0.21-0.108,0.421-0.162,0.642-0.162L194.008,93.46z M200.267,89.008c0.143-0.723,0.216-1.084,0.216-1.084
		c0,0,0.117-0.39,0.352-1.168c0.235-0.779,0.438-1.341,0.607-1.687c0.17-0.345,0.338-0.62,0.509-0.822
		c0.168-0.203,0.326-0.304,0.473-0.304c0.04,0,0.063,0.055,0.071,0.166c0.007,0.11,0.013,0.244,0.013,0.399
		c-0.048,0.49-0.161,1.018-0.338,1.585c-0.177,0.567-0.386,1.136-0.626,1.706c-0.239,0.57-0.495,1.124-0.767,1.661
		c-0.27,0.538-0.525,1.021-0.765,1.452C200.039,90.365,200.124,89.73,200.267,89.008z M204.326,93.027
		c0.01-0.161,0.061-0.368,0.148-0.618c0.088-0.25,0.118-0.329,0.232-0.629c0.065-0.17,0.155-0.321,0.265-0.454
		c0.11-0.133,0.245-0.241,0.411-0.324c0.163-0.083,0.359-0.125,0.589-0.125c0.128,0,0.237,0.076,0.325,0.227
		c0.09,0.151,0.133,0.344,0.133,0.579c0,0.167-0.094,0.378-0.281,0.634s-0.378,0.459-0.574,0.61
		c-0.194,0.151-0.407,0.275-0.634,0.372c-0.229,0.097-0.438,0.145-0.63,0.145C204.311,93.327,204.314,93.189,204.326,93.027z
		 M211.351,87.259c0.114-0.456,0.237-0.873,0.37-1.251c0.13-0.378,0.266-0.689,0.408-0.933c0.142-0.244,0.283-0.364,0.422-0.364
		c0.103,0,0.18,0.021,0.237,0.063c0.056,0.042,0.097,0.095,0.124,0.159c0.025,0.063,0.044,0.132,0.051,0.203
		c0.009,0.072,0.013,0.137,0.013,0.195c0,0.169-0.046,0.385-0.136,0.648c-0.091,0.263-0.207,0.547-0.346,0.85
		c-0.14,0.302-0.296,0.611-0.469,0.924c-0.127,0.227-0.249,0.441-0.367,0.644l-0.58-0.012
		C211.163,88.019,211.252,87.644,211.351,87.259z M215.065,93.868c-0.022,0.02-0.043,0.041-0.066,0.06
		c-0.198,0.169-0.404,0.329-0.621,0.48c-0.215,0.152-0.436,0.292-0.656,0.419c-0.221,0.128-0.433,0.239-0.631,0.331
		c-0.2,0.095-0.385,0.168-0.554,0.221c-0.168,0.053-0.308,0.081-0.421,0.081c-0.181,0-0.347-0.029-0.493-0.085
		c-0.147-0.056-0.271-0.146-0.374-0.272c-0.101-0.125-0.179-0.287-0.233-0.483c-0.053-0.198-0.079-0.44-0.079-0.729
		c0-0.111,0.002-0.234,0.004-0.368c0.003-0.133,0.006-0.272,0.012-0.416c0.004-0.144,0.011-0.29,0.016-0.436
		c0.006-0.147,0.011-0.29,0.017-0.428c0.017-0.32,0.035-0.646,0.055-0.976c0.135-0.166,0.281-0.351,0.439-0.556
		s0.314-0.415,0.47-0.628l0.169-0.257c0.012,0.001,0.021,0.001,0.033,0.001c0.899,0.046,1.925,0.09,2.933,0.129
		c-0.039,0.314-0.072,0.631-0.096,0.95c-0.026,0.362-0.039,0.703-0.039,1.024C214.948,92.641,214.989,93.283,215.065,93.868z
		 M222.053,93.027c0.012-0.161,0.062-0.368,0.149-0.618c0.089-0.25,0.165-0.46,0.233-0.629c0.064-0.169,0.156-0.321,0.265-0.454
		c0.109-0.133,0.245-0.241,0.409-0.324c0.162-0.083,0.36-0.125,0.591-0.125c0.127,0,0.235,0.076,0.324,0.227
		c0.089,0.151,0.133,0.344,0.133,0.579c0,0.167-0.094,0.378-0.282,0.634c-0.187,0.255-0.377,0.459-0.573,0.61
		c-0.194,0.151-0.407,0.275-0.634,0.372c-0.229,0.097-0.439,0.145-0.631,0.145C222.037,93.327,222.043,93.189,222.053,93.027z"/>
</g>
</svg>
