<?xml version="1.0" encoding="utf-8"?>
<!-- Generator: Adobe Illustrator 16.0.0, SVG Export Plug-In . SVG Version: 6.00 Build 0)  -->
<!DOCTYPE svg PUBLIC "-//W3C//DTD SVG 1.1//EN" "http://www.w3.org/Graphics/SVG/1.1/DTD/svg11.dtd">
<svg version="1.1" id="Layer_1" xmlns="http://www.w3.org/2000/svg" xmlns:xlink="http://www.w3.org/1999/xlink" x="0px" y="0px"
	 width="141.869px" height="45.786px" viewBox="0 0 141.869 45.786" enable-background="new 0 0 141.869 45.786"
	 xml:space="preserve">
<g>
	<circle fill="#E20072" cx="17.156" cy="28.14" r="17.156"/>
</g>
<g opacity="0.5">
	<polyline points="17.181,41.182 13.829,39.237 10.476,41.182 7.117,39.237 20.536,31.5 27.245,35.371 17.181,41.182 	"/>
</g>
<g>
	<polygon fill="#FFFFFF" points="10.857,4.375 7.729,2.561 10.874,0.741 14.002,2.561 10.857,4.375 	"/>
</g>
<g>
	<polygon fill="#030406" points="9.289,2.534 10.857,3.446 12.432,2.532 10.857,1.63 9.289,2.534 	"/>
</g>
<g>
	<polyline fill="#C7C3C2" points="23.427,18.57 23.427,22.509 20.283,20.699 20.283,24.323 17.139,22.507 17.14,37.328 
		26.833,31.695 26.756,20.527 23.427,18.57 	"/>
</g>
<g>
	<polygon fill="#FFFFFF" points="17.14,37.323 14.003,35.483 14.002,20.699 17.139,22.507 17.14,37.323 	"/>
</g>
<g>
	<polygon fill="#030406" points="17.14,37.323 17.183,37.248 14.08,35.432 14.079,20.823 17.059,22.553 17.062,37.323 17.14,37.323 
		17.183,37.248 17.14,37.323 17.224,37.323 17.222,22.458 13.924,20.56 13.926,35.525 17.224,37.465 17.224,37.323 17.14,37.323 	
		"/>
</g>
<g>
	<polygon fill="#FFFFFF" points="23.345,22.368 16.88,18.626 16.99,14.892 23.344,18.617 23.345,22.368 	"/>
</g>
<g>
	<path fill="#030406" d="M17.066,15.032l-0.105,3.561l6.304,3.636l-0.001-3.565L17.066,15.032L17.066,15.032z M16.916,14.753
		l6.511,3.817v3.939l-6.631-3.834L16.916,14.753"/>
</g>
<g>
	<polygon fill="#FFFFFF" points="20.361,24.459 20.242,24.386 13.96,20.762 13.924,20.745 13.924,20.699 13.924,17.06 13.924,16.92 
		14.043,16.997 20.325,20.621 20.361,20.65 20.361,20.699 20.361,24.323 20.361,24.459 	"/>
</g>
<g>
	<path fill="#030406" d="M13.839,16.791v0.269v3.639v0.093l0.085,0.032l6.279,3.636l0.242,0.129v-0.266v-3.624v-0.098l-0.084-0.042
		l-6.282-3.639L13.839,16.791L13.839,16.791z M14.002,17.06l6.281,3.639v3.624l-6.281-3.624V17.06"/>
</g>
<g>
	<polygon fill="#C7C3C2" points="14.08,35.508 10.857,37.272 10.857,4.375 14.08,2.515 14.08,35.508 	"/>
</g>
<g>
	<polygon fill="#030406" points="14.08,35.508 14.045,35.43 10.941,37.135 10.941,4.418 14.003,2.642 14.002,35.508 14.08,35.508 
		14.045,35.43 14.08,35.508 14.165,35.508 14.167,2.373 10.777,4.328 10.777,37.412 14.165,35.554 14.165,35.508 14.08,35.508 	"/>
</g>
<g>
	<polygon fill="#FFFFFF" points="10.857,37.067 7.359,35.029 7.673,2.573 10.857,4.418 10.857,37.067 	"/>
</g>
<g>
	<polygon fill="#030406" points="10.857,37.313 10.899,37.243 7.451,35.263 7.62,2.588 10.777,4.418 10.777,37.313 10.857,37.313 
		10.899,37.243 10.857,37.313 10.941,37.313 10.941,4.328 7.46,2.322 7.287,35.339 10.941,37.458 10.941,37.313 10.857,37.313 	"/>
</g>
<g>
	<path fill="#030406" d="M10.857,0.186l-0.235,0.142l-3.15,1.825l-0.243,0.14v0.281l0.01,32.622v0.279l0.24,0.146l3.145,1.811
		l0.234,0.142l0.241-0.142l2.903-1.672l2.903,1.672l0.234,0.142l0.24-0.142l9.426-5.442l0.241-0.139v-0.279V20.699v-0.284
		l-0.241-0.139l-9.426-5.438l-0.716-0.42v0.829v2.796l-2.181-1.251V2.561V2.28l-0.241-0.14l-3.144-1.813L10.857,0.186L10.857,0.186z
		 M10.857,0.738l3.145,1.823V17.06l3.138,1.811v-3.624l9.426,5.452v10.872l-9.426,5.45l-3.138-1.826l-3.145,1.826L7.72,35.195
		L7.707,2.573L10.857,0.738"/>
</g>
<g>
	<path fill="#030406" d="M10.857,0l-0.319,0.188L7.385,2.021L7.067,2.2v0.374l0.014,32.622v0.374l0.319,0.19l3.138,1.813
		l0.319,0.188l0.319-0.188l2.825-1.64l2.817,1.64l0.32,0.188l0.323-0.188l9.422-5.44l0.319-0.188v-0.374V20.699v-0.376l-0.319-0.188
		l-9.422-5.435l-0.963-0.55v1.097v2.527l-1.859-1.078V2.561V2.187l-0.321-0.188l-3.143-1.811L10.857,0L10.857,0z M10.857,0.738
		l3.145,1.823V17.06l3.138,1.811v-3.624l9.426,5.452v10.872l-9.426,5.45l-3.138-1.826l-3.145,1.826L7.72,35.195L7.707,2.573
		L10.857,0.738"/>
</g>
<g>
	<polygon fill="#FFFFFF" points="122.731,26.82 120.093,26.82 120.093,10.985 122.743,10.985 128.011,21.114 128.011,10.985 
		130.649,10.985 130.649,26.82 128.003,26.82 122.731,16.691 	"/>
</g>
<g>
	<path fill="#FFFFFF" d="M109.534,26.82h-2.639V10.985h5.279c2.91,0,5.278,2.363,5.278,5.278s-2.368,5.278-5.278,5.278h-2.641
		v-2.639h2.641c1.455,0,2.64-1.183,2.64-2.639c0-1.459-1.185-2.639-2.64-2.639h-2.641V26.82z"/>
</g>
<g>
	
		<rect x="109.941" y="22.2" transform="matrix(0.3714 0.9285 -0.9285 0.3714 93.1754 -90.5907)" fill="#FFFFFF" width="7.107" height="2.641"/>
</g>
<g>
	<path fill="#FFFFFF" d="M98.977,26.82c-2.911,0-5.278-2.363-5.278-5.279v-5.278c0-2.916,2.367-5.278,5.278-5.278
		s5.278,2.363,5.278,5.278v5.278C104.255,24.457,101.888,26.82,98.977,26.82z M98.977,13.624c-1.452,0-2.64,1.18-2.64,2.639v5.278
		c0,1.457,1.188,2.64,2.64,2.64c1.457,0,2.639-1.183,2.639-2.64v-5.278C101.615,14.804,100.434,13.624,98.977,13.624z"/>
</g>
<g>
	<polygon fill="#FFFFFF" points="89.521,26.82 86.818,26.82 85.12,18.644 83.424,26.82 80.719,26.82 77.885,11.222 80.479,10.745 
		82.156,19.943 84.016,10.985 86.229,10.985 88.09,19.943 89.761,10.745 92.357,11.222 	"/>
</g>
<g>
	<path fill="#FFFFFF" d="M73.243,26.82c-0.98,0-1.92-0.357-2.648-1.019l1.766-1.96c0.243,0.225,0.559,0.34,0.883,0.34
		c0.729,0,1.32-0.592,1.32-1.32c0-0.376,0-0.484-0.538-1.08l-0.005-0.005l-3.512-3.981c-0.844-0.863-1.225-1.745-1.225-2.852
		c0-2.188,1.777-3.959,3.959-3.959c0.98,0,1.924,0.354,2.652,1.019l-1.77,1.96c-0.242-0.225-0.555-0.34-0.883-0.34
		c-0.728,0-1.319,0.589-1.319,1.32c0,0.349,0.075,0.604,0.496,1.034l0.044,0.051l3.534,3.995c0.781,0.875,1.204,1.582,1.204,2.837
		C77.202,25.048,75.427,26.82,73.243,26.82z"/>
</g>
<g>
	<polygon fill="#FFFFFF" points="59.386,26.82 56.746,26.82 56.746,10.985 59.397,10.985 64.664,21.114 64.664,10.985 
		67.304,10.985 67.304,26.82 64.658,26.82 59.386,16.691 	"/>
</g>
<g>
	<path fill="#FFFFFF" d="M48.829,26.82c-2.91,0-5.279-2.363-5.279-5.279V10.985h2.64v10.557c0,1.457,1.185,2.64,2.64,2.64
		c1.457,0,2.639-1.183,2.639-2.64V10.985h2.64v10.557C54.107,24.457,51.738,26.82,48.829,26.82z"/>
</g>
<g>
	<path fill="#FFFFFF" d="M91.719,45.295c-0.98,0-1.921-0.354-2.647-1.019l1.765-1.96c0.243,0.225,0.558,0.34,0.883,0.34
		c0.728,0,1.319-0.591,1.319-1.32c0-0.374,0-0.484-0.536-1.08l-0.005-0.005l-3.512-3.966c-0.845-0.875-1.226-1.759-1.226-2.866
		c0-2.188,1.778-3.959,3.959-3.959c0.98,0,1.923,0.357,2.651,1.019l-1.769,1.96c-0.242-0.225-0.556-0.34-0.883-0.34
		c-0.727,0-1.32,0.591-1.32,1.32c0,0.349,0.077,0.604,0.496,1.036l0.048,0.049l3.53,3.996c0.782,0.877,1.204,1.581,1.204,2.837
		C95.677,43.523,93.903,45.295,91.719,45.295z"/>
</g>
<g>
	<rect x="126.69" y="37.377" fill="#FFFFFF" width="3.959" height="2.64"/>
</g>
<g>
	<polygon fill="#FFFFFF" points="133.291,45.295 125.371,45.295 125.371,29.459 130.649,29.459 130.649,32.099 128.011,32.099 
		128.011,42.656 133.291,42.656 	"/>
</g>
<g>
	<rect x="120.093" y="29.459" fill="#FFFFFF" width="2.639" height="15.835"/>
</g>
<g>
	<path fill="#FFFFFF" d="M109.534,45.295h-2.639V29.459h5.279c2.91,0,5.278,2.363,5.278,5.278c0,2.916-2.368,5.279-5.278,5.279
		h-2.641v-2.64h2.641c1.455,0,2.64-1.18,2.64-2.639c0-1.457-1.185-2.639-2.64-2.639h-2.641V45.295z"/>
</g>
<g>
	
		<rect x="109.941" y="40.677" transform="matrix(0.3714 0.9285 -0.9285 0.3714 110.3306 -78.9768)" fill="#FFFFFF" width="7.107" height="2.641"/>
</g>
<g>
	<rect x="96.337" y="29.459" fill="#FFFFFF" width="7.918" height="2.639"/>
</g>
<g>
	<rect x="98.977" y="30.779" fill="#FFFFFF" width="2.639" height="14.516"/>
</g>
<g>
	<path fill="#FFFFFF" d="M137.909,45.295c-0.98,0-1.921-0.354-2.649-1.019l1.767-1.96c0.241,0.225,0.557,0.34,0.883,0.34
		c0.727,0,1.319-0.591,1.319-1.32c0-0.374,0-0.484-0.536-1.08l-0.005-0.005l-3.512-3.966c-0.849-0.875-1.226-1.759-1.226-2.866
		c0-2.188,1.776-3.959,3.959-3.959c0.98,0,1.922,0.357,2.648,1.019l-1.766,1.96c-0.242-0.225-0.556-0.34-0.883-0.34
		c-0.728,0-1.32,0.591-1.32,1.32c0,0.349,0.077,0.604,0.496,1.036l0.046,0.049l3.531,3.996c0.781,0.877,1.207,1.581,1.207,2.837
		C141.869,43.523,140.093,45.295,137.909,45.295z"/>
</g>
<g>
	<path fill="#FFFFFF" d="M80.502,45.295c-2.911,0-5.279-2.363-5.279-5.278V29.459h2.64v10.557c0,1.459,1.186,2.639,2.64,2.639
		c1.456,0,2.639-1.18,2.639-2.639V29.459h2.64v10.557C85.78,42.932,83.412,45.295,80.502,45.295z"/>
</g>
<g>
	<path fill="#FFFFFF" stroke="#000000" stroke-width="70.9341" stroke-miterlimit="10" d="M67.304,30.779"/>
</g>
<g>
	<path fill="#FFFFFF" stroke="#000000" stroke-width="70.9341" stroke-miterlimit="10" d="M63.345,34.738"/>
</g>
<g>
	<path fill="#FFFFFF" stroke="#000000" stroke-width="70.9341" stroke-miterlimit="10" d="M63.345,40.017"/>
</g>
<g>
	<path fill="#FFFFFF" stroke="#000000" stroke-width="70.9341" stroke-miterlimit="10" d="M67.304,43.975"/>
</g>
<g>
	<path fill="#FFFFFF" d="M67.304,45.295h-5.278V29.459h5.278c2.91,0,5.28,2.363,5.28,5.278v5.279
		C72.584,42.932,70.214,45.295,67.304,45.295z M64.664,42.656h2.64c1.459,0,2.641-1.18,2.641-2.639v-5.279
		c0-1.457-1.182-2.639-2.641-2.639h-2.64v7.918V42.656z"/>
</g>
<g>
	<polygon fill="#FFFFFF" points="59.386,45.295 56.739,45.295 51.468,35.166 51.468,45.295 48.829,45.295 48.829,29.459 
		51.479,29.459 56.746,39.589 56.746,29.459 59.386,29.459 	"/>
</g>
<g>
	<rect x="43.55" y="29.459" fill="#FFFFFF" width="2.64" height="15.835"/>
</g>
</svg>
