<?xml version="1.0" encoding="utf-8"?>
<!-- Generator: Adobe Illustrator 16.0.0, SVG Export Plug-In . SVG Version: 6.00 Build 0)  -->
<!DOCTYPE svg PUBLIC "-//W3C//DTD SVG 1.1//EN" "http://www.w3.org/Graphics/SVG/1.1/DTD/svg11.dtd">
<svg version="1.1" id="Layer_1" xmlns="http://www.w3.org/2000/svg" xmlns:xlink="http://www.w3.org/1999/xlink" x="0px" y="0px"
	 width="600px" height="168px" viewBox="0 0 600 168" enable-background="new 0 0 600 168" xml:space="preserve">
<g>
	<path fill="#FFFFFF" d="M80.506,67.187c-2.754-2.649-5.877-5.029-9.368-7.134c-3.491-2.105-7.07-4.084-10.736-5.928
		c-3.666-1.848-7.241-3.639-10.732-5.375c-3.491-1.739-6.613-3.572-9.368-5.505c-2.754-1.935-4.967-4.03-6.636-6.288
		c-1.669-2.258-2.504-4.822-2.504-7.687c0-1.696,0.463-3.41,1.396-5.15c0.933-1.737,2.365-3.311,4.293-4.724
		c1.93-1.412,4.339-2.563,7.223-3.454c2.885-0.891,6.277-1.336,10.18-1.336c3.522,0,6.763,0.283,9.721,0.846
		c2.957,0.565,5.489,1.412,7.6,2.538c2.107,1.129,3.76,2.529,4.957,4.199c1.197,1.672,1.793,3.613,1.793,5.827
		c0,1.431-0.283,2.983-0.854,4.653c-0.568,1.67-1.444,3.46-2.627,5.369c-1.27,1.998-2.167,3.767-2.691,5.306
		c-0.527,1.542-0.787,2.875-0.787,4.004c0,1.517,0.409,2.66,1.234,3.416c0.825,0.761,1.888,1.139,3.189,1.139
		c1.733,0,3.675-0.661,5.82-1.988c2.148-1.326,4.131-3.358,5.953-6.097c1.867-2.825,3.221-5.541,4.065-8.149
		c0.847-2.608,1.27-5.152,1.27-7.63c0-4.173-1.032-7.974-3.091-11.409c-2.059-3.435-4.779-6.39-8.162-8.868
		c-3.383-2.478-7.232-4.389-11.548-5.738C65.781,0.674,61.368,0,56.858,0c-7.103,0-13.294,0.872-18.578,2.614
		c-5.283,1.743-9.688,4.017-13.217,6.826c-3.529,2.809-6.172,5.989-7.924,9.539c-1.755,3.549-2.631,7.153-2.631,10.811
		c0,3.909,0.831,7.395,2.497,10.458c1.663,3.06,3.872,5.83,6.617,8.308c2.745,2.474,5.871,4.746,9.375,6.806
		c3.503,2.064,7.076,4.03,10.719,5.897c3.643,1.867,7.223,3.715,10.736,5.54c3.513,1.823,6.645,3.766,9.399,5.83
		c2.755,2.065,4.966,4.31,6.636,6.743c1.67,2.433,2.504,5.19,2.504,8.276c0,3.346-0.933,6.31-2.796,8.893
		c-1.865,2.586-4.293,4.768-7.286,6.55c-2.993,1.78-6.375,3.125-10.148,4.039c-3.773,0.913-7.546,1.368-11.32,1.368
		c-3.202,0-6.296-0.347-9.279-1.043c-2.986-0.694-5.624-1.759-7.917-3.193c-2.292-1.436-4.129-3.26-5.516-5.478
		c-1.384-2.217-2.075-4.848-2.075-7.891c0-1.391,0.085-2.671,0.251-3.845c0.168-1.173,0.342-2.251,0.529-3.229
		c0.188-0.979,0.365-1.88,0.53-2.707c0.168-0.824,0.25-1.606,0.25-2.347c0-1.607-0.466-2.792-1.399-3.553
		c-0.933-0.759-2.091-1.141-3.478-1.141c-1.346,0-2.799,0.359-4.36,1.075c-1.562,0.719-3.002,1.784-4.326,3.196
		c-1.323,1.412-2.431,3.175-3.319,5.28C0.444,85.733,0,88.176,0,90.958c0,5.392,1.203,10.096,3.611,14.116
		c2.405,4.02,5.604,7.366,9.596,10.041c3.989,2.672,8.543,4.673,13.662,6c5.116,1.326,10.387,1.988,15.807,1.988
		c3.859,0,7.699-0.337,11.517-1.009c3.814-0.674,7.457-1.663,10.929-2.967c3.469-1.304,6.699-2.955,9.692-4.953
		c2.992-1.998,5.585-4.3,7.774-6.908c2.19-2.608,3.914-5.551,5.173-8.833c1.257-3.28,1.885-6.877,1.885-10.786
		c0-4.3-0.834-8.123-2.504-11.469C85.473,72.836,83.261,69.836,80.506,67.187z"/>
	<path fill="#FFFFFF" d="M599.925,88.329c-1.485,1.418-3.295,2.923-5.427,4.507c-2.133,1.586-4.398,3.05-6.797,4.395
		c-2.399,1.342-4.865,2.462-7.396,3.359c-2.533,0.897-4.942,1.342-7.227,1.342c-0.727,0-1.406-0.073-2.035-0.223
		c-0.631-0.149-1.234-0.41-1.807-0.782c-0.573-0.375-1.138-0.897-1.691-1.568c-0.555-0.671-1.119-1.514-1.691-2.519
		c3.32-0.897,6.402-2.148,9.245-3.753c2.843-1.603,5.294-3.432,7.354-5.486c2.062-2.052,3.863-4.513,5.412-7.389
		c1.545-2.872,2.317-5.468,2.317-7.78c0-2.172-0.382-4.138-1.144-5.89c-0.764-1.752-1.822-3.251-3.174-4.488
		c-1.354-1.24-2.947-2.202-4.776-2.888c-1.829-0.687-3.812-1.031-5.946-1.031c-2.613,0-4.991,0.461-7.131,1.387
		c-2.14,0.922-4.072,2.167-5.795,3.728c-1.723,1.565-3.229,3.372-4.518,5.426c-1.287,2.052-2.357,4.208-3.208,6.47
		c-0.854,2.258-1.678,4.85-2.472,7.77c-0.797,2.919-1.193,5.432-1.193,7.542c0,1.411,0.101,2.79,0.271,4.145
		c-1.454,1.009-2.966,1.95-4.446,2.808c-1.58,0.916-3.115,1.708-4.544,2.375c-1.431,0.668-2.759,1.193-3.962,1.575
		c-1.199,0.382-2.206,0.573-3.006,0.573c-1.302,0-2.48-0.201-3.533-0.601c-1.049-0.401-1.94-1.05-2.666-1.947
		c-0.728-0.896-1.284-2.051-1.664-3.463c-0.385-1.413-0.574-3.149-0.574-5.21c0-0.802,0.009-1.679,0.027-2.633
		c0.019-0.955,0.047-1.947,0.086-2.978c0.037-1.031,0.075-2.071,0.114-3.12c0.037-1.049,0.075-2.07,0.114-3.062
		c0.113-2.29,0.247-4.619,0.398-6.984c0.956-1.183,2-2.51,3.127-3.979c1.129-1.47,2.25-2.968,3.357-4.495
		c0,0,0.055-0.079,0.148-0.216c9.213,0.307,15.737,0.493,15.737,0.493c1.435,0.009,2.913,0.08,4.116-0.846
		c1.199-0.924,1.645-2.659,1.653-4.141c0.01-1.284-0.254-2.347-0.787-3.19c-0.53-0.845-1.394-1.293-2.587-1.346
		c-1.012-0.046-6.229-0.516-8.019-0.566c-1.399-0.041-2.424-0.104-3.715-0.15c1.303-2.034,2.549-4.083,3.731-6.151
		c1.236-2.163,2.316-4.3,3.23-6.412c0.914-2.109,1.637-4.18,2.17-6.215c0.533-2.036,0.799-3.967,0.799-5.799
		c0-2.21-0.256-4.335-0.771-6.377c-0.514-2.039-1.247-3.823-2.198-5.346c-0.956-1.527-2.108-2.745-3.46-3.661
		c-1.355-0.917-2.85-1.375-4.487-1.375c-2.548,0-4.979,1.133-7.299,3.397c-2.319,2.268-4.459,5.273-6.414,9.02
		c-1.957,3.75-3.725,8.031-5.305,12.846c-1.277,3.897-2.374,10.038-3.289,14.963l-14.972-0.75l-1.992-0.043
		c0.872-1.409,1.727-2.824,2.542-4.25c1.237-2.163,2.316-4.3,3.229-6.412c0.914-2.109,1.639-4.18,2.172-6.215
		c0.532-2.036,0.799-3.967,0.799-5.799c0-2.21-0.257-4.335-0.771-6.377c-0.516-2.039-1.248-3.823-2.2-5.346
		c-0.955-1.527-2.106-2.745-3.458-3.661c-1.355-0.917-2.851-1.375-4.487-1.375c-2.549,0-4.979,1.133-7.299,3.397
		c-2.32,2.268-4.46,5.273-6.414,9.02c-1.958,3.75-3.726,8.031-5.306,12.846c-1.478,4.507-2.703,9.166-3.695,13.961
		c-0.562,0.007-1.05,0.011-1.398,0.012c-2.189,0.006-4.816,0.319-6.648,0.474c-1.83,0.153-3.328,0.391-4.503,0.713
		c-1.171,0.321-1.608,0.917-1.761,1.421c-0.117,0.38,0.021,0.875,0.079,1.429c0.058,0.552,0.264,1.086,0.619,1.596
		c0.358,0.511,0.926,0.958,1.704,1.338c0.777,0.381,1.888,0.644,3.325,0.785c3.06,0.271,5.428,0.496,7.123,0.679
		c-0.527,3.938-1.032,8.217-1.128,9.523c-0.188,2.595-0.283,5.039-0.283,7.328c0,4.281,0.201,8.24,0.593,11.894
		c-1.436,1.346-3.146,2.766-5.155,4.258c-2.133,1.586-4.398,3.05-6.798,4.395c-2.399,1.342-4.864,2.462-7.397,3.359
		c-2.532,0.897-4.94,1.342-7.225,1.342c-0.728,0-1.406-0.073-2.038-0.223c-0.629-0.149-1.231-0.41-1.806-0.782
		c-0.572-0.375-1.136-0.897-1.692-1.568c-0.552-0.671-1.116-1.514-1.69-2.519c3.322-0.897,6.404-2.148,9.246-3.753
		c2.841-1.603,5.294-3.432,7.354-5.486c2.062-2.052,3.865-4.513,5.41-7.389c1.546-2.872,2.321-5.468,2.321-7.78
		c0-2.172-0.385-4.138-1.146-5.89c-0.762-1.752-1.822-3.251-3.173-4.488c-1.353-1.24-2.946-2.202-4.776-2.888
		c-1.828-0.687-3.812-1.031-5.946-1.031c-2.612,0-4.989,0.461-7.129,1.387c-2.142,0.922-4.073,2.167-5.797,3.728
		c-1.724,1.565-3.229,3.372-4.517,5.426c-1.288,2.052-2.356,4.208-3.209,6.47c-0.853,2.258-1.678,4.85-2.471,7.77
		c-0.797,2.919-1.194,5.432-1.194,7.542c0,1.554,0.109,3.072,0.315,4.558c-0.457,0.312-0.913,0.625-1.362,0.92
		c-1.054,0.693-2.148,1.374-3.278,2.048c-1.129,0.674-2.23,1.271-3.303,1.791c-1.073,0.518-2.088,0.932-3.043,1.24
		c-0.956,0.309-1.803,0.461-2.542,0.461c-0.309,0-0.632-0.22-0.975-0.662c-0.346-0.442-0.67-1.04-0.975-1.791
		c-0.308-0.751-0.566-1.6-0.775-2.541c-0.21-0.942-0.316-1.916-0.316-2.917v-0.807c0-0.771,0.269-1.559,0.458-2.367
		c0.194-0.809,0.386-1.569,0.576-2.281c0.189-0.712,0.39-1.374,0.601-1.991c0.213-0.617,0.413-1.116,0.603-1.501
		c1.759-3.464,3.675-7.01,5.753-10.636c2.08-3.626,4.148-7.312,6.209-11.056c2.059-3.74,4.035-7.512,5.938-11.311
		c1.898-3.801,3.572-7.592,5.02-11.371c1.444-3.782,2.592-7.542,3.443-11.285c0.853-3.74,1.279-7.417,1.279-11.024
		c0-1.454-0.135-2.878-0.4-4.281c-0.267-1.399-0.73-2.652-1.384-3.762c-0.657-1.104-1.562-1.998-2.707-2.672
		c-1.148-0.674-2.605-1.011-4.369-1.011c-2.422,0-4.809,0.696-7.153,2.089c-2.348,1.39-4.599,3.305-6.75,5.741
		c-2.154,2.437-4.211,5.293-6.176,8.569c-1.961,3.279-3.775,6.803-5.451,10.575c-1.673,3.775-3.342,8.785-5.005,15.032
		c-1.663,6.247-2.494,9.367-2.494,9.367s-0.55,3.126-1.647,9.379c-1.098,6.253-1.647,11.253-1.647,15c0,3.395,0.23,6.667,0.68,9.823
		c-0.899,1.096-1.795,2.135-2.686,3.11c-0.799,0.871-1.646,1.711-2.542,2.525c-0.895,0.814-1.79,1.542-2.684,2.185
		c-0.896,0.645-1.781,1.165-2.656,1.561c-0.875,0.398-1.714,0.595-2.514,0.595c-1.066,0-1.762-0.492-2.084-1.479
		c-0.324-0.986-0.486-2.354-0.486-4.1c0-2.048,0.314-4.564,0.942-7.555c0.629-2.985,1.19-5.645,1.683-7.98
		c0.488-2.331,0.927-4.611,1.307-6.835c0.381-2.222,0.57-4.246,0.57-6.072c0-1.195-0.104-2.14-0.313-2.833
		c-0.209-0.697-0.558-1.189-0.888-1.623c-3.534-4.663-12.906-5.264-13.789-5.264c-2.645,0-5.239,0.562-7.787,1.686
		c-2.546,1.12-4.971,2.633-7.268,4.532c-2.3,1.901-4.413,4.129-6.35,6.676c-1.937,2.548-3.745,5.573-5.43,9.071
		c-1.686,3.499-2.932,6.752-3.735,9.755c-0.608,2.268-0.983,4.492-1.132,6.672c-1.661,1.225-3.433,2.362-5.311,3.483
		c-2.386,1.425-4.875,2.443-8.479,3.003c-3.203,0.498-11.092-0.299-11.092-0.299c3.422-1.476,6.376-3.148,8.866-5.016
		c2.489-1.864,4.637-3.868,6.442-6.011c1.806-2.145,3.278-4.676,4.42-7.595c0.76-1.957,1.141-4.673,1.141-8.146
		c0-3.267-0.438-6.024-1.312-8.273c-0.876-2.245-2.075-4.081-3.596-5.502c-1.52-1.422-3.29-2.449-5.305-3.085
		c-2.017-0.633-4.184-0.951-6.504-0.951c-3.201,0-5.937,0.569-8.203,1.705c-2.265,1.138-4.207,2.671-5.826,4.605
		c-1.622,1.931-3.145,4.5-4.57,7.7c-1.425,3.203-2.482,6.263-3.164,9.179c-0.544,2.327-0.992,4.699-1.385,7.098l-0.046-0.212
		c-2.514,3.623-4.779,6.645-6.798,9.068c-2.019,2.42-3.847,4.43-5.483,6.034c-1.638,1.6-3.126,2.878-4.466,3.833
		c-1.335,0.955-2.583,1.753-3.741,2.402c1.003-6.508,1.987-12.596,2.951-18.261c0.426-2.398,0.98-5.566,1.666-9.504
		c0.683-3.94,1.212-7,1.593-9.185c0.382-2.182,0.721-4.128,1.019-5.839c0.299-1.715,0.537-3.079,0.717-4.093
		c0.115-0.458,0.172-0.859,0.172-1.206c0-1.107-0.403-1.918-1.203-2.433c-0.803-0.516-1.793-0.777-2.974-0.777
		c-0.993,0-2.043,0.172-3.147,0.516c-1.108,0.343-2.175,0.868-3.205,1.574c-1.029,0.706-1.926,1.556-2.688,2.551
		c-0.803,1.03-1.336,2.175-1.603,3.435l-4.576,21.409c-0.152,1.23-0.485,2.771-1,4.615c-0.514,1.845-1.189,3.632-2.027,5.359
		c-0.838,1.73-1.828,3.213-2.97,4.44c-1.143,1.23-2.418,1.844-3.828,1.844c-0.876,0-1.599-0.223-2.17-0.665
		c-0.571-0.445-1.028-1.021-1.371-1.736c-0.344-0.712-0.582-1.523-0.715-2.43c-0.133-0.907-0.2-1.841-0.2-2.806
		c0-1.852,0.225-3.96,0.679-6.323c0.451-2.363,1.063-5.56,1.835-9.596c0.771-4.033,1.387-7.258,1.85-9.678
		c0.46-2.42,1.028-4.507,1.701-6.266c0.225-0.573,0.384-1.107,0.479-1.603c0.092-0.497,0.139-0.955,0.139-1.374
		c0-1.413-0.476-2.452-1.429-3.12c-0.951-0.671-2.094-1.006-3.426-1.006c-1.561,0-3.158,0.449-4.796,1.346
		c-1.637,0.897-2.894,2.205-3.77,3.922c-1.176,2.408-2.224,4.784-3.138,7.131c-0.914,2.347-1.704,5.553-2.374,9.618
		c-0.322,1.958-0.62,3.761-0.893,5.417c-1.435,0.483-2.835,0.734-4.197,0.734c-0.609,0-1.189-0.115-1.743-0.344
		c-0.551-0.229-1.047-0.62-1.485-1.173c-0.438-0.553-0.79-1.289-1.056-2.204c-0.267-0.916-0.4-2.061-0.4-3.435
		c0-0.801,0.095-1.804,0.286-3.005c0.189-1.203,0.494-2.738,0.914-4.609c0.419-1.87,0.723-3.387,0.914-4.551
		c0.19-1.165,0.286-2.071,0.286-2.72c0-0.84-0.153-1.593-0.458-2.261c-0.304-0.668-0.714-1.231-1.228-1.689
		c-0.514-0.458-1.113-0.811-1.799-1.059c-0.685-0.248-1.39-0.372-2.113-0.372c-2.094,0-3.941,0.562-5.54,1.688
		c-1.601,1.126-3.028,2.51-4.285,4.151c-1.256,1.641-2.456,3.675-3.598,6.155c-1.142,2.481-2.095,3.984-2.856,5.984h-0.628
		c-0.076-2-0.019-4.19,0.171-6.785c0.19-2.596,0.286-4.586,0.286-5.998c0-1.183-0.028-2.111-0.086-2.798
		c-0.057-0.687-0.219-1.208-0.485-1.571c-0.267-0.363-0.675-0.59-1.228-0.686c-0.552-0.096-1.323-0.142-2.314-0.142
		c-0.875,0-1.608,0.047-2.199,0.143c-0.59,0.096-1.085,0.287-1.485,0.573c-0.4,0.287-0.752,0.677-1.056,1.174
		c-0.305,0.496-0.609,1.165-0.915,2.004c-0.495,1.26-0.99,2.863-1.485,4.81c-0.385,1.513-0.829,3.329-1.329,5.43
		c-0.078-0.093-0.152-0.184-0.229-0.277c-2.381-2.863-4.951-5.238-7.712-7.128c-2.76-1.889-5.722-3.397-8.882-4.523
		c-3.161-1.126-6.55-1.689-10.167-1.689c-4.227,0-8.036,0.773-11.425,2.319s-6.255,3.664-8.597,6.355
		c-2.342,2.691-4.142,5.858-5.398,9.503c-1.257,3.645-1.885,7.987-1.885,13.025c0,1.151,0.066,2.295,0.167,3.436
		c-0.549,0.415-1.097,0.831-1.665,1.23c-1.542,1.088-3.107,2.09-4.688,3.006c-1.58,0.916-3.088,1.708-4.516,2.375
		c-1.431,0.668-2.745,1.193-3.948,1.575c-1.199,0.382-2.199,0.573-2.999,0.573c-1.301,0-2.479-0.201-3.529-0.601
		c-1.051-0.401-1.939-1.05-2.666-1.947c-0.727-0.896-1.282-2.051-1.663-3.463c-0.384-1.413-0.574-3.149-0.574-5.21
		c0-0.802,0.01-1.679,0.029-2.633c0.019-0.955,0.047-1.947,0.085-2.978c0.039-1.031,0.077-2.071,0.114-3.12
		c0.039-1.049,0.077-2.07,0.115-3.062c0.114-2.29,0.248-4.619,0.4-6.984c0.955-1.183,1.999-2.51,3.126-3.979
		c1.129-1.47,2.25-2.968,3.357-4.495c0,0,0.35-0.51,0.882-1.292l19.228,1.03c1.434,0.01,2.913,0.079,4.116-0.846
		c1.2-0.925,1.644-2.66,1.654-4.141c0.009-1.284-0.254-2.347-0.788-3.191c-0.53-0.844-1.393-1.292-2.586-1.345
		c-1.013-0.047-6.229-0.516-8.02-0.566c-1.79-0.052-2.96-0.142-4.872-0.185c-0.75-0.018-1.685-0.061-2.64-0.109
		c1.146-1.81,2.254-3.631,3.304-5.468c1.238-2.163,2.316-4.3,3.23-6.412c0.914-2.109,1.638-4.18,2.171-6.215
		c0.533-2.036,0.8-3.967,0.8-5.799c0-2.21-0.257-4.335-0.771-6.377c-0.514-2.039-1.247-3.823-2.199-5.346
		c-0.955-1.527-2.107-2.745-3.459-3.661c-1.354-0.917-2.85-1.375-4.487-1.375c-2.548,0-4.979,1.133-7.298,3.397
		c-2.32,2.268-4.459,5.273-6.414,9.02c-1.958,3.75-3.726,8.031-5.306,12.846c-1.532,4.673-2.798,9.505-3.809,14.487
		c-1.982,0.029-4.015,0.055-4.792,0.057c-2.189,0.006-4.817,0.319-6.648,0.474c-1.831,0.153-3.329,0.39-4.503,0.712
		c-1.171,0.321-1.608,0.917-1.761,1.422c-0.117,0.38,0.022,0.875,0.08,1.428c0.057,0.552,0.263,1.086,0.619,1.597
		c0.358,0.51,0.926,0.957,1.704,1.337c0.778,0.381,1.888,0.644,3.325,0.786c3.244,0.286,5.719,0.523,7.43,0.712
		c0.191,0.021,1.284,0.17,3.07,0.377c-0.478,3.643-0.91,7.343-0.998,8.541c-0.188,2.595-0.283,5.039-0.283,7.328
		c0,5.877,0.368,11.164,1.107,15.859c0.74,4.694,1.847,8.693,3.323,11.994c1.479,3.301,3.315,5.83,5.512,7.585
		c2.196,1.757,4.735,2.635,7.613,2.635c1.412,0,2.983-0.267,4.719-0.802c1.736-0.534,3.719-1.335,5.95-2.404
		c2.228-1.069,4.775-2.404,7.635-4.007c1.819-1.02,3.82-2.16,5.963-3.396c0.438,0.918,0.909,1.812,1.45,2.652
		c1.523,2.366,3.475,4.284,5.855,5.754c2.38,1.469,5.246,2.204,8.597,2.204c2.323,0,4.513-0.401,6.569-1.203
		c2.056-0.801,3.951-1.889,5.684-3.263c1.732-1.375,3.275-2.996,4.626-4.867c1.352-1.87,2.495-3.874,3.427-6.012
		c0.933-2.137,1.647-4.351,2.142-6.64c0.496-2.291,0.743-4.562,0.743-6.813c0-3.091-0.276-5.868-0.829-8.33
		c-0.551-2.461-1.38-4.799-2.484-7.013l0.457-0.629c1.371,0.916,3.008,2.052,4.913,3.406c1.903,1.355,3.837,3.006,5.797,4.953
		c0.866,0.859,1.708,1.679,2.532,2.471c-0.089,0.487-0.179,0.975-0.26,1.451c-0.438,2.576-0.818,5.104-1.143,7.586
		c-0.323,2.481-0.58,4.837-0.771,7.07c-0.191,2.233-0.286,4.189-0.286,5.869c0,1.526,0.085,3.006,0.257,4.437
		c0.171,1.431,0.514,2.71,1.028,3.836s1.247,2.023,2.199,2.69c0.953,0.668,2.209,1.002,3.77,1.002c0.686,0,1.314-0.125,1.885-0.373
		c0.571-0.248,1.105-0.677,1.6-1.288c0.495-0.61,0.98-1.403,1.457-2.376c0.476-0.973,0.98-2.434,1.513-3.922L210.887,78h0.914
		c0.305,3,0.704,5.011,1.2,7.358c0.495,2.347,1.256,4.581,2.284,6.469c1.029,1.89,2.418,3.474,4.17,4.638
		c1.751,1.164,4.056,1.774,6.912,1.774c1.548,0,3.068-0.213,4.563-0.66c-0.005,0.36-0.019,0.716-0.019,1.083
		c0,2.519,0.4,4.784,1.2,6.788c0.799,2.003,1.866,3.704,3.199,5.097c1.333,1.393,2.865,2.463,4.598,3.207
		c1.732,0.745,3.512,1.117,5.341,1.117c2.095,0,4.255-0.556,6.483-1.67c2.228-1.116,4.37-2.578,6.426-4.391l-1.256,6.92
		c-2.399,2.097-4.465,4.06-6.197,5.892c-1.733,1.829-3.933,4.249-6.599,7.261c-1.333,1.451-2.608,3.069-3.827,4.864
		c-1.219,1.828-2.114,3.23-2.685,4.201c-0.571,0.973-1.562,2.716-2.97,5.235c-2.513,4.498-3.618,8.766-3.313,12.808
		c0.152,2.138,0.663,3.996,1.539,5.577c0.873,1.583,1.996,2.83,3.364,3.747c1.367,0.916,2.878,1.593,4.531,2.032
		c1.653,0.436,3.45,0.656,5.386,0.656c2.396,0,4.598-0.381,6.614-1.145c2.015-0.764,3.735-1.766,5.16-3.005
		c1.425-1.241,2.726-2.742,3.907-4.498c1.177-1.756,2.125-3.521,2.85-5.297c0.72-1.777,1.348-3.723,1.882-5.842
		c0.53-2.117,0.9-4.004,1.11-5.655c0.206-1.651,0.426-3.389,0.661-5.21c0.054-0.76,0.19-1.842,0.41-3.248
		c0.501-4.92,0.942-8.289,1.33-10.102c0.384-1.81,1.098-3.06,2.142-3.746c4.282-2.863,6.801-4.619,7.562-5.268
		c0.697-0.555,1.299-1.033,1.823-1.448c-0.135,0.255-0.281,0.516-0.414,0.771c-1.104,2.125-2.18,4.319-3.227,6.582
		c-1.047,2.26-1.903,4.521-2.828,6.669c-2.012,4.673-2.652,10.045-2.742,11.625c-0.59,10.452,1.339,15.235,5.827,18.502
		c1.459,1.061,3.256,1.613,5.426,1.613c2.786,0,5.474-1.092,8.061-3.277c2.589-2.185,4.884-5.29,6.884-9.313
		c2.001-4.023,3.507-8.879,4.705-14.573c1.196-5.69,1.698-12.023,1.698-18.999v-1.037c3,0.496,5.736,0.916,7.577,1.266
		c1.841,0.353,3.287,0.722,4.286,0.837c4.428,0.502,7.03,0.37,9.811-0.452c2.264-0.671,4.438-1.568,6.495-2.688
		c1.69-0.92,3.271-1.972,4.743-3.141c0.569,0.952,1.215,1.82,1.943,2.587c1.334,1.405,2.865,2.483,4.6,3.235
		c1.73,0.75,3.512,1.125,5.341,1.125c1.726,0,3.453-0.282,5.183-0.849c1.727-0.566,3.387-1.295,4.979-2.182s3.062-1.88,4.404-2.974
		c1.346-1.094,2.478-2.173,3.399-3.229c1.228,3.06,2.688,5.391,4.377,6.998c1.687,1.606,3.797,2.407,6.327,2.407
		c2.094,0,4.188-0.519,6.283-1.561c2.095-1.043,4.055-2.315,5.884-3.823c1.827-1.504,3.475-3.084,4.94-4.746
		c0.315-0.358,0.611-0.7,0.899-1.039c0.137,0.339,0.263,0.695,0.405,1.022c1.307,3.007,2.844,5.401,4.607,7.186
		c1.764,1.784,3.671,2.675,5.721,2.675c1.333,0,2.766-0.172,4.295-0.516c1.525-0.347,3.097-0.808,4.702-1.39
		c1.609-0.579,3.209-1.24,4.796-1.985c1.591-0.744,3.129-1.499,4.62-2.262c1.138-0.605,2.282-1.25,3.43-1.912
		c0.182,0.249,0.348,0.51,0.54,0.752c1.777,2.232,3.999,4.01,6.665,5.331c2.668,1.323,5.778,1.981,9.336,1.981
		c2.285,0,4.543-0.264,6.771-0.796c2.228-0.531,4.38-1.237,6.455-2.121c2.076-0.884,4.056-1.896,5.94-3.037
		c1.885-1.139,3.646-2.3,5.284-3.48c1.885-1.375,3.716-2.852,5.495-4.433c0.42,1.295,0.879,2.516,1.385,3.647
		c1.479,3.301,3.315,5.83,5.513,7.585c2.195,1.757,4.733,2.635,7.612,2.635c1.412,0,2.983-0.267,4.719-0.802
		c1.736-0.534,3.72-1.335,5.95-2.404c2.229-1.069,4.776-2.404,7.635-4.007c2.684-1.504,5.735-3.253,9.123-5.228
		c0.281,0.77,0.577,1.516,0.893,2.222c1.479,3.301,3.317,5.83,5.513,7.585c2.196,1.757,4.735,2.635,7.612,2.635
		c1.413,0,2.984-0.267,4.72-0.802c1.735-0.534,3.72-1.335,5.949-2.404c2.228-1.069,5.004-2.404,7.863-4.007
		c1.407-0.789,2.886-1.644,4.5-2.562c0.509,0.858,1.052,1.689,1.668,2.463c1.778,2.232,4.001,4.01,6.667,5.331
		c2.668,1.323,5.779,1.981,9.334,1.981c2.286,0,4.545-0.264,6.772-0.796c2.228-0.531,4.38-1.237,6.455-2.121
		c2.074-0.884,5.636-2.88,7.275-4.353C601.261,99.771,599.925,88.329,599.925,88.329z M529.654,43.233
		c0.821-3.259,1.7-6.243,2.637-8.953c0.936-2.71,1.91-4.937,2.926-6.68c1.013-1.743,2.016-2.614,3.012-2.614
		c0.723,0,1.289,0.152,1.692,0.458c0.399,0.302,0.694,0.684,0.888,1.138c0.19,0.458,0.314,0.942,0.371,1.454
		c0.058,0.515,0.086,0.979,0.086,1.396c0,1.208-0.324,2.754-0.974,4.641c-0.651,1.883-1.473,3.912-2.466,6.082
		c-0.998,2.166-2.114,4.373-3.355,6.616c-1.244,2.245-2.438,4.329-3.585,6.25c-0.613-0.055-1.203-0.105-1.777-0.146
		c-0.575-0.044-1.146-0.092-1.72-0.149C528.077,49.655,528.832,46.491,529.654,43.233z M113.859,43.233
		c0.822-3.259,1.701-6.243,2.637-8.953c0.936-2.71,1.911-4.937,2.926-6.68c1.012-1.743,2.015-2.614,3.011-2.614
		c0.724,0,1.289,0.152,1.691,0.458c0.4,0.302,0.695,0.684,0.889,1.138c0.19,0.458,0.314,0.942,0.371,1.454
		c0.057,0.515,0.086,0.979,0.086,1.396c0,1.208-0.323,2.754-0.974,4.641c-0.651,1.883-1.473,3.912-2.466,6.082
		c-0.997,2.166-2.113,4.373-3.354,6.616c-1.097,1.979-2.152,3.826-3.174,5.553c-1.235-0.063-2.532-0.129-3.771-0.192
		C112.384,49.246,113.09,46.284,113.859,43.233z M167.23,89.537c-0.552,2.844-1.285,5.268-2.2,7.271
		c-0.914,2.004-1.98,3.666-3.198,4.982s-2.476,1.975-3.77,1.975c-1.485,0-2.761-0.315-3.828-0.944
		c-1.066-0.63-1.923-1.471-2.57-2.52c-0.647-1.049-1.123-2.28-1.428-3.692c-0.304-1.413-0.457-2.92-0.457-4.524
		c0-3.167,0.304-6.01,0.914-8.529c0.609-2.52,1.447-4.819,2.513-6.899c1.067-2.08,2.304-3.788,3.713-5.124
		c1.409-1.335,2.894-2.003,4.456-2.003c1.18,0,2.189,0.324,3.028,0.973c0.837,0.649,1.522,1.527,2.056,2.634
		c0.533,1.106,0.932,2.414,1.199,3.921c0.267,1.508,0.399,3.14,0.399,4.896C168.058,84.166,167.782,86.694,167.23,89.537z
		 M256.063,138.083c-0.25,1.343-1.875,7.409-2.275,8.648c-0.399,1.24-0.856,2.5-1.371,3.778c-0.515,1.279-1,2.271-1.457,2.976
		c-0.457,0.707-0.99,1.356-1.599,1.947c-0.609,0.592-1.276,1.001-1.999,1.231c-0.724,0.23-1.542,0.344-2.456,0.344
		c-2.514,0-3.142-1.832-1.883-5.493c1.527-4.352,3.586-8.626,6.183-12.826c2.593-4.197,5.226-7.251,7.895-9.16
		C257.038,130.059,256.886,133.691,256.063,138.083z M291.333,116.296c-0.042,0.948-0.089,2.134-0.152,3.559
		c-0.06,1.422-0.149,3.159-0.27,5.21c-0.08,1.173-0.131,2.503-0.152,3.985c-0.02,1.479-0.063,2.997-0.127,4.554
		c-0.067,1.556-0.155,3.073-0.27,4.555c-0.114,1.479-0.305,2.809-0.571,3.985c-0.267,1.177-0.61,2.116-1.029,2.818
		c-0.418,0.702-0.953,1.011-1.599,1.053c-1.439,0.091-2.589-0.927-3.267-2.08c-0.379-0.646-0.675-2.239-0.618-4.068
		c0.017-0.497,0.105-1.307,0.315-2.43c0.209-1.124,0.495-2.459,0.857-3.999c0.361-1.546,0.79-3.212,1.285-5.003
		c0.495-1.791,1.047-3.581,1.656-5.373c0.61-1.79,1.257-3.514,1.942-5.171c0.686-1.657,1.39-3.114,2.113-4.37
		C291.409,114.305,291.371,115.227,291.333,116.296z M303.72,98.167c0-2.18,0.069-4.368,0.212-6.569
		c0.137-2.197,0.559-4.599,1.266-7.204c0.706-2.605,1.314-4.793,1.829-6.568c0.513-1.775,1.16-3.308,1.941-4.599
		c0.784-1.294,1.707-2.319,2.773-3.079c1.066-0.757,2.304-1.136,3.717-1.136c1.251,0,2.228,0.344,2.929,1.027
		c0.705,0.681,1.195,1.504,1.482,2.465c0.282,0.96,0.396,1.988,0.339,3.075c-0.057,1.091-0.181,2.042-0.371,2.856
		c-0.343,1.514-1.142,3.692-2.398,6.54c-1.87,3.327-6.174,8.11-7.772,9.478C307.986,95.819,306.008,97.06,303.72,98.167z
		 M364.354,87.626c-0.152,1.23-0.485,2.767-1,4.611c-0.514,1.845-1.192,3.629-2.03,5.36c-0.842,1.73-1.832,3.21-2.977,4.437
		c-1.146,1.23-2.422,1.844-3.834,1.844c-0.876,0-1.603-0.225-2.175-0.677c-0.57-0.455-1.03-1.044-1.374-1.772
		c-0.341-0.728-0.58-1.555-0.713-2.481c-0.133-0.926-0.2-1.879-0.2-2.862c0-1.667,0.219-3.445,0.657-5.337
		c0.437-1.889,1.19-4.084,2.256-6.58c1.066-2.501,2.151-4.6,3.257-6.301c1.104-1.702,2.312-3.216,3.626-4.542
		c1.314-1.324,2.714-2.373,4.199-3.149s3.008-1.164,4.569-1.164L364.354,87.626z M409.061,55.75
		c1.021-5.172,1.536-7.758,1.536-7.758c0-0.003,0.841-2.789,2.521-8.365c1.675-5.575,3.119-9.599,4.328-12.074
		c1.209-2.474,2.417-4.437,3.627-5.887s2.336-2.176,3.382-2.176c0.289,0,0.461,0.395,0.516,1.184
		c0.054,0.789,0.082,1.743,0.082,2.859c-0.347,3.502-1.149,7.284-2.409,11.345c-1.26,4.062-2.751,8.13-4.468,12.21
		c-1.72,4.081-3.545,8.043-5.474,11.892c-1.93,3.852-3.754,7.315-5.472,10.395C407.426,65.463,408.036,60.924,409.061,55.75z
		 M438.046,84.521c0.077-1.154,0.429-2.63,1.061-4.421s0.847-2.355,1.663-4.507c0.461-1.219,1.107-2.294,1.891-3.248
		c0.785-0.951,1.759-1.724,2.927-2.322c1.165-0.599,2.57-0.897,4.214-0.897c0.918,0,1.692,0.542,2.324,1.626
		c0.628,1.082,0.944,2.461,0.944,4.141c0,1.196-0.669,2.707-2.009,4.535c-1.335,1.829-2.703,3.283-4.1,4.367
		c-1.393,1.082-2.903,1.969-4.529,2.659c-1.624,0.69-3.124,1.033-4.499,1.033C437.933,86.668,437.971,85.679,438.046,84.521z
		 M488.209,43.233c0.822-3.259,1.701-6.243,2.638-8.953c0.936-2.71,1.909-4.937,2.926-6.68c1.013-1.743,2.015-2.614,3.012-2.614
		c0.724,0,1.288,0.152,1.69,0.458c0.4,0.302,0.695,0.684,0.889,1.138c0.191,0.458,0.315,0.942,0.372,1.454
		c0.058,0.515,0.085,0.979,0.085,1.396c0,1.208-0.323,2.754-0.974,4.641c-0.651,1.883-1.473,3.912-2.466,6.082
		c-0.997,2.166-2.114,4.373-3.354,6.616c-0.899,1.623-1.771,3.158-2.619,4.612l-4.133-0.089
		C486.875,48.669,487.513,45.992,488.209,43.233z M514.744,90.538c-0.162,0.143-0.309,0.289-0.475,0.43
		c-1.412,1.203-2.889,2.347-4.434,3.435c-1.542,1.088-3.107,2.09-4.688,3.006c-1.579,0.916-3.087,1.708-4.516,2.375
		c-1.431,0.668-2.744,1.193-3.947,1.575c-1.2,0.382-2.199,0.573-2.999,0.573c-1.302,0-2.479-0.201-3.528-0.601
		c-1.051-0.401-1.939-1.05-2.666-1.947c-0.727-0.896-1.281-2.051-1.663-3.463c-0.384-1.413-0.574-3.149-0.574-5.21
		c0-0.802,0.01-1.679,0.028-2.633c0.02-0.955,0.048-1.947,0.086-2.978s0.076-2.071,0.113-3.12c0.039-1.049,0.077-2.07,0.115-3.062
		c0.114-2.29,0.247-4.619,0.399-6.984c0.955-1.183,2-2.51,3.126-3.979c1.13-1.47,2.249-2.968,3.357-4.495l1.211-1.84
		c0.078,0.004,0.152,0.009,0.23,0.013c6.426,0.329,13.757,0.642,20.949,0.922c-0.282,2.254-0.517,4.52-0.684,6.803
		c-0.188,2.595-0.283,5.039-0.283,7.328C513.904,81.751,514.195,86.351,514.744,90.538z M564.649,84.521
		c0.076-1.154,0.429-2.63,1.062-4.421c0.63-1.791,1.183-3.295,1.662-4.507c0.478-1.212,1.108-2.294,1.892-3.248
		c0.784-0.951,1.759-1.724,2.925-2.322c1.166-0.599,2.569-0.897,4.213-0.897c0.918,0,1.692,0.542,2.324,1.626
		c0.63,1.082,0.945,2.461,0.945,4.141c0,1.196-0.67,2.707-2.008,4.535c-1.336,1.829-2.703,3.283-4.1,4.367
		c-1.395,1.082-2.905,1.969-4.528,2.659c-1.624,0.69-3.127,1.033-4.501,1.033C564.535,86.668,564.572,85.679,564.649,84.521z"/>
</g>
</svg>
