<?xml version="1.0" encoding="utf-8"?>
<!-- Generator: Adobe Illustrator 16.0.0, SVG Export Plug-In . SVG Version: 6.00 Build 0)  -->
<!DOCTYPE svg PUBLIC "-//W3C//DTD SVG 1.1//EN" "http://www.w3.org/Graphics/SVG/1.1/DTD/svg11.dtd">
<svg version="1.1" id="Layer_1" xmlns="http://www.w3.org/2000/svg" xmlns:xlink="http://www.w3.org/1999/xlink" x="0px" y="0px"
	 width="1200px" height="216px" viewBox="0 0 1200 216" enable-background="new 0 0 1200 216" xml:space="preserve">
<line fill="none" stroke="#2895C7" stroke-width="1.0029" stroke-miterlimit="10" x1="150" y1="218" x2="150" y2="126.919"/>
<line fill="none" stroke="#2895C7" stroke-width="1.0029" stroke-miterlimit="10" x1="1050" y1="218" x2="1050" y2="126.919"/>
<path d="M1200,216c0,0-221.666-187.051-564.59-199.359C626.973,6.476,614.243,0,600,0s-26.972,6.476-35.41,16.641
	C221.667,28.949,0,216,0,216H1200z"/>
<path fill="#FFFFFF" d="M600.066,38.963c-1.069,0-2.032-0.496-2.615-1.046l-22.078-20.861c-0.479-0.452-0.5-1.205-0.049-1.684
	c0.451-0.476,1.206-0.498,1.685-0.048l22.077,20.86c0.343,0.309,1.051,0.731,1.825,0l22.079-20.86
	c0.477-0.451,1.232-0.43,1.685,0.048c0.451,0.479,0.43,1.232-0.049,1.684l-22.078,20.86
	C601.742,38.678,600.874,38.963,600.066,38.963z"/>
</svg>
